<?xml version="1.0" encoding="utf-8"?>
<!-- Generator: Adobe Illustrator 15.0.0, SVG Export Plug-In . SVG Version: 6.00 Build 0)  -->
<!DOCTYPE svg PUBLIC "-//W3C//DTD SVG 1.1//EN" "http://www.w3.org/Graphics/SVG/1.1/DTD/svg11.dtd">
<svg version="1.1" id="Layer_1" xmlns="http://www.w3.org/2000/svg" xmlns:xlink="http://www.w3.org/1999/xlink" x="0px" y="0px"
	 width="200px" height="200px" viewBox="0 0 200 200" enable-background="new 0 0 200 200" xml:space="preserve">
<g>
	<path fill="#E0E0E0" d="M199,100c0,54.672-44.329,99-99.006,99S1,154.672,1,100S45.317,1,99.994,1S199,45.328,199,100z"/>
	<path fill="#FFFFFF" d="M99.994,189C50.923,189,11,149.075,11,100s39.923-89,88.994-89C149.072,11,189,50.925,189,100
		S149.072,189,99.994,189z"/>
	<path fill="#F7C99A" d="M103.546,144.151l26.323-26.401l-0.011-0.01c4.024-3.654,6.479-8.979,6.277-14.838
		c-0.367-10.571-9.233-18.843-19.803-18.477c-5.401,0.187-10.195,2.603-13.549,6.323l-27.675,27.754L103.546,144.151z"/>
	<path fill="#C69D7B" d="M137.459,102.855c-0.391-11.283-9.888-20.145-21.171-19.753c-5.586,0.193-10.732,2.595-14.488,6.76
		l-27.626,27.707c-0.258,0.259-0.396,0.609-0.387,0.971c0.01,0.363,0.166,0.707,0.438,0.949l28.436,25.645
		c0.522,0.474,1.324,0.451,1.821-0.047l26.325-26.401C135.22,114.656,137.667,108.876,137.459,102.855z M103.722,91.685
		c3.316-3.677,7.796-5.768,12.658-5.936c0.209-0.007,0.417-0.013,0.625-0.013c9.546,0,17.476,7.596,17.809,17.212
		c0.182,5.238-1.949,10.273-5.845,13.812c0,0-23.812,23.899-25.471,25.566c-1.685-1.52-24.615-22.2-26.468-23.872
		C78.857,116.622,103.722,91.685,103.722,91.685z"/>
	<path fill="#F7C99A" d="M107.765,150.354c1.846-1.757,1.656-4.954-0.422-7.145l-0.222-0.232c2.083,2.104,5.264,2.374,7.162,0.569
		c1.9-1.806,1.794-4.997-0.206-7.187c2.112,1.845,5.067,2.045,6.858,0.345c1.917-1.821,1.749-5.109-0.376-7.345l-0.226-0.237
		c2.126,2.149,5.373,2.422,7.314,0.579c1.965-1.866,1.838-5.195-0.288-7.43l-3.415-3.597l0.024-0.026L98.495,91.43l-0.011,0.011
		c-3.514-4.146-8.75-6.786-14.611-6.786c-10.578,0-19.15,8.572-19.15,19.15c0,5.407,2.248,10.279,5.852,13.762l19.865,21.226
		c0.039,0.043,0.066,0.092,0.107,0.137l1.244,1.308l5.566,5.947l0.041-0.045l3.254,3.425
		C102.734,151.754,105.917,152.107,107.765,150.354z"/>
	<path fill="#F7C99A" d="M104.847,110.691l6.051-6.12l-10.632-11.148L83.82,109.765c0.297,0.36,0.615,0.71,0.955,1.046
		C90.352,116.322,99.336,116.267,104.847,110.691z"/>
	<path fill="#C69D7B" d="M111.855,103.657L101.224,92.51c-0.249-0.258-0.585-0.405-0.942-0.41c-0.355-0.004-0.697,0.134-0.951,0.384
		l-16.445,16.342c-0.504,0.501-0.564,1.26-0.084,1.784l1.045,1.142c2.945,2.914,6.85,4.505,10.996,4.48
		c4.145-0.024,8.031-1.66,10.946-4.606l6.05-6.124C112.342,104.992,112.347,104.173,111.855,103.657z M109.052,104.555
		c-1.307,1.321-5.145,5.207-5.145,5.207c-2.42,2.446-5.644,3.802-9.081,3.821c-0.025,0-0.051,0.001-0.076,0.001
		c-3.409,0-6.617-1.318-9.045-3.715c0,0-0.047-0.053-0.055-0.062c1.509-1.497,12.985-12.905,14.588-14.493
		C101.649,96.792,107.706,103.142,109.052,104.555z"/>
	<path fill="#C69D7B" d="M108.675,151.312L108.675,151.312c1.461-1.386,1.831-3.447,1.398-5.464c0.37,0.066,0.732,0.232,1.104,0.232
		c1.476,0,2.905-0.518,4.018-1.574c1.514-1.438,1.942-3.51,1.539-5.535c0.392,0.069,0.782,0.22,1.171,0.22
		c1.463,0,2.865-0.506,3.943-1.525c1.514-1.44,1.904-3.571,1.455-5.648c0.394,0.072,0.78,0.245,1.173,0.245
		c1.5,0,2.954-0.527,4.082-1.6c1.123-1.067,1.766-2.548,1.809-4.167c0.043-1.848-0.7-3.72-2.046-5.136l-3.416-3.597L99.463,90.526
		c-3.877-4.551-9.568-7.196-15.59-7.196c-11.289,0-20.475,9.188-20.475,20.475c0,5.589,2.221,10.814,6.256,14.714
		c0,0,19.791,21.149,19.809,21.169c0,0.002,0.13,0.157,0.13,0.157l1.237,1.303l5.559,5.939l3.303,3.391
		c1.449,1.521,3.351,2.307,5.16,2.307C106.271,152.784,107.633,152.301,108.675,151.312z M101.61,148.655
		c0,0-10.071-10.606-10.093-10.628c0.002,0-0.094-0.12-0.094-0.12l-19.885-21.244c-3.559-3.444-5.494-7.994-5.494-12.858
		c0-9.831,7.998-17.827,17.828-17.827c5.24,0,10.199,2.304,13.601,6.319l28.926,30.888c0.866,0.909,1.349,2.093,1.317,3.244
		c-0.023,0.916-0.371,1.737-0.981,2.316c-1.396,1.324-3.848,1.078-5.461-0.555c-0.009-0.007-0.019-0.01-0.028-0.018l-8.789-8.898
		c-0.516-0.518-1.352-0.523-1.872-0.011s-0.524,1.352-0.011,1.871l9.027,9.138c1.616,1.704,1.806,4.157,0.422,5.476
		c-1.265,1.202-3.448,1.035-5.077-0.385c-0.055-0.046-0.115-0.062-0.174-0.098l-8.768-8.877c-0.514-0.521-1.352-0.526-1.87-0.011
		c-0.522,0.512-0.526,1.351-0.013,1.87l9.043,9.156c0.032,0.029,0.069,0.041,0.099,0.066c1.337,1.637,1.409,3.879,0.106,5.115
		c-1.356,1.291-3.737,1.048-5.308-0.54c-0.512-0.516-1.344-0.526-1.863-0.018c-0.521,0.503-0.538,1.334-0.04,1.862l0.222,0.231
		c1.573,1.656,1.786,4.021,0.473,5.272c-0.537,0.509-1.248,0.756-2.011,0.756C103.747,150.15,102.543,149.635,101.61,148.655z"/>
	<path fill="#F7C99A" d="M100.836,134.44c1.646-1.672,4.414-1.617,6.181,0.122l0,0c1.77,1.74,1.867,4.505,0.225,6.175l-7.993,8.127
		c-1.648,1.675-4.413,1.62-6.182-0.12l0,0c-1.771-1.739-1.869-4.504-0.225-6.177L100.836,134.44z"/>
	<path fill="#C69D7B" d="M109.734,137.782c-0.012-1.562-0.648-3.045-1.789-4.163c-1.129-1.11-2.602-1.722-4.151-1.722
		c-0.013,0-0.031,0-0.047,0c-1.473,0.012-2.843,0.587-3.855,1.616l-7.993,8.124c-2.15,2.192-2.045,5.802,0.24,8.052
		c1.141,1.121,2.631,1.73,4.197,1.721c1.475-0.014,2.842-0.588,3.855-1.616l7.992-8.128
		C109.196,140.638,109.747,139.26,109.734,137.782z M93.785,143.491l7.994-8.124c0.517-0.523,1.226-0.815,1.988-0.822
		c0.859-0.008,1.684,0.332,2.32,0.96c0.639,0.627,0.993,1.445,1.001,2.302c0.005,0.768-0.275,1.479-0.793,2.005l-7.993,8.127
		c-0.514,0.524-1.224,0.815-1.988,0.824c-0.859,0.008-1.684-0.335-2.32-0.96C92.748,146.576,92.656,144.644,93.785,143.491z
		 M99.892,133.514L99.892,133.514L99.892,133.514z"/>
	<path fill="#F7C99A" d="M94.462,128.653c1.644-1.674,4.353-1.677,6.048-0.009l0,0c1.695,1.668,1.736,4.375,0.092,6.048
		l-7.994,8.127c-1.646,1.674-4.354,1.677-6.048,0.008l0,0c-1.698-1.668-1.737-4.375-0.093-6.048L94.462,128.653z"/>
	<path fill="#C69D7B" d="M103.132,131.687c-0.012-1.508-0.615-2.924-1.694-3.986c-1.08-1.062-2.506-1.64-4.013-1.627
		c-1.484,0.012-2.871,0.598-3.909,1.652h0.002l-7.994,8.125c-2.153,2.191-2.106,5.742,0.105,7.922
		c2.213,2.176,5.77,2.164,7.923-0.027l7.992-8.125C102.58,134.569,103.146,133.17,103.132,131.687z M87.41,137.706l7.996-8.126
		c0.538-0.549,1.262-0.854,2.041-0.859c0.799-0.006,1.558,0.302,2.135,0.866c0.574,0.568,0.896,1.322,0.904,2.12
		c0.007,0.777-0.289,1.509-0.829,2.058l-7.991,8.127c-1.132,1.15-3.005,1.147-4.179-0.008
		C86.314,140.729,86.279,138.858,87.41,137.706z"/>
	<path fill="#F7C99A" d="M87.701,122.859c1.609-1.638,4.32-1.582,6.051,0.118l0,0c1.734,1.704,1.832,4.411,0.219,6.052l-7.826,7.955
		c-1.611,1.64-4.322,1.585-6.055-0.115l0,0c-1.73-1.704-1.828-4.415-0.219-6.054L87.701,122.859z"/>
	<path fill="#C69D7B" d="M94.682,122.033c-1.109-1.093-2.559-1.692-4.082-1.692c-0.016,0-0.033,0-0.049,0
		c-1.451,0.014-2.799,0.58-3.795,1.592l-7.828,7.956c-2.118,2.157-2.014,5.711,0.234,7.923c2.25,2.214,5.807,2.258,7.926,0.101
		l7.826-7.957C97.035,127.799,96.932,124.246,94.682,122.033z M80.814,131.744l7.828-7.958c0.502-0.508,1.186-0.791,1.932-0.798
		c0.832-0.007,1.633,0.323,2.251,0.932c1.21,1.19,1.3,3.065,0.203,4.179l-7.827,7.957c-1.098,1.116-2.974,1.057-4.182-0.132
		C79.811,134.735,79.719,132.859,80.814,131.744z M86.756,121.933L86.756,121.933L86.756,121.933z"/>
	<path fill="#F7C99A" d="M81.456,117.189c1.612-1.638,4.266-1.642,5.925-0.008l0,0c1.66,1.635,1.699,4.287,0.09,5.927l-7.828,7.956
		c-1.609,1.639-4.264,1.642-5.925,0.01l0,0c-1.661-1.634-1.7-4.288-0.089-5.927L81.456,117.189z"/>
	<path fill="#C69D7B" d="M88.309,116.239c-2.178-2.143-5.674-2.133-7.795,0.021l-7.829,7.958c-2.12,2.159-2.071,5.657,0.106,7.798
		c1.061,1.046,2.464,1.615,3.945,1.603c1.463-0.013,2.83-0.593,3.849-1.625l7.829-7.959
		C90.534,121.881,90.487,118.382,88.309,116.239z M84.406,117.284c0.734,0,1.477,0.28,2.047,0.843
		c1.137,1.12,1.17,2.937,0.072,4.051l-7.828,7.959c-0.523,0.531-1.227,0.828-1.981,0.833c-0.777,0.008-1.511-0.29-2.071-0.843
		c-1.137-1.114-1.168-2.934-0.072-4.052l7.826-7.957C82.947,117.562,83.674,117.284,84.406,117.284z"/>
	<polygon fill="#F7C99A" points="107.436,106.087 111.462,102.419 102.443,92.989 98.721,96.794 107.241,105.892 	"/>
	
		<rect x="123.271" y="61.521" transform="matrix(0.7303 -0.6831 0.6831 0.7303 -15.9929 119.2422)" fill="#39B54A" stroke="#249124" stroke-width="2.5" stroke-miterlimit="10" width="39.519" height="36.711"/>
	
		<rect x="37.21" y="61.521" transform="matrix(-0.7303 -0.6831 0.6831 -0.7303 44.0121 177.1291)" fill="#39B54A" stroke="#249124" stroke-width="2.5" stroke-miterlimit="10" width="39.519" height="36.712"/>
</g>
</svg>
