<?xml version="1.0" encoding="utf-8"?>
<!-- Generator: Adobe Illustrator 15.0.0, SVG Export Plug-In . SVG Version: 6.00 Build 0)  -->
<!DOCTYPE svg PUBLIC "-//W3C//DTD SVG 1.1//EN" "http://www.w3.org/Graphics/SVG/1.1/DTD/svg11.dtd">
<svg version="1.1" id="Layer_1" xmlns="http://www.w3.org/2000/svg" xmlns:xlink="http://www.w3.org/1999/xlink" x="0px" y="0px"
	 width="200px" height="200px" viewBox="0 0 200 200" enable-background="new 0 0 200 200" xml:space="preserve">
<g>
	<path fill="#EE7830" d="M199,100c0,54.672-44.329,99-99.006,99C45.317,199,1,154.672,1,100S45.317,1,99.994,1
		C154.671,1,199,45.328,199,100z"/>
	<g>
		<g>
			<polygon fill="#C56426" points="70.978,55.065 70.978,47.585 63.497,47.585 63.497,40.425 70.978,40.425 70.978,32.947 
				78.136,32.943 78.138,40.425 85.616,40.425 85.616,47.585 78.138,47.585 78.138,55.065 			"/>
			<path fill="#F1B81B" d="M76.638,53.565h-4.16v-7.48h-7.48v-4.16h7.48v-7.479l4.158-0.002l0.002,7.48h7.479v4.16h-7.479V53.565
				L76.638,53.565z"/>
		</g>
		<g>
			<path fill="#FFFFFF" d="M100.003,20.039c-0.012,0-0.023-0.004-0.036-0.004c-0.001,0-0.001,0-0.002,0
				C99.978,20.035,99.99,20.039,100.003,20.039L100.003,20.039z"/>
			<path fill="#C56426" d="M103.154,71.447c-1.271-0.001-2.409-0.591-3.153-1.511c-0.744,0.92-1.882,1.51-3.154,1.511
				c-2.237-0.002-4.057-1.824-4.057-4.062l0.009-18.867c-0.471,0.248-1.006,0.389-1.573,0.39c-1.367-0.001-2.548-0.815-3.085-1.983
				h-0.306l-0.003-12.543c-0.01-0.163-0.062-2.288,1.614-4.082c1.361-1.455,3.403-2.219,6.07-2.27h3.237L100,30.073l1.247-2.043
				h3.209c2.694,0.051,4.737,0.814,6.099,2.27c1.678,1.794,1.625,3.919,1.612,4.155l0.002,12.47h-0.325
				c-0.542,1.183-1.713,1.982-3.066,1.983c-0.567-0.001-1.104-0.142-1.574-0.391l0.009,18.867c0,2.239-1.819,4.062-4.055,4.063
				L103.154,71.447L103.154,71.447z"/>
			<path fill="#FFFFFF" d="M104.457,29.529h-2.367l-2.087,3.419l-0.002-0.003l-0.002,0.003l-2.087-3.419h-2.367
				c-6.443,0.121-6.213,4.852-6.213,4.852v11.043h0.003c0,0.027-0.003,0.062-0.003,0.084c0,1.051,0.847,1.898,1.893,1.899
				c1.044-0.001,1.891-0.849,1.891-1.899c0-0.022,0-0.057-0.004-0.084h0.004V35.21h0.004h1.182h0.004L94.29,67.385
				c0,1.413,1.149,2.562,2.556,2.562c1.415-0.001,2.559-1.149,2.559-2.562V46.621h0.004H100h0.004h0.592h0.004v20.764
				c0,1.413,1.144,2.562,2.559,2.562c1.406-0.001,2.556-1.149,2.556-2.562l-0.015-32.175h0.004h1.182h0.004v10.214h0.004
				c-0.004,0.027-0.004,0.062-0.004,0.084c0,1.051,0.848,1.898,1.891,1.899c1.047-0.001,1.894-0.849,1.894-1.899
				c0-0.022-0.003-0.057-0.003-0.084h0.003V34.381C110.67,34.381,110.9,29.65,104.457,29.529z"/>
			<path fill="#C56426" d="M99.964,30.205c-3.216-0.001-5.833-2.618-5.833-5.833c0-3.217,2.617-5.836,5.833-5.837h0.115l0.042,0.006
				c3.146,0.089,5.68,2.681,5.68,5.831c0,3.151-2.535,5.743-5.677,5.827L99.964,30.205L99.964,30.205z"/>
			<path fill="#FFFFFF" d="M100.003,20.039c-0.013,0-0.025-0.004-0.038-0.004c-2.394,0.001-4.334,1.94-4.334,4.337
				c0,2.392,1.94,4.332,4.334,4.333c0.013,0,0.025-0.004,0.038-0.004c2.377-0.02,4.298-1.949,4.298-4.329
				C104.301,21.987,102.38,20.059,100.003,20.039z"/>
		</g>
	</g>
</g>
</svg>
