<?xml version="1.0" encoding="utf-8"?>
<!-- Generator: Adobe Illustrator 15.0.0, SVG Export Plug-In . SVG Version: 6.00 Build 0)  -->
<!DOCTYPE svg PUBLIC "-//W3C//DTD SVG 1.1//EN" "http://www.w3.org/Graphics/SVG/1.1/DTD/svg11.dtd">
<svg version="1.1" id="Layer_1" xmlns="http://www.w3.org/2000/svg" xmlns:xlink="http://www.w3.org/1999/xlink" x="0px" y="0px"
	 width="625px" height="45px" viewBox="0 0 625 45" enable-background="new 0 0 625 45" xml:space="preserve">
<g>
	<g>
		<polygon fill="#EFC257" points="311.921,2.034 318.571,15.508 333.44,17.669 322.681,28.156 325.221,42.966 311.921,35.974 
			298.622,42.966 301.162,28.156 290.402,17.668 305.271,15.508 		"/>
		<polygon fill="#EFC257" points="356.922,10.039 360.971,18.243 370.024,19.559 363.473,25.944 365.02,34.961 356.922,30.704 
			348.823,34.961 350.37,25.944 343.818,19.558 352.872,18.243 		"/>
		<polygon fill="#EFC257" points="266.921,10.039 270.971,18.243 280.024,19.559 273.473,25.944 275.02,34.961 266.921,30.704 
			258.823,34.961 260.37,25.944 253.818,19.558 262.872,18.243 		"/>
	</g>
	<g>
		<polygon fill="#EFC257" points="3.5,24.977 246.5,26.945 246.5,24.977 246.5,22.977 		"/>
		<polygon fill="#EFC257" points="621.5,24.977 378.5,26.945 378.5,24.977 378.5,22.977 		"/>
	</g>
</g>
</svg>
