<?xml version="1.0" encoding="UTF-8"?>
<!-- Generator: Adobe Illustrator 18.1.0, SVG Export Plug-In . SVG Version: 6.00 Build 0)  -->
<svg version="1.1" id="Layer_1" xmlns="http://www.w3.org/2000/svg" xmlns:xlink="http://www.w3.org/1999/xlink" x="0px" y="0px" viewBox="0 0 800 1280" enable-background="new 0 0 800 1280" xml:space="preserve">
<rect x="73.4" y="44.5" fill="none" width="647.5" height="57.3"/>
<text transform="matrix(1 0 0 1 73.4102 101.0723)" fill="#FFFFFF" font-family="'BebasNeueBold'" font-size="80.8316">how Hard work Pays </text>
<text transform="matrix(1 0 0 1 249.1997 242.5596)" fill="#EE7830" font-family="'BebasNeueBold'" font-size="36">Teachers</text>
<text transform="matrix(1 0 0 1 629.0781 242.5598)" fill="#01AEF0" font-family="'BebasNeueBold'" font-size="36">Parents</text>
<text transform="matrix(1 0 0 1 427.6436 243.5342)" fill="#13CF56" font-family="'BebasNeueBold'" font-size="36">Businesses</text>
<text transform="matrix(1 0 0 1 70.6465 243.5342)" fill="#FEF300" font-family="'BebasNeueBold'" font-size="36">Students</text>
<text transform="matrix(1 0 0 1 60.3003 408.2881)"><tspan x="0" y="0" fill="#FFFFFF" font-family="'Raleway-SemiBold'" font-size="14">Students take their  </tspan><tspan x="12.7" y="16.8" fill="#FFFFFF" font-family="'Raleway-SemiBold'" font-size="14">usual tests and  </tspan><tspan x="7.9" y="33.6" fill="#FFFFFF" font-family="'Raleway-SemiBold'" font-size="14">quizzes at school</tspan></text>
<text transform="matrix(1 0 0 1 67.209 627.0261)"><tspan x="0" y="0" fill="#FFFFFF" font-family="'Raleway-SemiBold'" font-size="14">Students receive </tspan><tspan x="3.3" y="16.8" fill="#FFFFFF" font-family="'Raleway-SemiBold'" font-size="14">FridgePoints for </tspan><tspan x="-3.5" y="33.6" fill="#FFFFFF" font-family="'Raleway-SemiBold'" font-size="14">good grades after </tspan><tspan x="2.1" y="50.4" fill="#FFFFFF" font-family="'Raleway-SemiBold'" font-size="14">verification from </tspan><tspan x="15.5" y="67.2" fill="#FFFFFF" font-family="'Raleway-SemiBold'" font-size="14">their teacher</tspan></text>
<text transform="matrix(1 0 0 1 93.3955 278.4651)"><tspan x="0" y="0" fill="#FFFFFF" font-family="'Raleway-SemiBold'" font-size="14">Students </tspan><tspan x="-6.8" y="16.8" fill="#FFFFFF" font-family="'Raleway-SemiBold'" font-size="14">register for </tspan><tspan x="-16.1" y="33.6" fill="#FFFFFF" font-family="'Raleway-SemiBold'" font-size="14">FridgeWorthy </tspan><tspan x="-9.2" y="50.4" fill="#FFFFFF" font-family="'Raleway-SemiBold'" font-size="14">through our </tspan><tspan x="-10.3" y="67.2" fill="#FFFFFF" font-family="'Raleway-SemiBold'" font-size="14">online portal</tspan></text>
<text transform="matrix(1 0 0 1 77.0435 511.5183)"><tspan x="0" y="0" fill="#FFFFFF" font-family="'Raleway-SemiBold'" font-size="14">Students post </tspan><tspan x="-5.9" y="16.8" fill="#FFFFFF" font-family="'Raleway-SemiBold'" font-size="14">good grades on </tspan><tspan x="-10.8" y="33.6" fill="#FFFFFF" font-family="'Raleway-SemiBold'" font-size="14">FridgeWorthy for </tspan><tspan x="8.8" y="50.4" fill="#FFFFFF" font-family="'Raleway-SemiBold'" font-size="14">designated </tspan><tspan x="6" y="67.2" fill="#FFFFFF" font-family="'Raleway-SemiBold'" font-size="14">assignments</tspan></text>
<text transform="matrix(1 0 0 1 254.9443 511.5186)"><tspan x="0" y="0" fill="#FFFFFF" font-family="'Raleway-SemiBold'" font-size="14">Teachers verify </tspan><tspan x="5.1" y="16.8" fill="#FFFFFF" font-family="'Raleway-SemiBold'" font-size="14">test grades to </tspan><tspan x="2.6" y="33.6" fill="#FFFFFF" font-family="'Raleway-SemiBold'" font-size="14">grant students </tspan><tspan x="11.1" y="50.4" fill="#FFFFFF" font-family="'Raleway-SemiBold'" font-size="14">FridgePoints</tspan></text>
<text transform="matrix(1 0 0 1 249.0854 627.0259)"><tspan x="0" y="0" fill="#FFFFFF" font-family="'Raleway-SemiBold'" font-size="14">Teachers receive </tspan><tspan x="18.7" y="16.8" fill="#FFFFFF" font-family="'Raleway-SemiBold'" font-size="14">rewards for </tspan><tspan x="10" y="33.6" fill="#FFFFFF" font-family="'Raleway-SemiBold'" font-size="14">posting online </tspan><tspan x="-1.4" y="50.4" fill="#FFFFFF" font-family="'Raleway-SemiBold'" font-size="14">submission forms </tspan><tspan x="7.3" y="67.2" fill="#FFFFFF" font-family="'Raleway-SemiBold'" font-size="14">and confirming </tspan><tspan x="6.5" y="84" fill="#FFFFFF" font-family="'Raleway-SemiBold'" font-size="14">student grades </tspan></text>
<text transform="matrix(1 0 0 1 248.7656 779.9998)"><tspan x="0" y="0" fill="#FFFFFF" font-family="'Raleway-SemiBold'" font-size="14">Teachers receive </tspan><tspan x="18.7" y="16.8" fill="#FFFFFF" font-family="'Raleway-SemiBold'" font-size="14">rewards for </tspan><tspan x="3.5" y="33.6" fill="#FFFFFF" font-family="'Raleway-SemiBold'" font-size="14">providing online </tspan><tspan x="0.7" y="50.4" fill="#FFFFFF" font-family="'Raleway-SemiBold'" font-size="14">study material to </tspan><tspan x="10.9" y="67.2" fill="#FFFFFF" font-family="'Raleway-SemiBold'" font-size="14">their students </tspan></text>
<text transform="matrix(1 0 0 1 276.9868 278.3621)"><tspan x="0" y="0" fill="#FFFFFF" font-family="'Raleway-SemiBold'" font-size="14">Teachers</tspan><tspan x="-7.7" y="16.8" fill="#FFFFFF" font-family="'Raleway-SemiBold'" font-size="14">register for </tspan><tspan x="-16.9" y="33.6" fill="#FFFFFF" font-family="'Raleway-SemiBold'" font-size="14">FridgeWorthy </tspan><tspan x="-10.1" y="50.4" fill="#FFFFFF" font-family="'Raleway-SemiBold'" font-size="14">through our </tspan><tspan x="-11.2" y="67.2" fill="#FFFFFF" font-family="'Raleway-SemiBold'" font-size="14">online portal</tspan></text>
<text transform="matrix(1 0 0 1 244.1245 408.2881)"><tspan x="0" y="0" fill="#FFFFFF" font-family="'Raleway-SemiBold'" font-size="14">Teachers post test </tspan><tspan x="-6.9" y="16.8" fill="#FFFFFF" font-family="'Raleway-SemiBold'" font-size="14">submission forms on </tspan><tspan x="-1.3" y="33.6" fill="#FFFFFF" font-family="'Raleway-SemiBold'" font-size="14">Fridg</tspan><tspan x="33.1" y="33.6" fill="#FFFFFF" font-family="'Raleway-SemiBold'" font-size="14">e</tspan><tspan x="42" y="33.6" fill="#FFFFFF" font-family="'Raleway-SemiBold'" font-size="14">-</tspan><tspan x="47" y="33.6" fill="#FFFFFF" font-family="'Raleway-SemiBold'" font-size="14">Worth</tspan><tspan x="88.8" y="33.6" fill="#FFFFFF" font-family="'Raleway-SemiBold'" font-size="14">y</tspan><tspan x="95.6" y="33.6" fill="#FFFFFF" font-family="'Raleway-SemiBold'" font-size="14">.</tspan><tspan x="98.8" y="33.6" fill="#FFFFFF" font-family="'Raleway-SemiBold'" font-size="14">com</tspan></text>
<text transform="matrix(1 0 0 1 623.3218 278.0654)"><tspan x="0" y="0" fill="#FFFFFF" font-family="'Raleway-SemiBold'" font-size="14">Parents register </tspan><tspan x="1.1" y="16.8" fill="#FFFFFF" font-family="'Raleway-SemiBold'" font-size="14">along with their </tspan><tspan x="-4.9" y="33.6" fill="#FFFFFF" font-family="'Raleway-SemiBold'" font-size="14">students to allow </tspan><tspan x="2.2" y="50.4" fill="#FFFFFF" font-family="'Raleway-SemiBold'" font-size="14">them access to </tspan><tspan x="8.4" y="67.2" fill="#FFFFFF" font-family="'Raleway-SemiBold'" font-size="14">FridgeWorthy</tspan></text>
<text transform="matrix(1 0 0 1 624.5259 408.2876)"><tspan x="0" y="0" fill="#FFFFFF" font-family="'Raleway-SemiBold'" font-size="14">Parents receive </tspan><tspan x="9.8" y="16.8" fill="#FFFFFF" font-family="'Raleway-SemiBold'" font-size="14">updates and </tspan><tspan x="-8" y="33.6" fill="#FFFFFF" font-family="'Raleway-SemiBold'" font-size="14">rewards based on </tspan><tspan x="3.8" y="50.4" fill="#FFFFFF" font-family="'Raleway-SemiBold'" font-size="14">their students’ </tspan><tspan x="-7.8" y="67.2" fill="#FFFFFF" font-family="'Raleway-SemiBold'" font-size="14">academic success</tspan></text>
<text transform="matrix(1 0 0 1 434.8281 278.4541)"><tspan x="0" y="0" fill="#FFFFFF" font-family="'Raleway-SemiBold'" font-size="14">Local businesses </tspan><tspan x="6.9" y="16.8" fill="#FFFFFF" font-family="'Raleway-SemiBold'" font-size="14">provide unique </tspan><tspan x="1.6" y="33.6" fill="#FFFFFF" font-family="'Raleway-SemiBold'" font-size="14">rewards through </tspan><tspan x="-0.3" y="50.4" fill="#FFFFFF" font-family="'Raleway-SemiBold'" font-size="14">FridgeWorthy for </tspan><tspan x="-2.5" y="67.2" fill="#FFFFFF" font-family="'Raleway-SemiBold'" font-size="14">students, parents, </tspan><tspan x="15.2" y="84" fill="#FFFFFF" font-family="'Raleway-SemiBold'" font-size="14">and teachers</tspan></text>
<text transform="matrix(1 0 0 1 454.5049 542.542)"><tspan x="0" y="0" fill="#FFFFFF" font-family="'Raleway-SemiBold'" font-size="14">Businesses </tspan><tspan x="-6.5" y="16.8" fill="#FFFFFF" font-family="'Raleway-SemiBold'" font-size="14">receive more </tspan><tspan x="-11.5" y="33.6" fill="#FFFFFF" font-family="'Raleway-SemiBold'" font-size="14">patronage and </tspan><tspan x="-0.4" y="50.4" fill="#FFFFFF" font-family="'Raleway-SemiBold'" font-size="14">community </tspan><tspan x="-2.3" y="67.2" fill="#FFFFFF" font-family="'Raleway-SemiBold'" font-size="14">involvement</tspan></text>
<text transform="matrix(1 0 0 1 427.2476 408.2876)"><tspan x="0" y="0" fill="#FFFFFF" font-family="'Raleway-SemiBold'" font-size="14">Rewards earned by </tspan><tspan x="11.2" y="16.8" fill="#FFFFFF" font-family="'Raleway-SemiBold'" font-size="14">students can be </tspan><tspan x="8.9" y="33.6" fill="#FFFFFF" font-family="'Raleway-SemiBold'" font-size="14">redeemed at the </tspan><tspan x="2.4" y="50.4" fill="#FFFFFF" font-family="'Raleway-SemiBold'" font-size="14">local business that </tspan><tspan x="-1.6" y="67.2" fill="#FFFFFF" font-family="'Raleway-SemiBold'" font-size="14">provided the reward</tspan></text>
<text transform="matrix(1 0 0 1 62.8555 746.5718)"><tspan x="0" y="0" fill="#FFFFFF" font-family="'Raleway-SemiBold'" font-size="14">Students use their </tspan><tspan x="10.3" y="16.8" fill="#FFFFFF" font-family="'Raleway-SemiBold'" font-size="14">FridgePoints to </tspan><tspan x="13" y="33.6" fill="#FFFFFF" font-family="'Raleway-SemiBold'" font-size="14">redeem prizes </tspan><tspan x="1" y="50.4" fill="#FFFFFF" font-family="'Raleway-SemiBold'" font-size="14">from participating </tspan><tspan x="7.4" y="67.2" fill="#FFFFFF" font-family="'Raleway-SemiBold'" font-size="14">local businesses</tspan></text>
<text transform="matrix(1 0 0 1 79.6411 878.897)"><tspan x="0" y="0" fill="#FFFFFF" font-family="'Raleway-SemiBold'" font-size="14">Students can </tspan><tspan x="0.4" y="16.8" fill="#FFFFFF" font-family="'Raleway-SemiBold'" font-size="14">access study </tspan><tspan x="-3.9" y="33.6" fill="#FFFFFF" font-family="'Raleway-SemiBold'" font-size="14">material in the </tspan><tspan x="-13.3" y="50.4" fill="#FFFFFF" font-family="'Raleway-SemiBold'" font-size="14">form of games to </tspan><tspan x="-10.2" y="67.2" fill="#FFFFFF" font-family="'Raleway-SemiBold'" font-size="14">help prepare for </tspan><tspan x="-6" y="84" fill="#FFFFFF" font-family="'Raleway-SemiBold'" font-size="14">upcoming tests</tspan></text>
<text transform="matrix(1 0 0 1 79.6411 1024.2271)"><tspan x="0" y="0" fill="#FFFFFF" font-family="'Raleway-SemiBold'" font-size="14">Students can </tspan><tspan x="-6.1" y="16.8" fill="#FFFFFF" font-family="'Raleway-SemiBold'" font-size="14">earn additional </tspan><tspan x="-8" y="33.6" fill="#FFFFFF" font-family="'Raleway-SemiBold'" font-size="14">FridgePoints by </tspan><tspan x="-19.9" y="50.4" fill="#FFFFFF" font-family="'Raleway-SemiBold'" font-size="14">playing games that </tspan><tspan x="-18.6" y="67.2" fill="#FFFFFF" font-family="'Raleway-SemiBold'" font-size="14">stimulate the brain </tspan></text>
<g opacity="0.25">
	<polygon fill="#FFFFFF" points="398.4,116.8 403,126.2 413.4,127.7 405.9,135 407.6,145.3 398.4,140.4 389.1,145.3 390.9,135    383.4,127.7 393.8,126.2  "/>
	<polygon fill="#FFFFFF" points="429.7,122.4 432.5,128.1 438.8,129 434.2,133.5 435.3,139.7 429.7,136.8 424.1,139.7 425.1,133.5    420.6,129 426.9,128.1  "/>
	<polygon fill="#FFFFFF" points="367.1,122.4 369.9,128.1 376.2,129 371.6,133.5 372.7,139.7 367.1,136.8 361.4,139.7 362.5,133.5    358,129 364.3,128.1  "/>
</g>
<polygon opacity="0.25" fill="#FFFFFF" points="70.6,132.9 339,135 339,132.9 339,130.8 "/>
<polygon opacity="0.25" fill="#FFFFFF" points="725.4,132.9 457,135 457,132.9 457,130.8 "/>
<g>
	<path fill="#FEF300" d="M517.3,866.2c-7.6-1-12.9-7.9-11.9-15.5c0.8-6.1,6.4-10.3,12.4-9.5c4.2,0.5,8.3,3.9,8.7,8   c-0.1-7.3-6.7-13.3-14.1-13.3c-7.4,0-13.4,6-13.4,13.4c0,7.4,5.1,17.1,20.5,17.1l0.2,0C518.8,866.3,518.1,866.3,517.3,866.2z"/>
	<path fill="#FEF300" d="M525.8,865.1l-6.2,1.2C521.8,866.3,523.9,865.9,525.8,865.1z"/>
	<path fill="#FEF300" d="M526,865.1c0,0,0.1-0.1,0.1-0.1c-0.1,0-0.2,0.1-0.3,0.1L526,865.1z"/>
	<path fill="#FEF300" d="M474,758.6c-7.6-1-12.9-7.9-11.9-15.5c0.8-6.1,6.4-10.3,12.4-9.5c4.2,0.5,8.3,4,8.6,8   c-0.1-7.3-6.6-13.3-14-13.3c-7.4,0-13.4,6-13.4,13.4c0,7.4,5.1,17.1,20.5,17.1l0,0C475.5,758.7,474.8,758.7,474,758.6z"/>
	<path fill="#FEF300" d="M692.1,758.6c7.6-1,12.9-7.9,11.9-15.5c-0.8-6.1-6.4-10.3-12.4-9.5c-4.2,0.5-8.3,4-8.6,8   c0.1-7.3,6.6-13.3,14-13.3c7.4,0,13.4,6,13.4,13.4c0,7.4-5.1,17.1-20.5,17.1l0,0C690.6,758.7,691.4,758.7,692.1,758.6z"/>
	<path fill="#FEF300" d="M492.8,734.9l-0.3,0.4c0.1,0,0.2,0,0.3,0C492.8,735.2,492.8,735,492.8,734.9z"/>
	<path fill="#FEF300" d="M535.3,840.3c-1.8-4.8-7.6-9.7-9.5-11.3c-13.6-11.2-40.1-23.1-68-46.3c-34.9-29-18.9-62.6,0-66.5   c14.7-3.1,23.4,2.9,28.3,7.5c3.9,3.6,5.9,8.7,6.5,10.6c0.1,0.2,0.1,0.4,0.2,0.6l0.2-0.3c-0.6-1.9-1.9-10.7-8.2-17.2   c-9.5-9.7-24.5-11.9-38.1-6.7c-18,6.9-35.4,45-0.5,73.9c15.4,12.8,33,23.6,47.9,32.6c12,7.3,22.3,13.3,28.3,18.4   c3.8,3.2,7.7,6.3,9.6,12.3c1.6,4.8,0.6,12-5.8,17.1c5.5-2.3,9.7-7.4,10.6-13.7C537.2,847.4,536.6,843.7,535.3,840.3z"/>
	<path fill="#FFFFFF" d="M470.4,798.9c-8.1-5.4-16.1-11.1-23.6-17.3c-19.2-15.9-19.6-33-18.1-41.8c2.2-13.1,10.5-22.7,17.5-25.4   c3.4-1.3,6.9-2.1,10.4-2.4c-0.5,0.1-1.1,0.2-1.6,0.3c-10.5,2.2-19.6,11.8-22.6,24c-4.2,16.9,3.4,34.9,20.9,49.5   C459.1,790.6,464.8,795,470.4,798.9z"/>
	<path fill="#FEF300" d="M476.2,758.7c0.3,0,0.5,0,0.8,0c-0.1-0.2-0.2-0.4-0.4-0.6L476.2,758.7z"/>
	<path fill="#FEF300" stroke="#C9BA05" stroke-width="2.7652" stroke-miterlimit="10" d="M597.9,973.8c-5.1-5.7-10.4-27.8-10.2-48.1   c0-6,1.2-20.5,2.5-27.8c0.8-0.8,1.6-1.5,2.3-2c1.7-1.3,2.8-3.3,2.8-5.6c0-1.6-0.5-3-1.4-4.2c-0.2-0.2-0.6-0.7-1-1.4   c0.6-2.5,1.2-4.4,1.7-5.4c4.7-9.5,16.2-21.1,16.2-21.1L600,855h-17.7h-17.7l-10.8,3.1c0,0,11.5,11.6,16.2,21.1   c0.5,1,1.1,2.9,1.7,5.4c-0.4,0.7-0.8,1.2-1,1.4c-0.9,1.2-1.4,2.6-1.4,4.2c0,2.3,1.1,4.3,2.8,5.6c0.7,0.5,1.5,1.2,2.3,2   c1.3,7.4,2.5,17.4,2.5,27.8c0,15.3-5.3,42.4-10.4,48.2c-8.3,9.4-44.7,9.8-47.5,36.4h63.2h63.2C642.7,983.7,606.2,983.2,597.9,973.8   z"/>
	<path fill="#FFFFFF" d="M614.4,986.8c-1.3-0.5-2.6-1-3.9-1.4c7,4.3,17.2,12.4,17.6,19.3h13.1C636.9,994.9,625,990.6,614.4,986.8z"/>
	<path fill="#FFFFFF" d="M551.4,985.2c-10.6,3.8-22.4,8.1-26.8,17.8h17c12.2-16.5,27.9-16.7,32.6-24.1c5.2-8.1,6.4-48.1,6.4-48.1   c-1.2,15.8-5.7,38.6-11.5,45.1C565.4,980.1,558.9,982.5,551.4,985.2z"/>
	<path fill="none" stroke="#C9BA05" stroke-width="2.7652" stroke-miterlimit="10" d="M526,865.1c6.5-5.1,7.5-12.4,6-17.2   c-1.9-6-5.8-9.1-9.6-12.3c-6-5.1-16.3-11.2-28.3-18.4c-14.9-9-32.4-19.7-47.9-32.6c-34.9-29-17.5-67,0.5-73.9   c13.6-5.2,28.6-3.1,38.1,6.7c6.3,6.5,7.6,15.3,8.2,17.2"/>
	<path fill="#C9BA05" d="M536.6,839.8c-1.3-3.5-4.7-7.5-9.9-11.8c-5.6-4.6-13.4-9.4-22.4-14.9c-13-7.9-29.1-17.7-45.6-31.4   c-15.8-13.2-22.8-29.2-19.1-44c2.5-10.2,10-18.2,18.5-20c10.7-2.2,19.6,0.1,27.1,7.1c4.1,3.9,6,9.4,6.2,10c0.9,2.8,1.2,5.8,0.8,8.8   c-0.6,4.2-2.7,8-6.1,10.6c-3.4,2.6-7.6,3.7-11.8,3.2c-3.3-0.4-6.2-2.1-8.3-4.8c-2-2.6-2.9-5.9-2.5-9.2c0.3-2.6,1.7-4.9,3.7-6.4   c2.1-1.6,4.6-2.4,7.2-1.9c7.8,1.4,9.2,8.7,9.2,8.7c0.1-0.8,0.1-1.6,0-2.5c-0.3-8.5-6.6-14.2-14.5-14.2c-8.2,0-14.9,6.5-14.9,14.7   c0,9.2,7.3,18.5,21.7,18.5v0c4.3,0.1,8.4-1.2,11.8-3.9c4-3,6.5-7.4,7.2-12.4c0.4-3.4,0.1-6.8-0.9-10c-0.4-1.1-2.4-6.9-6.9-11.2   c-8.2-7.7-17.9-10.2-29.5-7.8c-9.6,2-17.8,10.9-20.6,22.1c-4,15.9,3.3,33,20,46.8c16.6,13.8,32.8,23.7,45.9,31.6   c8.9,5.4,16.7,10.1,22.1,14.6c6.1,5,8.3,8.6,9.1,10.7c1.3,3.5,1.8,6.9,1.3,10.3c-0.6,4.2-2.7,8-6.1,10.6c-3.4,2.6-7.6,3.7-11.8,3.2   c-3.3-0.4-6.2-2.1-8.3-4.8c-2-2.6-2.9-5.9-2.5-9.2c0.7-5.3,5.6-9.3,10.9-8.4c8.9,1.6,9.2,8.7,9.2,8.7c0.1-0.8,0.1-1.6,0-2.5   c-0.4-8.5-6.6-14.2-14.5-14.2c-8.2,0-14.9,6.5-14.9,14.7c0,9.2,7.3,18.5,21.7,18.5v0c0.2,0,0.3,0,0.5,0c4.1,0,8.1-1.3,11.4-3.9   c4-3,6.5-7.4,7.2-12.4C538.6,847.6,538.1,843.7,536.6,839.8z M456.9,741.7c0-6.6,5.6-12,12.3-12c2.9,0,5.5,1.1,7.5,2.9   c-0.6-0.2-1.3-0.4-2-0.5c-6.8-0.9-13.1,3.9-14,10.7c-0.5,4,0.5,8,3,11.3c0,0,0,0,0,0C459,751.1,456.9,746.2,456.9,741.7z    M500.1,849.3c0-6.6,5.6-12,12.3-12c2.9,0,5.5,1.1,7.5,2.9c-0.6-0.2-1.3-0.4-2-0.5c-6.8-0.9-13.1,3.9-14,10.7c-0.5,4,0.5,8,3,11.3   c0,0,0,0,0,0C502.3,858.6,500.1,853.8,500.1,849.3z"/>
	<path fill="#FEF300" d="M648.7,866.2c7.6-1,12.9-7.9,11.9-15.5c-0.8-6.1-6.4-10.3-12.4-9.5c-4.2,0.5-8.3,3.9-8.7,8   c0.1-7.3,6.7-13.3,14.1-13.3c7.4,0,13.4,6,13.4,13.4c0,7.4-5.1,17.1-20.5,17.1l-0.2,0C647.1,866.3,647.9,866.3,648.7,866.2z"/>
	<path fill="#FEF300" d="M640.1,865.1l6.2,1.2C644.1,866.3,642,865.9,640.1,865.1z"/>
	<path fill="#FEF300" d="M639.9,865.1c0,0-0.1-0.1-0.1-0.1c0.1,0,0.2,0.1,0.3,0.1L639.9,865.1z"/>
	<path fill="#FEF300" d="M630.7,840.3c1.8-4.8,7.6-9.7,9.5-11.3c13.6-11.2,40.1-23.1,68-46.3c34.9-29,18.9-62.6,0-66.5   c-14.7-3.1-23.4,2.9-28.3,7.5c-3.9,3.6-5.9,8.7-6.5,10.6c-0.1,0.2-0.1,0.4-0.2,0.6l-0.2-0.3c0.6-1.9,1.9-10.7,8.2-17.2   c9.5-9.7,24.5-11.9,38.1-6.7c18,6.9,35.4,45,0.5,73.9c-15.4,12.8-33,23.6-47.9,32.6c-12,7.3-22.3,13.3-28.3,18.4   c-3.8,3.2-7.7,6.3-9.6,12.3c-1.6,4.8-0.6,12,5.8,17.1c-5.5-2.3-9.7-7.4-10.6-13.7C628.8,847.4,629.4,843.7,630.7,840.3z"/>
	<path fill="#FFFFFF" d="M692.1,798.9c8.1-5.4,16.1-11.1,23.6-17.3c19.2-15.9,19.6-33,18.1-41.8c-2.2-13.1-10.5-22.7-17.5-25.4   c-3.4-1.3-6.9-2.1-10.4-2.4c0.5,0.1,1.1,0.2,1.6,0.3c10.5,2.2,19.6,11.8,22.6,24c4.2,16.9-3.4,34.9-20.9,49.5   C703.4,790.6,697.7,795,692.1,798.9z"/>
	<path fill="none" stroke="#C9BA05" stroke-width="2.7652" stroke-miterlimit="10" d="M639.9,865.1c-6.5-5.1-7.5-12.4-6-17.2   c1.9-6,5.8-9.1,9.6-12.3c6-5.1,16.3-11.2,28.3-18.4c14.9-9,32.4-19.7,47.9-32.6c34.9-29,17.5-67-0.5-73.9   c-13.6-5.2-28.6-3.1-38.1,6.7c-6.3,6.5-7.6,15.3-8.2,17.2"/>
	<path fill="#C9BA05" d="M627.9,851.4c0.6,5,3.2,9.4,7.2,12.4c3.3,2.5,7.3,3.9,11.4,3.9c0.2,0,0.3,0,0.5,0v0   c14.4,0,21.7-9.3,21.7-18.5c0-8.2-6.8-14.7-14.9-14.7c-7.9,0-14.1,5.8-14.5,14.2c-0.1,0.8-0.1,1.6,0,2.5c0,0,0.3-7.2,9.2-8.7   c5.3-0.9,10.2,3.1,10.9,8.4c0.4,3.3-0.4,6.6-2.5,9.2c-2,2.6-5,4.3-8.3,4.8c-4.2,0.6-8.4-0.6-11.8-3.2c-3.4-2.6-5.5-6.3-6.1-10.6   c-0.4-3.4,0-6.8,1.3-10.3c0.8-2.1,3-5.7,9.1-10.7c5.4-4.5,13.2-9.2,22.1-14.6c13.1-8,29.3-17.9,45.9-31.6c16.7-13.9,24-31,20-46.8   c-2.8-11.2-11.1-20.1-20.6-22.1c-11.7-2.4-21.3,0.1-29.5,7.8c-4.5,4.2-6.6,10-6.9,11.2c-1,3.2-1.3,6.6-0.9,10   c0.6,5,3.2,9.4,7.2,12.4c3.4,2.6,7.6,4,11.8,3.9v0c14.4,0,21.7-9.3,21.7-18.5c0-8.2-6.8-14.7-14.9-14.7c-7.9,0-14.1,5.8-14.5,14.2   c-0.1,0.8-0.1,1.6,0,2.5c0,0,1.4-7.3,9.2-8.7c2.6-0.5,5.1,0.3,7.2,1.9c2.1,1.6,3.4,3.9,3.7,6.4c0.4,3.3-0.4,6.6-2.5,9.2   c-2,2.6-5,4.3-8.3,4.8c-4.2,0.6-8.4-0.6-11.8-3.2c-3.4-2.6-5.5-6.3-6.1-10.6c-0.4-3-0.1-6,0.8-8.8c0.2-0.6,2-6.1,6.2-10   c7.5-7,16.4-9.3,27.1-7.1c8.5,1.8,16,9.8,18.5,20c3.7,14.8-3.3,30.9-19.1,44c-16.4,13.7-32.6,23.5-45.6,31.4   c-9,5.5-16.8,10.2-22.4,14.9c-5.3,4.3-8.6,8.3-9.9,11.8C627.9,843.7,627.4,847.6,627.9,851.4z M702.2,754.2   C702.2,754.2,702.2,754.2,702.2,754.2c2.5-3.3,3.6-7.3,3-11.3c-0.9-6.8-7.2-11.6-14-10.7c-0.7,0.1-1.3,0.2-2,0.5   c2-1.8,4.6-2.9,7.5-2.9c6.6,0,12.3,5.3,12.3,12C709,746.2,706.9,751.1,702.2,754.2z M658.9,861.8   C658.9,861.7,659,861.7,658.9,861.8c2.5-3.3,3.6-7.3,3-11.3c-0.9-6.8-7.2-11.6-14-10.7c-0.7,0.1-1.3,0.2-2,0.5   c2-1.8,4.6-2.9,7.5-2.9c6.6,0,12.3,5.3,12.3,12C665.8,853.8,663.7,858.6,658.9,861.8z"/>
	<path fill="#FEF300" stroke="#C9BA05" stroke-width="2.7652" stroke-miterlimit="10" d="M582.7,680c-0.1,0-0.3,0-0.4,0   c-0.1,0-0.3,0-0.4,0c-35.1,0-67.1,7.5-91.3,19.9c0.3,25.2,3.8,50,11.9,73.9c7,20.7,16.4,40.8,27.8,57.5   c12.2,18,26.8,31.8,42.9,38.6c4.1,1.7,13,2.2,18.3,0.1c16.2-6.6,30.8-20.7,43-38.7c11.4-16.7,20.8-36.8,27.8-57.5   c8.1-23.9,11.6-48.8,11.9-73.9C649.8,687.5,617.8,680,582.7,680z"/>
	<path fill="#FFFFFF" d="M594.8,847.6c-1.6,0-3.3-0.1-4.9-0.3c-20.1-2.6-44.3-20.1-56.2-34.4c-6.3-7.5-12.2-16-17.6-25.1   c6,14.6,13,27.9,20.6,39.1c12,17.6,25.6,30,39.4,35.8c0.8,0.3,3.2,0.9,6.3,0.9c2.4,0,4.6-0.3,5.9-0.8c10-4.1,20-11.8,29.4-22.6   C610.8,844.6,603.2,847.6,594.8,847.6z"/>
	<path fill="#FFFFFF" d="M673.4,715.3c-25-12.7-57.2-19.8-90.7-19.8l-0.4,0l-0.4,0c-33.5,0-65.7,7-90.7,19.8l0.3-1   c25.4-12.9,56.4-21.6,90.4-21.6l0.4,0l0.4,0c33.9,0,65.2,8.5,90.6,21.5L673.4,715.3z"/>
	<path fill="none" stroke="#C9BA05" stroke-width="2.7652" stroke-miterlimit="10" d="M674,716c-24.3-12.4-56.3-19.9-91.3-19.9   c-0.1,0-0.3,0-0.4,0c-0.1,0-0.3,0-0.4,0c-35.1,0-67.1,7.5-91.3,19.9"/>
	
		<rect x="498.6" y="996.4" fill="#7C551C" stroke="#603813" stroke-width="2.7652" stroke-miterlimit="10" width="167.3" height="73.7"/>
	
		<rect x="486.8" y="1070.2" fill="#7C551C" stroke="#603813" stroke-width="2.7652" stroke-miterlimit="10" width="190.9" height="19.7"/>
	<polygon fill="#EDDB03" stroke="#C9BA05" stroke-width="2.2121" stroke-miterlimit="10" points="582.3,731.2 589.1,752.3    611.2,752.3 593.3,765.3 600.2,786.3 582.3,773.3 564.4,786.3 571.2,765.3 553.3,752.3 575.4,752.3  "/>
	<polygon fill="#EDDB03" stroke="#C9BA05" stroke-width="2.2121" stroke-miterlimit="10" points="629.8,751.2 633.1,761.4    643.8,761.4 635.1,767.7 638.4,777.9 629.8,771.6 621.1,777.9 624.4,767.7 615.8,761.4 626.5,761.4  "/>
	<polygon fill="#EDDB03" stroke="#C9BA05" stroke-width="2.2121" stroke-miterlimit="10" points="534.7,751.2 538,761.4    548.7,761.4 540.1,767.7 543.4,777.9 534.7,771.6 526.1,777.9 529.4,767.7 520.7,761.4 531.4,761.4  "/>
	<path fill="#FFFFFF" d="M575.2,884.9c0,0-4.4,6.8,4.7,11.2C579.9,896.1,566.7,894.1,575.2,884.9z"/>
	<path fill="#FEF300" stroke="#C9BA05" stroke-width="2.7652" stroke-miterlimit="10" d="M646,1043.9v-21.2c-3.5,0-6.3-2.8-6.3-6.3   H524.9c0,3.5-2.8,6.3-6.3,6.3v21.2c3.5,0,6.3,2.8,6.3,6.3h114.8C639.7,1046.7,642.5,1043.9,646,1043.9z"/>
	<g>
		<path fill="#FFFFFF" d="M527.5,1030.8c2.5-1,4.5-3,5.5-5.5h107.7c-1.9-1.1-3.4-2.8-4.3-4.9H528.1c-1,2.5-3,4.5-5.5,5.5v14.8    c2.1,0.9,3.9,2.5,5,4.5V1030.8z"/>
		<path fill="#FFFFFF" d="M642,1026.3v-0.4c-0.1,0-0.2-0.1-0.3-0.1C641.8,1025.9,641.9,1026.1,642,1026.3z"/>
	</g>
	<g>
		<polygon fill="#FFFFFF" points="513.5,675 511,706.8 542.5,711.9 510.7,709.4 505.6,740.9 508.1,709.1 476.7,704 508.4,706.5       "/>
		<polygon fill="#FFFFFF" points="498.4,693.7 509.7,707 523.8,696.8 510.6,708.1 520.8,722.2 509.5,708.9 495.4,719.1 508.6,707.8       "/>
	</g>
</g>
<polygon fill="#FEF300" points="131.5,369 125.3,377.7 119.2,369 "/>
<polygon fill="#EE7830" points="313.5,369 307.3,377.7 301.2,369 "/>
<polygon fill="#13CF56" points="499.5,375 493.3,383.7 487.2,375 "/>
<polygon fill="#01AEF0" points="683.5,369 677.3,377.7 671.2,369 "/>
<polygon fill="#13CF56" points="499.5,500 493.3,508.7 487.2,500 "/>
<polygon fill="#EE7830" points="313.5,466 307.3,474.7 301.2,466 "/>
<polygon fill="#EE7830" points="313.5,585 307.3,593.7 301.2,585 "/>
<polygon fill="#EE7830" points="313.5,738 307.3,746.7 301.2,738 "/>
<polygon fill="#FEF300" points="131.5,466 125.3,474.7 119.2,466 "/>
<polygon fill="#FEF300" points="131.5,595 125.3,603.7 119.2,595 "/>
<polygon fill="#FEF300" points="131.5,713 125.3,721.7 119.2,713 "/>
<polygon fill="#FEF300" points="131.5,838 125.3,846.7 119.2,838 "/>
<polygon fill="#FEF300" points="131.5,987 125.3,995.7 119.2,987 "/>
</svg>