<?xml version="1.0" encoding="utf-8"?>
<!-- Generator: Adobe Illustrator 18.1.0, SVG Export Plug-In . SVG Version: 6.00 Build 0)  -->
<svg version="1.1" id="Layer_1" xmlns="http://www.w3.org/2000/svg" xmlns:xlink="http://www.w3.org/1999/xlink" x="0px" y="0px"
	 viewBox="0 0 1280 125" enable-background="new 0 0 1280 125" xml:space="preserve">
<g>
	<path fill="#FFFFFF" d="M240.5,106.6h-11.3V34.5h11.3v30.9h12.9V34.5h11.5v72.1h-11.5V75.7h-12.9V106.6z"/>
	<path fill="#FFFFFF" d="M272.2,51.8c0-11.5,6.1-18.1,17.2-18.1s17.2,6.6,17.2,18.1v37.5c0,11.5-6.1,18.1-17.2,18.1
		s-17.2-6.6-17.2-18.1V51.8z M283.6,90c0,5.2,2.3,7.1,5.9,7.1s5.9-2,5.9-7.1V51c0-5.2-2.3-7.1-5.9-7.1s-5.9,2-5.9,7.1V90z"/>
	<path fill="#FFFFFF" d="M339.1,68.1l-4.1,38.4h-15.6l-8-72.1h11l6.1,56.9l5.5-56.9h10.9l5.7,57.3l5.9-57.3h9.9l-8,72.1h-15
		L339.1,68.1z"/>
	<path fill="#FFFFFF" d="M399.2,106.6h-11.3V34.5h11.3v30.9h12.9V34.5h11.5v72.1h-11.5V75.7h-12.9V106.6z"/>
	<path fill="#FFFFFF" d="M468.5,106.6h-11.4l-2-13.1h-13.9l-2,13.1h-10.4l11.5-72.1H457L468.5,106.6z M442.7,83.7h10.9l-5.5-36.5
		L442.7,83.7z"/>
	<path fill="#FFFFFF" d="M497.5,106.6c-0.6-1.9-1-3-1-8.9V86.4c0-6.7-2.3-9.2-7.4-9.2h-3.9v29.4h-11.3V34.5h17.1
		c11.7,0,16.8,5.5,16.8,16.6v5.7c0,7.4-2.4,12.3-7.4,14.6c5.7,2.4,7.5,7.8,7.5,15.3v11.1c0,3.5,0.1,6.1,1.2,8.8H497.5z M485.1,44.8
		v22.1h4.4c4.2,0,6.8-1.9,6.8-7.6v-7.1c0-5.2-1.8-7.4-5.8-7.4H485.1z"/>
	<path fill="#FFFFFF" d="M515.2,34.5h17.9c11.3,0,16.9,6.3,16.9,17.8v36.5c0,11.5-5.6,17.8-16.9,17.8h-17.9V34.5z M526.5,44.8v51.5
		h6.4c3.6,0,5.8-1.9,5.8-7V51.8c0-5.2-2.2-7-5.8-7H526.5z"/>
	<path fill="#FFFFFF" d="M598.3,68.1l-4.1,38.4h-15.6l-8-72.1h11l6.1,56.9l5.5-56.9h10.9l5.7,57.3l5.9-57.3h9.9l-8,72.1h-15
		L598.3,68.1z"/>
	<path fill="#FFFFFF" d="M630.2,51.8c0-11.5,6.1-18.1,17.2-18.1c11.1,0,17.2,6.6,17.2,18.1v37.5c0,11.5-6.1,18.1-17.2,18.1
		c-11.1,0-17.2-6.6-17.2-18.1V51.8z M641.6,90c0,5.2,2.3,7.1,5.9,7.1c3.6,0,5.9-2,5.9-7.1V51c0-5.2-2.3-7.1-5.9-7.1
		c-3.6,0-5.9,2-5.9,7.1V90z"/>
	<path fill="#FFFFFF" d="M695.7,106.6c-0.6-1.9-1-3-1-8.9V86.4c0-6.7-2.3-9.2-7.4-9.2h-3.9v29.4H672V34.5h17.1
		c11.7,0,16.8,5.5,16.8,16.6v5.7c0,7.4-2.4,12.3-7.4,14.6c5.7,2.4,7.5,7.8,7.5,15.3v11.1c0,3.5,0.1,6.1,1.2,8.8H695.7z M683.3,44.8
		v22.1h4.4c4.2,0,6.8-1.9,6.8-7.6v-7.1c0-5.2-1.8-7.4-5.8-7.4H683.3z"/>
	<path fill="#FFFFFF" d="M728.2,77.8l-3.5,6.6v22.1h-11.3V34.5h11.3v31.4l14.8-31.4h11.3l-15.8,32.1l15.8,40h-11.6L728.2,77.8z"/>
	<path fill="#FFFFFF" d="M805.6,52.3v9.4c0,11.5-5.6,17.8-16.9,17.8h-5.4v27.1H772V34.5h16.7C800,34.5,805.6,40.7,805.6,52.3z
		 M783.3,44.8v24.4h5.4c3.6,0,5.6-1.6,5.6-6.8V51.6c0-5.1-2-6.8-5.6-6.8H783.3z"/>
	<path fill="#FFFFFF" d="M846.6,106.6h-11.4l-2-13.1h-13.9l-2,13.1H807l11.5-72.1h16.6L846.6,106.6z M820.8,83.7h10.9l-5.5-36.5
		L820.8,83.7z"/>
	<path fill="#FFFFFF" d="M857.5,82.7l-14.3-48.2H855l8.7,32.9l8.7-32.9h10.8l-14.3,48.2v23.9h-11.3V82.7z"/>
	<path fill="#FFFFFF" d="M902.2,33.6c11,0,16.7,6.6,16.7,18.1V54h-10.7v-3c0-5.2-2.1-7.1-5.7-7.1c-3.6,0-5.7,2-5.7,7.1
		c0,14.8,22.1,17.6,22.1,38.2c0,11.5-5.8,18.1-16.9,18.1c-11.1,0-16.9-6.6-16.9-18.1v-4.4h10.7V90c0,5.2,2.3,7,5.9,7
		c3.6,0,5.9-1.9,5.9-7c0-14.8-22.1-17.6-22.1-38.2C885.5,40.2,891.1,33.6,902.2,33.6z"/>
	<path fill="#FFFFFF" d="M940.5,51.8c0-11.5,6.1-18.1,17.2-18.1c11.1,0,17.2,6.6,17.2,18.1v37.5c0,11.5-6.1,18.1-17.2,18.1
		c-11.1,0-17.2-6.6-17.2-18.1V51.8z M951.8,90c0,5.2,2.3,7.1,5.9,7.1c3.6,0,5.9-2,5.9-7.1V51c0-5.2-2.3-7.1-5.9-7.1
		c-3.6,0-5.9,2-5.9,7.1V90z"/>
	<path fill="#FFFFFF" d="M993.5,66.5h14.6v10.3h-14.6v29.8h-11.3V34.5h30v10.3h-18.6V66.5z"/>
	<path fill="#FFFFFF" d="M1029,66.5h14.6v10.3H1029v29.8h-11.3V34.5h30v10.3H1029V66.5z"/>
</g>
</svg>
