<?xml version="1.0" encoding="UTF-8"?>
<!-- Generator: Adobe Illustrator 18.1.0, SVG Export Plug-In . SVG Version: 6.00 Build 0)  -->
<svg version="1.1" id="Layer_1" xmlns="http://www.w3.org/2000/svg" xmlns:xlink="http://www.w3.org/1999/xlink" x="0px" y="0px" viewBox="0 0 800 45" enable-background="new 0 0 800 45" xml:space="preserve">
<g opacity="0.25">
	<polygon fill="#FFFFFF" points="398.4,4.8 403,14.2 413.4,15.7 405.9,23 407.6,33.3 398.4,28.4 389.1,33.3 390.9,23 383.4,15.7    393.8,14.2  "/>
	<polygon fill="#FFFFFF" points="429.7,10.4 432.5,16.1 438.8,17 434.2,21.5 435.3,27.7 429.7,24.8 424.1,27.7 425.1,21.5 420.6,17    426.9,16.1  "/>
	<polygon fill="#FFFFFF" points="367.1,10.4 369.9,16.1 376.2,17 371.6,21.5 372.7,27.7 367.1,24.8 361.4,27.7 362.5,21.5 358,17    364.3,16.1  "/>
</g>
<polygon opacity="0.25" fill="#FFFFFF" points="70.6,20.9 339,23 339,20.9 339,18.8 "/>
<polygon opacity="0.25" fill="#FFFFFF" points="725.4,20.9 457,23 457,20.9 457,18.8 "/>
</svg>