<?xml version="1.0" encoding="UTF-8"?>
<!-- Generator: Adobe Illustrator 18.1.1, SVG Export Plug-In . SVG Version: 6.00 Build 0)  -->
<svg version="1.1" id="Layer_1" xmlns="http://www.w3.org/2000/svg" xmlns:xlink="http://www.w3.org/1999/xlink" x="0px" y="0px" viewBox="0 0 800 125" enable-background="new 0 0 800 125" xml:space="preserve">
<g>
	<path fill="#FFFFFF" d="M86.4,100.7h-8.9V44.2h8.9v24.2h10.1V44.2h9.1v56.6h-9.1V76.5H86.4V100.7z"/>
	<path fill="#FFFFFF" d="M111.3,57.7c0-9.1,4.8-14.2,13.5-14.2c8.7,0,13.5,5.2,13.5,14.2v29.4c0,9.1-4.8,14.2-13.5,14.2   c-8.7,0-13.5-5.2-13.5-14.2V57.7z M120.1,87.7c0,4,1.8,5.6,4.6,5.6c2.8,0,4.6-1.5,4.6-5.6V57.2c0-4-1.8-5.6-4.6-5.6   c-2.8,0-4.6,1.5-4.6,5.6V87.7z"/>
	<path fill="#FFFFFF" d="M163.7,70.6l-3.2,30.1h-12.2L142,44.2h8.6l4.8,44.6l4.3-44.6h8.6l4.4,44.9l4.6-44.9h7.8l-6.3,56.6h-11.8   L163.7,70.6z"/>
	<path fill="#FFFFFF" d="M210.9,100.7H202V44.2h8.9v24.2H221V44.2h9.1v56.6H221V76.5h-10.1V100.7z"/>
	<path fill="#FFFFFF" d="M265.3,100.7h-9l-1.5-10.3h-10.9l-1.5,10.3h-8.2l9.1-56.6h13L265.3,100.7z M245,82.8h8.6l-4.3-28.6   L245,82.8z"/>
	<path fill="#FFFFFF" d="M288,100.7c-0.5-1.5-0.8-2.3-0.8-7v-8.9c0-5.3-1.8-7.2-5.8-7.2h-3.1v23h-8.9V44.2h13.4   c9.2,0,13.2,4.3,13.2,13v4.4c0,5.8-1.9,9.6-5.8,11.5c4.4,1.9,5.9,6.1,5.9,12v8.7c0,2.7,0.1,4.8,1,6.9H288z M278.3,52.2v17.4h3.5   c3.3,0,5.3-1.5,5.3-6v-5.6c0-4-1.4-5.8-4.5-5.8H278.3z"/>
	<path fill="#FFFFFF" d="M301.9,44.2H316c8.9,0,13.3,4.9,13.3,14v28.6c0,9.1-4.4,14-13.3,14h-14.1V44.2z M310.8,52.2v40.4h5   c2.8,0,4.5-1.5,4.5-5.5V57.7c0-4-1.7-5.5-4.5-5.5H310.8z"/>
	<path fill="#FFFFFF" d="M367.2,70.6l-3.2,30.1h-12.2l-6.3-56.6h8.6l4.8,44.6l4.3-44.6h8.6l4.4,44.9l4.6-44.9h7.8l-6.3,56.6h-11.8   L367.2,70.6z"/>
	<path fill="#FFFFFF" d="M392.2,57.7c0-9.1,4.8-14.2,13.5-14.2c8.7,0,13.5,5.2,13.5,14.2v29.4c0,9.1-4.8,14.2-13.5,14.2   c-8.7,0-13.5-5.2-13.5-14.2V57.7z M401.1,87.7c0,4,1.8,5.6,4.6,5.6c2.8,0,4.6-1.5,4.6-5.6V57.2c0-4-1.8-5.6-4.6-5.6   c-2.8,0-4.6,1.5-4.6,5.6V87.7z"/>
	<path fill="#FFFFFF" d="M443.5,100.7c-0.5-1.5-0.8-2.3-0.8-7v-8.9c0-5.3-1.8-7.2-5.8-7.2h-3.1v23H425V44.2h13.4   c9.2,0,13.2,4.3,13.2,13v4.4c0,5.8-1.9,9.6-5.8,11.5c4.4,1.9,5.9,6.1,5.9,12v8.7c0,2.7,0.1,4.8,1,6.9H443.5z M433.8,52.2v17.4h3.5   c3.3,0,5.3-1.5,5.3-6v-5.6c0-4-1.4-5.8-4.5-5.8H433.8z"/>
	<path fill="#FFFFFF" d="M469.1,78.2l-2.7,5.2v17.4h-8.9V44.2h8.9v24.7L478,44.2h8.9l-12.4,25.2l12.4,31.4h-9.1L469.1,78.2z"/>
	<path fill="#FFFFFF" d="M529.8,58.1v7.4c0,9.1-4.4,14-13.3,14h-4.2v21.3h-8.9V44.2h13.1C525.4,44.2,529.8,49.1,529.8,58.1z    M512.3,52.2v19.2h4.2c2.8,0,4.4-1.3,4.4-5.3v-8.5c0-4-1.5-5.3-4.4-5.3H512.3z"/>
	<path fill="#FFFFFF" d="M562,100.7h-9l-1.5-10.3h-10.9l-1.5,10.3h-8.2l9.1-56.6h13L562,100.7z M541.8,82.8h8.6L546,54.2L541.8,82.8   z"/>
	<path fill="#FFFFFF" d="M570.5,82l-11.2-37.8h9.3l6.8,25.8l6.8-25.8h8.5L579.4,82v18.8h-8.9V82z"/>
	<path fill="#FFFFFF" d="M605.6,43.5c8.6,0,13.1,5.2,13.1,14.2v1.8h-8.4v-2.3c0-4-1.6-5.6-4.4-5.6s-4.4,1.5-4.4,5.6   c0,11.6,17.4,13.8,17.4,30c0,9.1-4.5,14.2-13.3,14.2s-13.3-5.2-13.3-14.2v-3.5h8.4v4c0,4,1.8,5.5,4.6,5.5s4.6-1.5,4.6-5.5   c0-11.6-17.4-13.8-17.4-30C592.5,48.7,597,43.5,605.6,43.5z"/>
	<path fill="#FFFFFF" d="M635.7,57.7c0-9.1,4.8-14.2,13.5-14.2c8.7,0,13.5,5.2,13.5,14.2v29.4c0,9.1-4.8,14.2-13.5,14.2   c-8.7,0-13.5-5.2-13.5-14.2V57.7z M644.6,87.7c0,4,1.8,5.6,4.6,5.6c2.8,0,4.6-1.5,4.6-5.6V57.2c0-4-1.8-5.6-4.6-5.6   c-2.8,0-4.6,1.5-4.6,5.6V87.7z"/>
	<path fill="#FFFFFF" d="M677.3,69.3h11.5v8.1h-11.5v23.4h-8.9V44.2h23.5v8.1h-14.6V69.3z"/>
	<path fill="#FFFFFF" d="M705.1,69.3h11.5v8.1h-11.5v23.4h-8.9V44.2h23.5v8.1h-14.6V69.3z"/>
</g>
</svg>