<?xml version="1.0" encoding="utf-8"?>
<!-- Generator: Adobe Illustrator 15.0.0, SVG Export Plug-In . SVG Version: 6.00 Build 0)  -->
<!DOCTYPE svg PUBLIC "-//W3C//DTD SVG 1.1//EN" "http://www.w3.org/Graphics/SVG/1.1/DTD/svg11.dtd">
<svg version="1.1" id="Layer_1" xmlns="http://www.w3.org/2000/svg" xmlns:xlink="http://www.w3.org/1999/xlink" x="0px" y="0px"
	 width="1536.3px" height="52.114px" viewBox="95.85 0 1536.3 52.114" enable-background="new 95.85 0 1536.3 52.114"
	 xml:space="preserve">
<g>
	<g opacity="0.25">
		<polygon fill="#FFFFFF" points="864.945,0 873.315,17.146 892.215,19.98 878.58,33.21 881.82,52.11 864.945,43.2 847.936,52.11 
			851.175,33.21 837.54,19.98 856.44,17.146 		"/>
		<polygon fill="#FFFFFF" points="922.05,10.26 927.18,20.655 938.79,22.275 930.42,30.375 932.311,41.851 922.05,36.45 
			911.79,41.851 913.815,30.375 905.445,22.275 916.92,20.655 		"/>
		<polygon fill="#FFFFFF" points="807.705,10.26 812.835,20.655 824.311,22.275 816.075,30.375 817.965,41.851 807.705,36.45 
			797.445,41.851 799.335,30.375 791.1,22.275 802.575,20.655 		"/>
	</g>
	<polygon opacity="0.25" fill="#FFFFFF" enable-background="new    " points="95.85,30.51 756,35.37 756,30.51 756,25.516 	"/>
	<polygon opacity="0.25" fill="#FFFFFF" enable-background="new    " points="1632.15,30.51 972,35.37 972,30.51 972,25.516 	"/>
</g>
</svg>
