<?xml version="1.0" encoding="UTF-8"?>
<!-- Generator: Adobe Illustrator 18.1.0, SVG Export Plug-In . SVG Version: 6.00 Build 0)  -->
<svg version="1.1" id="Layer_1" xmlns="http://www.w3.org/2000/svg" xmlns:xlink="http://www.w3.org/1999/xlink" x="0px" y="0px" viewBox="0 0 1280 90" enable-background="new 0 0 1280 90" xml:space="preserve">
<g opacity="0.25">
	<polygon fill="#FFFFFF" points="640.7,25.1 646.9,37.8 660.9,39.9 650.8,49.7 653.2,63.7 640.7,57.1 628.1,63.7 630.5,49.7    620.4,39.9 634.4,37.8  "/>
	<polygon fill="#FFFFFF" points="683,32.7 686.8,40.4 695.4,41.6 689.2,47.6 690.6,56.1 683,52.1 675.4,56.1 676.9,47.6 670.7,41.6    679.2,40.4  "/>
	<polygon fill="#FFFFFF" points="598.3,32.7 602.1,40.4 610.6,41.6 604.5,47.6 605.9,56.1 598.3,52.1 590.7,56.1 592.1,47.6    586,41.6 594.5,40.4  "/>
</g>
<polygon opacity="0.25" fill="#FFFFFF" points="71,47.7 560,51.3 560,47.7 560,44 "/>
<polygon opacity="0.25" fill="#FFFFFF" points="1209,47.7 720,51.3 720,47.7 720,44 "/>
</svg>