<?xml version="1.0" encoding="UTF-8"?>
<!-- Generator: Adobe Illustrator 18.1.0, SVG Export Plug-In . SVG Version: 6.00 Build 0)  -->
<svg version="1.1" id="Layer_1" xmlns="http://www.w3.org/2000/svg" xmlns:xlink="http://www.w3.org/1999/xlink" x="0px" y="0px" viewBox="0 0 1280 800" enable-background="new 0 0 1280 800" xml:space="preserve">
<g>
	<path fill="#FFFFFF" d="M238.8,107.6h-11.3V35.5h11.3v30.9h12.9V35.5h11.5v72.1h-11.5V76.7h-12.9V107.6z"/>
	<path fill="#FFFFFF" d="M270.6,52.8c0-11.5,6.1-18.1,17.2-18.1c11.1,0,17.2,6.6,17.2,18.1v37.5c0,11.5-6.1,18.1-17.2,18.1   c-11.1,0-17.2-6.6-17.2-18.1V52.8z M281.9,91c0,5.1,2.3,7.1,5.9,7.1c3.6,0,5.9-2,5.9-7.1V52.1c0-5.2-2.3-7.1-5.9-7.1   c-3.6,0-5.9,2-5.9,7.1V91z"/>
	<path fill="#FFFFFF" d="M337.4,69.2l-4.1,38.4h-15.6l-8-72.1h11l6.1,56.9l5.5-56.9h10.9l5.7,57.3l5.9-57.3h9.9l-8,72.1h-15   L337.4,69.2z"/>
	<path fill="#FFFFFF" d="M397.6,107.6h-11.3V35.5h11.3v30.9h12.9V35.5H422v72.1h-11.5V76.7h-12.9V107.6z"/>
	<path fill="#FFFFFF" d="M466.9,107.6h-11.4l-2-13.1h-13.9l-2,13.1h-10.4l11.5-72.1h16.6L466.9,107.6z M441,84.8h10.9l-5.5-36.5   L441,84.8z"/>
	<path fill="#FFFFFF" d="M495.8,107.6c-0.6-1.9-1-3-1-8.9V87.4c0-6.7-2.3-9.2-7.4-9.2h-3.9v29.4h-11.3V35.5h17.1   C501,35.5,506,41,506,52.1v5.7c0,7.4-2.4,12.3-7.4,14.6c5.7,2.4,7.5,7.8,7.5,15.3v11.1c0,3.5,0.1,6.1,1.2,8.8H495.8z M483.5,45.8   V68h4.4c4.2,0,6.8-1.9,6.8-7.6v-7.1c0-5.2-1.8-7.4-5.8-7.4H483.5z"/>
	<path fill="#FFFFFF" d="M513.5,35.5h17.9c11.3,0,16.9,6.3,16.9,17.8v36.5c0,11.5-5.6,17.8-16.9,17.8h-17.9V35.5z M524.9,45.8v51.5   h6.4c3.6,0,5.8-1.9,5.8-7V52.8c0-5.2-2.2-7-5.8-7H524.9z"/>
	<path fill="#FFFFFF" d="M596.7,69.2l-4.1,38.4H577l-8-72.1h11l6.1,56.9l5.5-56.9h10.9l5.7,57.3l5.9-57.3h9.9l-8,72.1h-15   L596.7,69.2z"/>
	<path fill="#FFFFFF" d="M628.6,52.8c0-11.5,6.1-18.1,17.2-18.1c11.1,0,17.2,6.6,17.2,18.1v37.5c0,11.5-6.1,18.1-17.2,18.1   c-11.1,0-17.2-6.6-17.2-18.1V52.8z M639.9,91c0,5.1,2.3,7.1,5.9,7.1c3.6,0,5.9-2,5.9-7.1V52.1c0-5.2-2.3-7.1-5.9-7.1   c-3.6,0-5.9,2-5.9,7.1V91z"/>
	<path fill="#FFFFFF" d="M694,107.6c-0.6-1.9-1-3-1-8.9V87.4c0-6.7-2.3-9.2-7.4-9.2h-3.9v29.4h-11.3V35.5h17.1   c11.7,0,16.8,5.5,16.8,16.6v5.7c0,7.4-2.4,12.3-7.4,14.6c5.7,2.4,7.5,7.8,7.5,15.3v11.1c0,3.5,0.1,6.1,1.2,8.8H694z M681.6,45.8V68   h4.4c4.2,0,6.8-1.9,6.8-7.6v-7.1c0-5.2-1.8-7.4-5.8-7.4H681.6z"/>
	<path fill="#FFFFFF" d="M726.5,78.9l-3.5,6.6v22.1h-11.3V35.5H723v31.4l14.8-31.4h11.3l-15.8,32.1l15.8,40h-11.6L726.5,78.9z"/>
	<path fill="#FFFFFF" d="M803.9,53.3v9.4c0,11.5-5.6,17.8-16.9,17.8h-5.4v27.1h-11.3V35.5H787C798.3,35.5,803.9,41.8,803.9,53.3z    M781.6,45.8v24.4h5.4c3.6,0,5.6-1.6,5.6-6.8V52.6c0-5.2-2-6.8-5.6-6.8H781.6z"/>
	<path fill="#FFFFFF" d="M845,107.6h-11.4l-2-13.1h-13.9l-2,13.1h-10.4l11.5-72.1h16.6L845,107.6z M819.1,84.8H830l-5.5-36.5   L819.1,84.8z"/>
	<path fill="#FFFFFF" d="M855.8,83.7l-14.3-48.2h11.8l8.7,32.9l8.7-32.9h10.8l-14.3,48.2v23.9h-11.3V83.7z"/>
	<path fill="#FFFFFF" d="M900.5,34.7c11,0,16.7,6.6,16.7,18.1v2.3h-10.7v-3c0-5.2-2.1-7.1-5.7-7.1c-3.6,0-5.7,2-5.7,7.1   c0,14.8,22.1,17.6,22.1,38.2c0,11.5-5.8,18.1-16.9,18.1c-11.1,0-16.9-6.6-16.9-18.1v-4.4h10.7V91c0,5.1,2.3,7,5.9,7   c3.6,0,5.9-1.9,5.9-7c0-14.8-22.1-17.6-22.1-38.2C883.8,41.3,889.5,34.7,900.5,34.7z"/>
	<path fill="#FFFFFF" d="M938.8,52.8c0-11.5,6.1-18.1,17.2-18.1c11.1,0,17.2,6.6,17.2,18.1v37.5c0,11.5-6.1,18.1-17.2,18.1   c-11.1,0-17.2-6.6-17.2-18.1V52.8z M950.1,91c0,5.1,2.3,7.1,5.9,7.1c3.6,0,5.9-2,5.9-7.1V52.1c0-5.2-2.3-7.1-5.9-7.1   c-3.6,0-5.9,2-5.9,7.1V91z"/>
	<path fill="#FFFFFF" d="M991.9,67.6h14.6v10.3h-14.6v29.8h-11.3V35.5h30v10.3h-18.6V67.6z"/>
	<path fill="#FFFFFF" d="M1027.3,67.6h14.6v10.3h-14.6v29.8H1016V35.5h30v10.3h-18.6V67.6z"/>
</g>
<g>
	<path fill="#EE7830" d="M670.5,521.2v-18.9h12.4v1.2h-11v7.5h9.3v1.2h-9.3v9H670.5z"/>
	<path fill="#EE7830" d="M692.3,508.6c-2.5,0.1-4.5,1.6-5.2,4v8.7h-1.3v-13.9h1.3v3.4c1-1.9,2.7-3.3,4.5-3.4c0.3,0,0.6,0,0.9,0   V508.6z"/>
	<path fill="#EE7830" d="M694.9,504.2v-2.5h1.3v2.5H694.9z M694.9,521.2v-13.9h1.3v13.9H694.9z"/>
	<path fill="#EE7830" d="M699.4,514.3c0-3.9,2.7-7.2,6.4-7.2c2.4,0,4.4,1.5,5.4,3.3v-8.6h1.3v17.6c0,0.4,0.2,0.7,0.6,0.7v1.2   c-0.2,0-0.3,0-0.5,0c-0.8,0-1.3-0.6-1.3-1.2v-1.6c-1.1,1.8-3.2,3-5.3,3C702.2,521.5,699.4,518,699.4,514.3z M711.2,516.6V512   c-0.7-2-3.1-3.7-5.1-3.7c-3.2,0-5.3,3-5.3,6c0,3.2,2.5,5.9,5.6,5.9C708.3,520.3,711,518.6,711.2,516.6z"/>
	<path fill="#EE7830" d="M715.9,514.3c0-3.8,2.6-7.2,6.4-7.2c2.4,0,4.2,1.4,5.5,3.3v-3h1.2v14.1c0,3.8-3,5.7-6.5,5.7   c-3.2,0-5-1.3-6.2-3.2l0.9-0.6c1.1,1.9,3.1,2.7,5.3,2.7c2.8,0,5.2-1.5,5.2-4.6v-3c-1.1,1.8-3.2,3-5.2,3   C718.6,521.4,715.9,517.9,715.9,514.3z M727.7,516.6V512c-0.8-2.1-3-3.7-5.1-3.7c-3.3,0-5.3,3.1-5.3,6c0,3.2,2.5,5.9,5.6,5.9   C725.1,520.3,727.4,518.3,727.7,516.6z"/>
	<path fill="#EE7830" d="M732.2,514.2c0-3.9,2.9-7.1,6.8-7.1c3.9,0,6.8,3.3,6.8,7.1c0,0.2,0,0.5,0,0.6h-12.2   c0.2,3.2,2.6,5.6,5.5,5.6c2,0,3.8-1.1,4.5-2.7l1.2,0.3c-0.8,2-3.2,3.4-5.8,3.4C735.2,521.5,732.2,518.2,732.2,514.2z M744.5,513.8   c-0.2-3.3-2.6-5.5-5.5-5.5c-2.9,0-5.3,2.3-5.5,5.5H744.5z"/>
	<path fill="#EE7830" d="M754.9,502.4h1.3l2.8,6.9l2.8-6.9h1.3l-3.3,8l4,9.2l7.3-17.3h1.5l-8.1,18.9h-1.3l-4.2-9.7l-4.2,9.7h-1.3   l-8.1-18.9h1.5l7.3,17.3l3.9-9.2L754.9,502.4z"/>
	<path fill="#EE7830" d="M772.5,514.3c0-3.9,3-7.2,6.8-7.2c3.8,0,6.8,3.3,6.8,7.2c0,3.9-2.9,7.2-6.8,7.2   C775.4,521.5,772.5,518.2,772.5,514.3z M779.3,520.3c3,0,5.5-2.7,5.5-6c0-3.3-2.5-6-5.5-6c-2.9,0-5.4,2.7-5.4,6.1   C773.8,517.7,776.3,520.3,779.3,520.3z"/>
	<path fill="#EE7830" d="M795.8,508.6c-2.5,0.1-4.5,1.6-5.2,4v8.7h-1.3v-13.9h1.3v3.4c1-1.9,2.7-3.3,4.5-3.4c0.3,0,0.6,0,0.9,0   V508.6z"/>
	<path fill="#EE7830" d="M804.6,520.6c-0.3,0.2-1.4,0.8-2.9,0.8c-1.5,0-2.8-0.9-2.8-2.5v-10.5h-2v-1.1h2v-4.7h1.3v4.7h3.3v1.1h-3.3   v10.1c0,1,0.9,1.5,1.8,1.5c1.1,0,2-0.5,2.2-0.6L804.6,520.6z"/>
	<path fill="#EE7830" d="M818.2,521.2h-1.3v-7.7c0-3.4-1.2-5.1-3.4-5.1c-2.3,0-4.6,1.8-5.2,4.3v8.6h-1.3v-19.5h1.3v8.9   c1.1-2.2,3.3-3.5,5.6-3.5c3.1,0,4.4,2.3,4.4,6.1V521.2z"/>
	<path fill="#EE7830" d="M822.8,525.9c0.3,0,1.1,0,1.4-0.2c0.3-0.2,0.7-0.8,2.2-4.5l-6.2-13.9h1.4l5.5,12.6l5.2-12.6h1.3l-7.6,18.2   c-0.5,1.3-1.4,1.6-2.6,1.6c-0.2,0-0.4,0-0.5,0V525.9z"/>
	<path fill="#EE7830" d="M835.8,501.8c0.9,0,1.7,0.4,1.7,1.4v3.1h-1.2v-3c0-0.4-0.2-0.5-0.5-0.5V501.8z"/>
	<path fill="#EE7830" d="M839.8,519.4l0.7-0.9c1.5,1.3,3.1,2,5,2c2.4,0,4-1.1,4-2.9c0-1.7-1.5-2.2-4.4-2.9c-3.2-0.7-4.6-1.3-4.6-3.4   c0-2.8,2.3-4.1,5.1-4.1c2.2,0,3.9,0.8,4.8,1.9l-0.7,0.7c-0.9-1.1-2.5-1.6-4.2-1.6c-2.1,0-3.7,0.9-3.7,2.9c0,1.6,1.1,1.9,3.6,2.5   c3.5,0.8,5.4,1.4,5.4,3.8c0,2.5-2.1,4.1-5.3,4.1C843.3,521.5,841.2,520.8,839.8,519.4z"/>
	<path fill="#EE7830" d="M860.7,515.4v-8h1.3v7.8c0,3.4,1.2,5.1,3.5,5.1c2.4,0,4.6-1.7,5.4-4.2v-8.7h1.3v12c0,0.4,0.2,0.7,0.6,0.7   v1.2c-0.2,0-0.3,0-0.5,0c-0.7,0-1.3-0.5-1.3-1.2v-2.1c-1.2,2.2-3.5,3.5-5.9,3.5C862.2,521.5,860.7,519.4,860.7,515.4z"/>
	<path fill="#EE7830" d="M887.9,521.2h-1.3v-7.7c0-3.6-1-5.1-3.2-5.1c-2.4,0-4.8,1.8-5.5,4.3v8.6h-1.3v-13.9h1.2v3.3   c1.1-2.1,3.5-3.5,6-3.5c3,0,4.1,2.2,4.1,6.1V521.2z"/>
	<path fill="#EE7830" d="M891.8,504.2v-2.5h1.3v2.5H891.8z M891.8,521.2v-13.9h1.3v13.9H891.8z"/>
	<path fill="#EE7830" d="M896.4,514.3c0-3.8,2.9-7.2,6.7-7.2c2.2,0,4.2,1.3,5.3,3v-2.8h1.2V525c0,0.5,0.2,0.7,0.6,0.7v1.2   c-0.2,0-0.3,0-0.5,0c-0.8,0-1.4-0.6-1.4-1.4v-7.2c-1.4,2.1-3.3,3.3-5.5,3.3C898.9,521.5,896.4,518,896.4,514.3z M908.2,516.7v-4.5   c-0.3-2.1-2.8-3.9-4.9-3.9c-3.2,0-5.5,3-5.5,6c0,3.2,2.2,5.9,5.3,5.9C905.4,520.3,907.2,518.6,908.2,516.7z"/>
	<path fill="#EE7830" d="M913.5,515.4v-8h1.3v7.8c0,3.4,1.2,5.1,3.5,5.1c2.4,0,4.6-1.7,5.4-4.2v-8.7h1.3v12c0,0.4,0.2,0.7,0.6,0.7   v1.2c-0.2,0-0.3,0-0.5,0c-0.7,0-1.3-0.5-1.3-1.2v-2.1c-1.2,2.2-3.5,3.5-5.9,3.5C915,521.5,913.5,519.4,913.5,515.4z"/>
	<path fill="#EE7830" d="M928.4,514.2c0-3.9,2.9-7.1,6.8-7.1c3.9,0,6.8,3.3,6.8,7.1c0,0.2,0,0.5,0,0.6h-12.2   c0.2,3.2,2.6,5.6,5.5,5.6c2,0,3.8-1.1,4.5-2.7l1.2,0.3c-0.8,2-3.2,3.4-5.8,3.4C931.3,521.5,928.4,518.2,928.4,514.2z M940.7,513.8   c-0.2-3.3-2.6-5.5-5.5-5.5c-2.9,0-5.3,2.3-5.5,5.5H940.7z"/>
	<path fill="#EE7830" d="M748.1,535.3v-2.5h1.3v2.5H748.1z M748.1,552.3v-13.9h1.3v13.9H748.1z"/>
	<path fill="#EE7830" d="M764.9,552.3h-1.3v-7.7c0-3.6-1-5.1-3.2-5.1c-2.4,0-4.8,1.8-5.5,4.3v8.6h-1.3v-13.9h1.2v3.3   c1.1-2.1,3.5-3.5,6-3.5c3,0,4.1,2.2,4.1,6.1V552.3z"/>
	<path fill="#EE7830" d="M774.8,538.2c2.5,0,4.5,1.2,5.5,3.2l-1.3,0.4c-0.8-1.5-2.5-2.5-4.3-2.5c-3,0-5.4,2.6-5.4,5.9   c0,3.3,2.5,6.1,5.5,6.1c1.9,0,4-1.2,4.4-2.6l1.3,0.4c-0.7,1.9-3,3.4-5.6,3.4c-3.9,0-6.9-3.3-6.9-7.3S770.8,538.2,774.8,538.2z"/>
	<path fill="#EE7830" d="M782.5,545.4c0-3.9,2.9-7.1,6.8-7.1c3.9,0,6.8,3.3,6.8,7.1c0,0.2,0,0.5,0,0.6h-12.2   c0.2,3.2,2.6,5.6,5.5,5.6c2,0,3.8-1.1,4.5-2.7l1.2,0.3c-0.8,2-3.2,3.4-5.8,3.4C785.5,552.6,782.5,549.3,782.5,545.4z M794.9,544.9   c-0.2-3.3-2.6-5.5-5.5-5.5c-2.9,0-5.3,2.3-5.5,5.5H794.9z"/>
	<path fill="#EE7830" d="M810.4,552.3h-1.3v-7.7c0-3.6-1-5.1-3.2-5.1c-2.4,0-4.8,1.8-5.5,4.3v8.6h-1.3v-13.9h1.2v3.3   c1.1-2.1,3.5-3.5,6-3.5c3,0,4.1,2.2,4.1,6.1V552.3z"/>
	<path fill="#EE7830" d="M820.5,551.7c-0.3,0.2-1.4,0.8-2.9,0.8c-1.5,0-2.8-0.9-2.8-2.5v-10.5h-2v-1.1h2v-4.7h1.3v4.7h3.3v1.1h-3.3   v10.1c0,1,0.9,1.5,1.8,1.5c1.1,0,2-0.5,2.2-0.6L820.5,551.7z"/>
	<path fill="#EE7830" d="M822.8,535.3v-2.5h1.3v2.5H822.8z M822.8,552.3v-13.9h1.3v13.9H822.8z"/>
	<path fill="#EE7830" d="M832.5,552.3l-5.8-13.9h1.4l5.1,12.5l5.2-12.5h1.3l-5.8,13.9H832.5z"/>
	<path fill="#EE7830" d="M841.4,545.4c0-3.9,2.9-7.1,6.8-7.1c3.9,0,6.8,3.3,6.8,7.1c0,0.2,0,0.5,0,0.6h-12.2   c0.2,3.2,2.6,5.6,5.5,5.6c2,0,3.8-1.1,4.5-2.7l1.2,0.3c-0.8,2-3.2,3.4-5.8,3.4C844.3,552.6,841.4,549.3,841.4,545.4z M853.7,544.9   c-0.2-3.3-2.6-5.5-5.5-5.5c-2.9,0-5.3,2.3-5.5,5.5H853.7z"/>
	<path fill="#EE7830" d="M857.7,545.7v-1.2h7.7v1.2H857.7z"/>
	<path fill="#EE7830" d="M870.5,549.6v2.8h-1.2v-19.5h1.3v8.6c1.3-1.9,3.1-3.3,5.4-3.3c4,0,6.4,3.7,6.4,7.2c0,3.8-2.9,7.1-6.6,7.1   C873.6,552.6,871.5,551.3,870.5,549.6z M881,545.5c0-3.1-2.2-6-5.3-6c-2.4,0-4.2,1.7-5.1,3.7v4.6c0.2,2.1,2.9,3.7,4.9,3.7   C878.7,551.4,881,548.4,881,545.5z"/>
	<path fill="#EE7830" d="M884.4,548.3c0-2.4,2.4-4.1,5.8-4.1c1.5,0,3.1,0.3,4.3,0.7v-1.4c0-2.6-1.6-4.3-4.2-4.3   c-1.4,0-2.9,0.6-4.5,1.7l-0.5-0.9c1.8-1.2,3.5-1.8,5.1-1.8c3.3,0,5.4,2.1,5.4,5.5v6.8c0,0.5,0.2,0.7,0.6,0.7v1.2   c-0.2,0-0.3,0-0.5,0c-0.6,0-1.3-0.5-1.3-1.2V550c-1.3,1.7-3.4,2.6-5.7,2.6C886.4,552.6,884.4,550.7,884.4,548.3z M894.1,549.4   c0.3-0.3,0.5-0.7,0.5-1.1v-2.5c-1.3-0.5-2.7-0.7-4.2-0.7c-2.8,0-4.7,1.3-4.7,3.1c0,1.9,1.6,3.3,3.6,3.3   C891.4,551.5,893.3,550.7,894.1,549.4z"/>
	<path fill="#EE7830" d="M898.8,550.5l0.7-0.9c1.5,1.3,3.1,2,5,2c2.4,0,4-1.1,4-2.9c0-1.7-1.5-2.2-4.4-2.9c-3.2-0.7-4.6-1.3-4.6-3.4   c0-2.8,2.3-4.1,5.1-4.1c2.2,0,3.9,0.8,4.8,1.9l-0.7,0.7c-0.9-1.1-2.5-1.6-4.2-1.6c-2.1,0-3.7,0.9-3.7,2.9c0,1.6,1.1,1.9,3.6,2.5   c3.5,0.8,5.4,1.4,5.4,3.8c0,2.5-2.1,4.1-5.3,4.1C902.3,552.6,900.2,551.9,898.8,550.5z"/>
	<path fill="#EE7830" d="M911.9,545.4c0-3.9,2.9-7.1,6.8-7.1c3.9,0,6.8,3.3,6.8,7.1c0,0.2,0,0.5,0,0.6h-12.2   c0.2,3.2,2.6,5.6,5.5,5.6c2,0,3.8-1.1,4.5-2.7l1.2,0.3c-0.8,2-3.2,3.4-5.8,3.4C914.9,552.6,911.9,549.3,911.9,545.4z M924.2,544.9   c-0.2-3.3-2.6-5.5-5.5-5.5c-2.9,0-5.3,2.3-5.5,5.5H924.2z"/>
	<path fill="#EE7830" d="M927.5,545.4c0-3.9,2.7-7.2,6.4-7.2c2.4,0,4.4,1.5,5.4,3.3v-8.6h1.3v17.6c0,0.4,0.2,0.7,0.6,0.7v1.2   c-0.2,0-0.3,0-0.5,0c-0.8,0-1.3-0.6-1.3-1.2v-1.6c-1.1,1.8-3.2,3-5.3,3C930.3,552.6,927.5,549.1,927.5,545.4z M939.3,547.7v-4.6   c-0.7-2-3.1-3.7-5.1-3.7c-3.2,0-5.3,3-5.3,6c0,3.2,2.5,5.9,5.6,5.9C936.4,551.4,939.1,549.7,939.3,547.7z"/>
	<path fill="#EE7830" d="M673.9,579.4c0-2.4,2.4-4.1,5.8-4.1c1.5,0,3.1,0.3,4.3,0.7v-1.4c0-2.6-1.6-4.3-4.2-4.3   c-1.4,0-2.9,0.6-4.5,1.7l-0.5-0.9c1.8-1.2,3.5-1.8,5.1-1.8c3.3,0,5.4,2.1,5.4,5.5v6.8c0,0.5,0.2,0.7,0.6,0.7v1.2   c-0.2,0-0.3,0-0.5,0c-0.6,0-1.3-0.5-1.3-1.2v-1.1c-1.3,1.7-3.4,2.6-5.7,2.6C675.9,583.7,673.9,581.8,673.9,579.4z M683.6,580.5   c0.3-0.3,0.5-0.7,0.5-1.1V577c-1.3-0.5-2.7-0.7-4.2-0.7c-2.8,0-4.7,1.3-4.7,3.1c0,1.9,1.6,3.3,3.6,3.3   C680.8,582.6,682.7,581.8,683.6,580.5z"/>
	<path fill="#EE7830" d="M695.4,569.3c2.5,0,4.5,1.2,5.5,3.2l-1.3,0.4c-0.8-1.5-2.5-2.5-4.3-2.5c-3,0-5.4,2.6-5.4,5.9   c0,3.3,2.5,6.1,5.5,6.1c1.9,0,4-1.2,4.4-2.6l1.3,0.4c-0.7,1.9-3,3.4-5.6,3.4c-3.9,0-6.9-3.3-6.9-7.3S691.4,569.3,695.4,569.3z"/>
	<path fill="#EE7830" d="M715.4,583.4h-1.3v-7.7c0-3.4-1.2-5.1-3.4-5.1c-2.3,0-4.6,1.8-5.2,4.3v8.6h-1.3V564h1.3v8.9   c1.1-2.2,3.3-3.5,5.6-3.5c3.1,0,4.4,2.3,4.4,6.1V583.4z"/>
	<path fill="#EE7830" d="M719.4,566.4V564h1.3v2.5H719.4z M719.4,583.4v-13.9h1.3v13.9H719.4z"/>
	<path fill="#EE7830" d="M723.9,576.5c0-3.9,2.9-7.1,6.8-7.1c3.9,0,6.8,3.3,6.8,7.1c0,0.2,0,0.5,0,0.6h-12.2   c0.2,3.2,2.6,5.6,5.5,5.6c2,0,3.8-1.1,4.5-2.7l1.2,0.3c-0.8,2-3.2,3.4-5.8,3.4C726.9,583.7,723.9,580.4,723.9,576.5z M736.2,576   c-0.2-3.3-2.6-5.5-5.5-5.5c-2.9,0-5.3,2.3-5.5,5.5H736.2z"/>
	<path fill="#EE7830" d="M744.3,583.4l-5.8-13.9h1.4l5.1,12.5l5.2-12.5h1.3l-5.8,13.9H744.3z"/>
	<path fill="#EE7830" d="M753.2,576.5c0-3.9,2.9-7.1,6.8-7.1c3.9,0,6.8,3.3,6.8,7.1c0,0.2,0,0.5,0,0.6h-12.2   c0.2,3.2,2.6,5.6,5.5,5.6c2,0,3.8-1.1,4.5-2.7l1.2,0.3c-0.8,2-3.2,3.4-5.8,3.4C756.1,583.7,753.2,580.4,753.2,576.5z M765.5,576   c-0.2-3.3-2.6-5.5-5.5-5.5c-2.9,0-5.3,2.3-5.5,5.5H765.5z"/>
	<path fill="#EE7830" d="M790.1,583.4h-1.3v-7.7c0-3.5-1.1-5.1-3.3-5.1c-2.3,0-4.2,1.8-4.9,4.3v8.6h-1.3v-7.7c0-3.5-1.1-5.1-3.3-5.1   c-2.3,0-4.2,1.7-4.9,4.3v8.6h-1.3v-13.9h1.2v3.3c1.2-2.2,3.1-3.5,5.3-3.5c2.3,0,3.8,1.5,4.1,3.8c1.3-2.5,3.2-3.8,5.5-3.8   c3,0,4.2,2.3,4.2,6.1V583.4z"/>
	<path fill="#EE7830" d="M793.2,576.5c0-3.9,2.9-7.1,6.8-7.1c3.9,0,6.8,3.3,6.8,7.1c0,0.2,0,0.5,0,0.6h-12.2   c0.2,3.2,2.6,5.6,5.5,5.6c2,0,3.8-1.1,4.5-2.7l1.2,0.3c-0.8,2-3.2,3.4-5.8,3.4C796.1,583.7,793.2,580.4,793.2,576.5z M805.5,576   c-0.2-3.3-2.6-5.5-5.5-5.5c-2.9,0-5.3,2.3-5.5,5.5H805.5z"/>
	<path fill="#EE7830" d="M821.1,583.4h-1.3v-7.7c0-3.6-1-5.1-3.2-5.1c-2.4,0-4.8,1.8-5.5,4.3v8.6h-1.3v-13.9h1.2v3.3   c1.1-2.1,3.5-3.5,6-3.5c3,0,4.1,2.2,4.1,6.1V583.4z"/>
	<path fill="#EE7830" d="M831.2,582.8c-0.3,0.2-1.4,0.8-2.9,0.8c-1.5,0-2.8-0.9-2.8-2.5v-10.5h-2v-1.1h2v-4.7h1.3v4.7h3.3v1.1h-3.3   v10.1c0,1,0.9,1.5,1.8,1.5c1.1,0,2-0.5,2.2-0.6L831.2,582.8z"/>
	<path fill="#EE7830" d="M841.7,580.5v8.7h-1.3v-19.6h1.2v2.8c1.1-1.8,3.2-3,5.3-3c3.8,0,6.6,3.5,6.6,7.2c0,3.9-2.6,7.2-6.4,7.2   C844.8,583.7,842.9,582.3,841.7,580.5z M852.2,576.5c0-3.2-2.4-6-5.5-6c-2,0-4.7,1.8-4.9,3.7v4.6c0.9,2.1,2.9,3.7,5.1,3.7   C850.1,582.5,852.2,579.5,852.2,576.5z"/>
	<path fill="#EE7830" d="M863.3,570.8c-2.5,0.1-4.5,1.6-5.2,4v8.7h-1.3v-13.9h1.3v3.4c1-1.9,2.7-3.3,4.5-3.4c0.3,0,0.6,0,0.9,0   V570.8z"/>
	<path fill="#EE7830" d="M864.2,576.5c0-3.9,3-7.2,6.8-7.2c3.8,0,6.8,3.3,6.8,7.2c0,3.9-2.9,7.2-6.8,7.2   C867.1,583.7,864.2,580.4,864.2,576.5z M871,582.5c3,0,5.5-2.7,5.5-6c0-3.3-2.5-6-5.5-6c-2.9,0-5.4,2.7-5.4,6.1   C865.6,579.9,868,582.5,871,582.5z"/>
	<path fill="#EE7830" d="M880,576.5c0-3.8,2.6-7.2,6.4-7.2c2.4,0,4.2,1.4,5.5,3.3v-3h1.2v14.1c0,3.8-3,5.7-6.5,5.7   c-3.2,0-5-1.3-6.2-3.2l0.9-0.6c1.1,1.9,3.1,2.7,5.3,2.7c2.8,0,5.2-1.5,5.2-4.6v-3c-1.1,1.8-3.2,3-5.2,3   C882.8,583.7,880,580.2,880,576.5z M891.8,578.8v-4.6c-0.8-2.1-3-3.7-5.1-3.7c-3.3,0-5.3,3.1-5.3,6c0,3.2,2.5,5.9,5.6,5.9   C889.3,582.5,891.6,580.6,891.8,578.8z"/>
	<path fill="#EE7830" d="M903.9,570.8c-2.5,0.1-4.5,1.6-5.2,4v8.7h-1.3v-13.9h1.3v3.4c1-1.9,2.7-3.3,4.5-3.4c0.3,0,0.6,0,0.9,0   V570.8z"/>
	<path fill="#EE7830" d="M905,579.4c0-2.4,2.4-4.1,5.8-4.1c1.5,0,3.1,0.3,4.3,0.7v-1.4c0-2.6-1.6-4.3-4.2-4.3   c-1.4,0-2.9,0.6-4.5,1.7l-0.5-0.9c1.8-1.2,3.5-1.8,5.1-1.8c3.3,0,5.4,2.1,5.4,5.5v6.8c0,0.5,0.2,0.7,0.6,0.7v1.2   c-0.2,0-0.3,0-0.5,0c-0.6,0-1.3-0.5-1.3-1.2v-1.1c-1.3,1.7-3.4,2.6-5.7,2.6C907,583.7,905,581.8,905,579.4z M914.7,580.5   c0.3-0.3,0.5-0.7,0.5-1.1V577c-1.3-0.5-2.7-0.7-4.2-0.7c-2.8,0-4.7,1.3-4.7,3.1c0,1.9,1.6,3.3,3.6,3.3   C911.9,582.6,913.8,581.8,914.7,580.5z"/>
	<path fill="#EE7830" d="M941,583.4h-1.3v-7.7c0-3.5-1.1-5.1-3.3-5.1c-2.3,0-4.2,1.8-4.9,4.3v8.6h-1.3v-7.7c0-3.5-1.1-5.1-3.3-5.1   c-2.3,0-4.2,1.7-4.9,4.3v8.6h-1.3v-13.9h1.2v3.3c1.2-2.2,3.1-3.5,5.3-3.5c2.3,0,3.8,1.5,4.1,3.8c1.3-2.5,3.2-3.8,5.5-3.8   c3,0,4.2,2.3,4.2,6.1V583.4z"/>
	<path fill="#EE7830" d="M717,611.8v2.8h-1.2v-19.5h1.3v8.6c1.3-1.9,3.1-3.3,5.4-3.3c4,0,6.4,3.7,6.4,7.2c0,3.8-2.9,7.1-6.6,7.1   C720.1,614.8,718,613.5,717,611.8z M727.5,607.7c0-3.1-2.2-6-5.3-6c-2.4,0-4.2,1.7-5.1,3.7v4.6c0.2,2.1,2.9,3.7,4.9,3.7   C725.2,613.6,727.5,610.7,727.5,607.7z"/>
	<path fill="#EE7830" d="M738.7,601.9c-2.5,0.1-4.5,1.6-5.2,4v8.7h-1.3v-13.9h1.3v3.4c1-1.9,2.7-3.3,4.5-3.4c0.3,0,0.6,0,0.9,0   V601.9z"/>
	<path fill="#EE7830" d="M741.2,597.5v-2.5h1.3v2.5H741.2z M741.2,614.6v-13.9h1.3v13.9H741.2z"/>
	<path fill="#EE7830" d="M758,614.6h-1.3v-7.7c0-3.6-1-5.1-3.2-5.1c-2.4,0-4.8,1.8-5.5,4.3v8.6h-1.3v-13.9h1.2v3.3   c1.1-2.1,3.5-3.5,6-3.5c3,0,4.1,2.2,4.1,6.1V614.6z"/>
	<path fill="#EE7830" d="M761.1,607.7c0-3.8,2.6-7.2,6.4-7.2c2.4,0,4.2,1.4,5.5,3.3v-3h1.2v14.1c0,3.8-3,5.7-6.5,5.7   c-3.2,0-5-1.3-6.2-3.2l0.9-0.6c1.1,1.9,3.1,2.7,5.3,2.7c2.8,0,5.2-1.5,5.2-4.6v-3c-1.1,1.8-3.2,3-5.2,3   C763.8,614.8,761.1,611.3,761.1,607.7z M772.9,609.9v-4.6c-0.8-2.1-3-3.7-5.1-3.7c-3.3,0-5.3,3.1-5.3,6c0,3.2,2.5,5.9,5.6,5.9   C770.3,613.6,772.6,611.7,772.9,609.9z"/>
	<path fill="#EE7830" d="M777.1,612.7l0.7-0.9c1.5,1.3,3.1,2,5,2c2.4,0,4-1.1,4-2.9c0-1.7-1.5-2.2-4.4-2.9c-3.2-0.7-4.6-1.3-4.6-3.4   c0-2.8,2.3-4.1,5.1-4.1c2.2,0,3.9,0.8,4.8,1.9l-0.7,0.7c-0.9-1.1-2.5-1.6-4.2-1.6c-2.1,0-3.7,0.9-3.7,2.9c0,1.6,1.1,1.9,3.6,2.5   c3.5,0.8,5.4,1.4,5.4,3.8c0,2.5-2.1,4.1-5.3,4.1C780.6,614.8,778.6,614.1,777.1,612.7z"/>
	<path fill="#EE7830" d="M798.9,614.6v-11.1h-2v-1.1h2v-2.1c0-3.4,1.5-5.4,4-5.4c1,0,2.1,0.3,2.8,0.9l-0.5,1   c-0.5-0.4-1.3-0.7-2.1-0.7c-1.8,0-2.8,1.5-2.8,4.2v2.1h4v1.1h-4v11.1H798.9z"/>
	<path fill="#EE7830" d="M805.8,610.5c0-2.4,2.4-4.1,5.8-4.1c1.5,0,3.1,0.3,4.3,0.7v-1.4c0-2.6-1.6-4.3-4.2-4.3   c-1.4,0-2.9,0.6-4.5,1.7l-0.5-0.9c1.8-1.2,3.5-1.8,5.1-1.8c3.3,0,5.4,2.1,5.4,5.5v6.8c0,0.5,0.2,0.7,0.6,0.7v1.2   c-0.2,0-0.3,0-0.5,0c-0.6,0-1.3-0.5-1.3-1.2v-1.1c-1.3,1.7-3.4,2.6-5.7,2.6C807.8,614.8,805.8,613,805.8,610.5z M815.5,611.6   c0.3-0.3,0.5-0.7,0.5-1.1v-2.5c-1.3-0.5-2.7-0.7-4.2-0.7c-2.8,0-4.7,1.3-4.7,3.1c0,1.9,1.6,3.3,3.6,3.3   C812.7,613.8,814.6,612.9,815.5,611.6z"/>
	<path fill="#EE7830" d="M841.8,614.6h-1.3v-7.7c0-3.5-1.1-5.1-3.3-5.1c-2.3,0-4.2,1.8-4.9,4.3v8.6h-1.3v-7.7c0-3.5-1.1-5.1-3.3-5.1   c-2.3,0-4.2,1.7-4.9,4.3v8.6h-1.3v-13.9h1.2v3.3c1.2-2.2,3.1-3.5,5.3-3.5c2.3,0,3.8,1.5,4.1,3.8c1.3-2.5,3.2-3.8,5.5-3.8   c3,0,4.2,2.3,4.2,6.1V614.6z"/>
	<path fill="#EE7830" d="M845.7,597.5v-2.5h1.3v2.5H845.7z M845.7,614.6v-13.9h1.3v13.9H845.7z"/>
	<path fill="#EE7830" d="M851.3,595.1h1.4v16.7c0,1,0.6,1.7,1.7,1.7c0.4,0,1-0.1,1.5-0.3l0.3,1.1c-0.6,0.2-1.6,0.4-2.3,0.4   c-1.5,0-2.5-1-2.5-2.5V595.1z"/>
	<path fill="#EE7830" d="M857.8,597.5v-2.5h1.3v2.5H857.8z M857.8,614.6v-13.9h1.3v13.9H857.8z"/>
	<path fill="#EE7830" d="M862.4,607.6c0-3.9,2.9-7.1,6.8-7.1c3.9,0,6.8,3.3,6.8,7.1c0,0.2,0,0.5,0,0.6h-12.2   c0.2,3.2,2.6,5.6,5.5,5.6c2,0,3.8-1.1,4.5-2.7l1.2,0.3c-0.8,2-3.2,3.4-5.8,3.4C865.3,614.8,862.4,611.5,862.4,607.6z M874.7,607.1   c-0.2-3.3-2.6-5.5-5.5-5.5c-2.9,0-5.3,2.3-5.5,5.5H874.7z"/>
	<path fill="#EE7830" d="M877.7,612.7l0.7-0.9c1.5,1.3,3.1,2,5,2c2.4,0,4-1.1,4-2.9c0-1.7-1.5-2.2-4.4-2.9c-3.2-0.7-4.6-1.3-4.6-3.4   c0-2.8,2.3-4.1,5.1-4.1c2.2,0,3.9,0.8,4.8,1.9l-0.7,0.7c-0.9-1.1-2.5-1.6-4.2-1.6c-2.1,0-3.7,0.9-3.7,2.9c0,1.6,1.1,1.9,3.6,2.5   c3.5,0.8,5.4,1.4,5.4,3.8c0,2.5-2.1,4.1-5.3,4.1C881.2,614.8,879.1,614.1,877.7,612.7z"/>
	<path fill="#EE7830" d="M897.6,610.5c0-2.4,2.4-4.1,5.8-4.1c1.5,0,3.1,0.3,4.3,0.7v-1.4c0-2.6-1.6-4.3-4.2-4.3   c-1.4,0-2.9,0.6-4.5,1.7l-0.5-0.9c1.8-1.2,3.5-1.8,5.1-1.8c3.3,0,5.4,2.1,5.4,5.5v6.8c0,0.5,0.2,0.7,0.6,0.7v1.2   c-0.2,0-0.3,0-0.5,0c-0.6,0-1.3-0.5-1.3-1.2v-1.1c-1.3,1.7-3.4,2.6-5.7,2.6C899.6,614.8,897.6,613,897.6,610.5z M907.3,611.6   c0.3-0.3,0.5-0.7,0.5-1.1v-2.5c-1.3-0.5-2.7-0.7-4.2-0.7c-2.8,0-4.7,1.3-4.7,3.1c0,1.9,1.6,3.3,3.6,3.3   C904.5,613.8,906.4,612.9,907.3,611.6z"/>
	<path fill="#EE7830" d="M924.5,614.6h-1.3v-7.7c0-3.6-1-5.1-3.2-5.1c-2.4,0-4.8,1.8-5.5,4.3v8.6h-1.3v-13.9h1.2v3.3   c1.1-2.1,3.5-3.5,6-3.5c3,0,4.1,2.2,4.1,6.1V614.6z"/>
	<path fill="#EE7830" d="M927.5,607.7c0-3.9,2.7-7.2,6.4-7.2c2.4,0,4.4,1.5,5.4,3.3v-8.6h1.3v17.6c0,0.4,0.2,0.7,0.6,0.7v1.2   c-0.2,0-0.3,0-0.5,0c-0.8,0-1.3-0.6-1.3-1.2v-1.6c-1.1,1.8-3.2,3-5.3,3C930.3,614.8,927.5,611.3,927.5,607.7z M939.3,609.9v-4.6   c-0.7-2-3.1-3.7-5.1-3.7c-3.2,0-5.3,3-5.3,6c0,3.2,2.5,5.9,5.6,5.9C936.4,613.6,939.1,611.9,939.3,609.9z"/>
	<path fill="#EE7830" d="M682.2,631.6c2.5,0,4.5,1.2,5.5,3.2l-1.3,0.4c-0.8-1.5-2.5-2.5-4.3-2.5c-3,0-5.4,2.6-5.4,5.9   c0,3.3,2.5,6.1,5.5,6.1c1.9,0,4-1.2,4.4-2.6l1.3,0.4c-0.7,1.9-3,3.4-5.6,3.4c-3.9,0-6.9-3.3-6.9-7.3S678.2,631.6,682.2,631.6z"/>
	<path fill="#EE7830" d="M689.8,638.8c0-3.9,3-7.2,6.8-7.2c3.8,0,6.8,3.3,6.8,7.2c0,3.9-2.9,7.2-6.8,7.2   C692.7,645.9,689.8,642.6,689.8,638.8z M696.6,644.7c3,0,5.5-2.7,5.5-6c0-3.3-2.5-6-5.5-6c-2.9,0-5.4,2.7-5.4,6.1   C691.1,642.1,693.6,644.7,696.6,644.7z"/>
	<path fill="#EE7830" d="M727,645.7h-1.3v-7.7c0-3.5-1.1-5.1-3.3-5.1c-2.3,0-4.2,1.8-4.9,4.3v8.6h-1.3v-7.7c0-3.5-1.1-5.1-3.3-5.1   c-2.3,0-4.2,1.7-4.9,4.3v8.6h-1.3v-13.9h1.2v3.3c1.2-2.2,3.1-3.5,5.3-3.5c2.3,0,3.8,1.5,4.1,3.8c1.3-2.5,3.2-3.8,5.5-3.8   c3,0,4.2,2.3,4.2,6.1V645.7z"/>
	<path fill="#EE7830" d="M751.3,645.7H750v-7.7c0-3.5-1.1-5.1-3.3-5.1c-2.3,0-4.2,1.8-4.9,4.3v8.6h-1.3v-7.7c0-3.5-1.1-5.1-3.3-5.1   c-2.3,0-4.2,1.7-4.9,4.3v8.6h-1.3v-13.9h1.2v3.3c1.2-2.2,3.1-3.5,5.3-3.5c2.3,0,3.8,1.5,4.1,3.8c1.3-2.5,3.2-3.8,5.5-3.8   c3,0,4.2,2.3,4.2,6.1V645.7z"/>
	<path fill="#EE7830" d="M755.1,639.8v-8h1.3v7.8c0,3.4,1.1,5.1,3.5,5.1c2.4,0,4.6-1.7,5.4-4.2v-8.7h1.3v12c0,0.4,0.2,0.7,0.6,0.7   v1.2c-0.2,0-0.3,0-0.5,0c-0.7,0-1.3-0.5-1.3-1.2v-2.1c-1.2,2.2-3.5,3.5-5.9,3.5C756.6,645.9,755.1,643.9,755.1,639.8z"/>
	<path fill="#EE7830" d="M782.3,645.7H781v-7.7c0-3.6-1-5.1-3.2-5.1c-2.4,0-4.8,1.8-5.5,4.3v8.6H771v-13.9h1.2v3.3   c1.1-2.1,3.5-3.5,6-3.5c3,0,4.1,2.2,4.1,6.1V645.7z"/>
	<path fill="#EE7830" d="M786.3,628.7v-2.5h1.3v2.5H786.3z M786.3,645.7v-13.9h1.3v13.9H786.3z"/>
	<path fill="#EE7830" d="M798,645c-0.3,0.2-1.4,0.8-2.9,0.8c-1.5,0-2.8-0.9-2.8-2.5v-10.5h-2v-1.1h2v-4.7h1.3v4.7h3.3v1.1h-3.3V643   c0,1,0.9,1.5,1.8,1.5c1.1,0,2-0.5,2.2-0.6L798,645z"/>
	<path fill="#EE7830" d="M800.2,628.7v-2.5h1.3v2.5H800.2z M800.2,645.7v-13.9h1.3v13.9H800.2z"/>
	<path fill="#EE7830" d="M804.8,638.7c0-3.9,2.9-7.1,6.8-7.1c3.9,0,6.8,3.3,6.8,7.1c0,0.2,0,0.5,0,0.6h-12.2   c0.2,3.2,2.6,5.6,5.5,5.6c2,0,3.8-1.1,4.5-2.7l1.2,0.3c-0.8,2-3.2,3.4-5.8,3.4C807.7,645.9,804.8,642.6,804.8,638.7z M817.1,638.2   c-0.2-3.3-2.6-5.5-5.5-5.5c-2.9,0-5.3,2.3-5.5,5.5H817.1z"/>
	<path fill="#EE7830" d="M820.1,643.8l0.7-0.9c1.5,1.3,3.1,2,5,2c2.4,0,4-1.1,4-2.9c0-1.7-1.5-2.2-4.4-2.9c-3.2-0.7-4.6-1.3-4.6-3.4   c0-2.8,2.3-4.1,5.1-4.1c2.2,0,3.9,0.8,4.8,1.9l-0.7,0.7c-0.9-1.1-2.5-1.6-4.2-1.6c-2.1,0-3.7,0.9-3.7,2.9c0,1.6,1.1,1.9,3.6,2.5   c3.5,0.8,5.4,1.4,5.4,3.8c0,2.5-2.1,4.1-5.3,4.1C823.6,645.9,821.6,645.2,820.1,643.8z"/>
	<path fill="#EE7830" d="M847.4,645c-0.3,0.2-1.4,0.8-2.9,0.8c-1.5,0-2.8-0.9-2.8-2.5v-10.5h-2v-1.1h2v-4.7h1.3v4.7h3.3v1.1h-3.3   V643c0,1,0.9,1.5,1.8,1.5c1.1,0,2-0.5,2.2-0.6L847.4,645z"/>
	<path fill="#EE7830" d="M848.4,638.8c0-3.9,3-7.2,6.8-7.2c3.8,0,6.8,3.3,6.8,7.2c0,3.9-2.9,7.2-6.8,7.2   C851.3,645.9,848.4,642.6,848.4,638.8z M855.2,644.7c3,0,5.5-2.7,5.5-6c0-3.3-2.5-6-5.5-6c-2.9,0-5.4,2.7-5.4,6.1   C849.8,642.1,852.2,644.7,855.2,644.7z"/>
	<path fill="#EE7830" d="M864.2,638.8c0-3.8,2.6-7.2,6.4-7.2c2.4,0,4.2,1.4,5.5,3.3v-3h1.2v14.1c0,3.8-3,5.7-6.5,5.7   c-3.2,0-5-1.3-6.2-3.2l0.9-0.6c1.1,1.9,3.1,2.7,5.3,2.7c2.8,0,5.2-1.5,5.2-4.6v-3c-1.1,1.8-3.2,3-5.2,3   C867,645.9,864.2,642.4,864.2,638.8z M876,641v-4.6c-0.8-2.1-3-3.7-5.1-3.7c-3.3,0-5.3,3.1-5.3,6c0,3.2,2.5,5.9,5.6,5.9   C873.5,644.7,875.8,642.8,876,641z"/>
	<path fill="#EE7830" d="M880.6,638.7c0-3.9,2.9-7.1,6.8-7.1c3.9,0,6.8,3.3,6.8,7.1c0,0.2,0,0.5,0,0.6h-12.2   c0.2,3.2,2.6,5.6,5.5,5.6c2,0,3.8-1.1,4.5-2.7l1.2,0.3c-0.8,2-3.2,3.4-5.8,3.4C883.5,645.9,880.6,642.6,880.6,638.7z M892.9,638.2   c-0.2-3.3-2.6-5.5-5.5-5.5c-2.9,0-5.3,2.3-5.5,5.5H892.9z"/>
	<path fill="#EE7830" d="M903.2,645c-0.3,0.2-1.4,0.8-2.9,0.8c-1.5,0-2.8-0.9-2.8-2.5v-10.5h-2v-1.1h2v-4.7h1.3v4.7h3.3v1.1h-3.3   V643c0,1,0.9,1.5,1.8,1.5c1.1,0,2-0.5,2.2-0.6L903.2,645z"/>
	<path fill="#EE7830" d="M916.8,645.7h-1.3v-7.7c0-3.4-1.2-5.1-3.4-5.1c-2.3,0-4.6,1.8-5.2,4.3v8.6h-1.3v-19.5h1.3v8.9   c1.1-2.2,3.3-3.5,5.6-3.5c3.1,0,4.4,2.3,4.4,6.1V645.7z"/>
	<path fill="#EE7830" d="M919.9,638.7c0-3.9,2.9-7.1,6.8-7.1c3.9,0,6.8,3.3,6.8,7.1c0,0.2,0,0.5,0,0.6h-12.2   c0.2,3.2,2.6,5.6,5.5,5.6c2,0,3.8-1.1,4.5-2.7l1.2,0.3c-0.8,2-3.2,3.4-5.8,3.4C922.8,645.9,919.9,642.6,919.9,638.7z M932.2,638.2   c-0.2-3.3-2.6-5.5-5.5-5.5c-2.9,0-5.3,2.3-5.5,5.5H932.2z"/>
	<path fill="#EE7830" d="M943,633c-2.5,0.1-4.5,1.6-5.2,4v8.7h-1.3v-13.9h1.3v3.4c1-1.9,2.7-3.3,4.5-3.4c0.3,0,0.6,0,0.9,0V633z"/>
</g>
<g opacity="0.25">
	<polygon fill="#FFFFFF" points="637.7,132.1 643.9,144.8 657.9,146.9 647.8,156.7 650.2,170.7 637.7,164.1 625.1,170.7    627.5,156.7 617.4,146.9 631.4,144.8  "/>
	<polygon fill="#FFFFFF" points="680,139.7 683.8,147.4 692.4,148.6 686.2,154.6 687.6,163.1 680,159.1 672.4,163.1 673.9,154.6    667.7,148.6 676.2,147.4  "/>
	<polygon fill="#FFFFFF" points="595.3,139.7 599.1,147.4 607.6,148.6 601.5,154.6 602.9,163.1 595.3,159.1 587.7,163.1    589.1,154.6 583,148.6 591.5,147.4  "/>
</g>
<polygon opacity="0.25" fill="#FFFFFF" points="68,154.7 557,158.3 557,154.7 557,151 "/>
<polygon opacity="0.25" fill="#FFFFFF" points="1206,154.7 717,158.3 717,154.7 717,151 "/>
<g>
	<path fill="#EE7830" d="M69.3,380h13.8v4h-4.7v24.2H74v-24.2h-4.7V380z"/>
	<path fill="#EE7830" d="M89.5,391.9h6.1v4h-6.1v8.3h7.7v4H85V380h12.1v4h-7.7V391.9z"/>
	<path fill="#EE7830" d="M114.3,408.3h-4.5l-0.8-5.1h-5.5l-0.8,5.1h-4.1l4.5-28.3h6.5L114.3,408.3z M104.2,399.3h4.3l-2.1-14.3   L104.2,399.3z"/>
	<path fill="#EE7830" d="M129.3,397.7v3.8c0,4.5-2.3,7.1-6.6,7.1s-6.6-2.6-6.6-7.1v-14.7c0-4.5,2.3-7.1,6.6-7.1s6.6,2.6,6.6,7.1v2.7   h-4.2v-3c0-2-0.9-2.8-2.3-2.8s-2.3,0.8-2.3,2.8v15.3c0,2,0.9,2.7,2.3,2.7s2.3-0.7,2.3-2.7v-4H129.3z"/>
	<path fill="#EE7830" d="M136.4,408.3H132V380h4.5v12.1h5.1V380h4.5v28.3h-4.5v-12.1h-5.1V408.3z"/>
	<path fill="#EE7830" d="M153.7,391.9h6.1v4h-6.1v8.3h7.7v4h-12.1V380h12.1v4h-7.7V391.9z"/>
	<path fill="#EE7830" d="M173.5,408.3c-0.2-0.7-0.4-1.2-0.4-3.5v-4.4c0-2.6-0.9-3.6-2.9-3.6h-1.5v11.5h-4.5V380h6.7   c4.6,0,6.6,2.1,6.6,6.5v2.2c0,2.9-0.9,4.8-2.9,5.7c2.2,0.9,3,3.1,3,6v4.4c0,1.4,0,2.4,0.5,3.4H173.5z M168.6,384.1v8.7h1.7   c1.7,0,2.7-0.7,2.7-3V387c0-2-0.7-2.9-2.3-2.9H168.6z"/>
	<path fill="#EE7830" d="M186.4,379.7c4.3,0,6.6,2.6,6.6,7.1v0.9h-4.2v-1.2c0-2-0.8-2.8-2.2-2.8c-1.4,0-2.2,0.8-2.2,2.8   c0,5.8,8.7,6.9,8.7,15c0,4.5-2.3,7.1-6.6,7.1s-6.6-2.6-6.6-7.1v-1.7h4.2v2c0,2,0.9,2.7,2.3,2.7c1.4,0,2.3-0.7,2.3-2.7   c0-5.8-8.7-6.9-8.7-15C179.9,382.3,182.1,379.7,186.4,379.7z"/>
</g>
<g>
	<path fill="#2690BE" d="M83.8,677.9v3.7c0,4.5-2.2,7-6.6,7h-2.1v10.6h-4.5v-28.3h6.6C81.6,670.9,83.8,673.4,83.8,677.9z    M75.1,674.9v9.6h2.1c1.4,0,2.2-0.6,2.2-2.7v-4.2c0-2-0.8-2.7-2.2-2.7H75.1z"/>
	<path fill="#2690BE" d="M100,699.2h-4.5l-0.8-5.1h-5.5l-0.8,5.1h-4.1l4.5-28.3h6.5L100,699.2z M89.8,690.2h4.3L92,675.9L89.8,690.2   z"/>
	<path fill="#2690BE" d="M111.3,699.2c-0.2-0.7-0.4-1.2-0.4-3.5v-4.4c0-2.6-0.9-3.6-2.9-3.6h-1.5v11.5H102v-28.3h6.7   c4.6,0,6.6,2.1,6.6,6.5v2.2c0,2.9-0.9,4.8-2.9,5.7c2.2,0.9,3,3.1,3,6v4.4c0,1.4,0,2.4,0.5,3.4H111.3z M106.5,674.9v8.7h1.7   c1.7,0,2.7-0.7,2.7-3v-2.8c0-2-0.7-2.9-2.3-2.9H106.5z"/>
	<path fill="#2690BE" d="M122.8,682.8h6.1v4h-6.1v8.3h7.7v4h-12.1v-28.3h12.1v4h-7.7V682.8z"/>
	<path fill="#2690BE" d="M137.2,678.7v20.5h-4v-28.3h5.6l4.6,16.9v-16.9h4v28.3h-4.6L137.2,678.7z"/>
	<path fill="#2690BE" d="M149.2,670.9H163v4h-4.7v24.2h-4.5v-24.2h-4.7V670.9z"/>
	<path fill="#2690BE" d="M170.9,670.6c4.3,0,6.6,2.6,6.6,7.1v0.9h-4.2v-1.2c0-2-0.8-2.8-2.2-2.8c-1.4,0-2.2,0.8-2.2,2.8   c0,5.8,8.7,6.9,8.7,15c0,4.5-2.3,7.1-6.6,7.1s-6.6-2.6-6.6-7.1v-1.7h4.2v2c0,2,0.9,2.7,2.3,2.7c1.4,0,2.3-0.7,2.3-2.7   c0-5.8-8.7-6.9-8.7-15C164.3,673.2,166.6,670.6,170.9,670.6z"/>
</g>
<g>
	<path fill="#13CF56" d="M83.9,532v1c0,2.9-0.9,4.8-2.9,5.7c2.4,0.9,3.3,3.1,3.3,6.1v2.3c0,4.4-2.3,6.7-6.8,6.7h-7v-28.3h6.7   C82,525.5,83.9,527.6,83.9,532z M75.1,529.5v7.5h1.7c1.7,0,2.7-0.7,2.7-3v-1.6c0-2-0.7-2.9-2.3-2.9H75.1z M75.1,541v8.7h2.6   c1.5,0,2.3-0.7,2.3-2.8v-2.5c0-2.6-0.8-3.4-2.9-3.4H75.1z"/>
	<path fill="#13CF56" d="M91.3,525.5v21.8c0,2,0.9,2.7,2.3,2.7c1.4,0,2.3-0.7,2.3-2.7v-21.8h4.2V547c0,4.5-2.3,7.1-6.6,7.1   s-6.6-2.6-6.6-7.1v-21.5H91.3z"/>
	<path fill="#13CF56" d="M109.2,525.1c4.3,0,6.6,2.6,6.6,7.1v0.9h-4.2V532c0-2-0.8-2.8-2.2-2.8c-1.4,0-2.2,0.8-2.2,2.8   c0,5.8,8.7,6.9,8.7,15c0,4.5-2.3,7.1-6.6,7.1s-6.6-2.6-6.6-7.1v-1.7h4.2v2c0,2,0.9,2.7,2.3,2.7c1.4,0,2.3-0.7,2.3-2.7   c0-5.8-8.7-6.9-8.7-15C102.6,527.7,104.8,525.1,109.2,525.1z"/>
	<path fill="#13CF56" d="M118.3,525.5h4.5v28.3h-4.5V525.5z"/>
	<path fill="#13CF56" d="M130,533.3v20.5h-4v-28.3h5.6l4.6,16.9v-16.9h4v28.3h-4.6L130,533.3z"/>
	<path fill="#13CF56" d="M147.7,537.4h6.1v4h-6.1v8.3h7.7v4h-12.1v-28.3h12.1v4h-7.7V537.4z"/>
	<path fill="#13CF56" d="M164.2,525.1c4.3,0,6.6,2.6,6.6,7.1v0.9h-4.2V532c0-2-0.8-2.8-2.2-2.8c-1.4,0-2.2,0.8-2.2,2.8   c0,5.8,8.7,6.9,8.7,15c0,4.5-2.3,7.1-6.6,7.1s-6.6-2.6-6.6-7.1v-1.7h4.2v2c0,2,0.9,2.7,2.3,2.7c1.4,0,2.3-0.7,2.3-2.7   c0-5.8-8.7-6.9-8.7-15C157.6,527.7,159.8,525.1,164.2,525.1z"/>
	<path fill="#13CF56" d="M179.3,525.1c4.3,0,6.6,2.6,6.6,7.1v0.9h-4.2V532c0-2-0.8-2.8-2.2-2.8c-1.4,0-2.2,0.8-2.2,2.8   c0,5.8,8.7,6.9,8.7,15c0,4.5-2.3,7.1-6.6,7.1s-6.6-2.6-6.6-7.1v-1.7h4.2v2c0,2,0.9,2.7,2.3,2.7c1.4,0,2.3-0.7,2.3-2.7   c0-5.8-8.7-6.9-8.7-15C172.8,527.7,175,525.1,179.3,525.1z"/>
	<path fill="#13CF56" d="M192.9,537.4h6.1v4h-6.1v8.3h7.7v4h-12.1v-28.3h12.1v4h-7.7V537.4z"/>
	<path fill="#13CF56" d="M209.4,525.1c4.3,0,6.6,2.6,6.6,7.1v0.9h-4.2V532c0-2-0.8-2.8-2.2-2.8c-1.4,0-2.2,0.8-2.2,2.8   c0,5.8,8.7,6.9,8.7,15c0,4.5-2.3,7.1-6.6,7.1s-6.6-2.6-6.6-7.1v-1.7h4.2v2c0,2,0.9,2.7,2.3,2.7c1.4,0,2.3-0.7,2.3-2.7   c0-5.8-8.7-6.9-8.7-15C202.8,527.7,205,525.1,209.4,525.1z"/>
</g>
<g>
	<path fill="#FEF300" d="M76.6,239.8c4.3,0,6.6,2.6,6.6,7.1v0.9H79v-1.2c0-2-0.8-2.8-2.2-2.8c-1.4,0-2.2,0.8-2.2,2.8   c0,5.8,8.7,6.9,8.7,15c0,4.5-2.3,7.1-6.6,7.1s-6.6-2.6-6.6-7.1v-1.7h4.2v2c0,2,0.9,2.7,2.3,2.7c1.4,0,2.3-0.7,2.3-2.7   c0-5.8-8.7-6.9-8.7-15C70.1,242.3,72.3,239.8,76.6,239.8z"/>
	<path fill="#FEF300" d="M84.5,240.1h13.8v4h-4.7v24.2h-4.5v-24.2h-4.7V240.1z"/>
	<path fill="#FEF300" d="M104.4,240.1v21.8c0,2,0.9,2.7,2.3,2.7c1.4,0,2.3-0.7,2.3-2.7v-21.8h4.2v21.5c0,4.5-2.3,7.1-6.6,7.1   s-6.6-2.6-6.6-7.1v-21.5H104.4z"/>
	<path fill="#FEF300" d="M116.3,240.1h7c4.5,0,6.6,2.5,6.6,7v14.3c0,4.5-2.2,7-6.6,7h-7V240.1z M120.7,244.1v20.2h2.5   c1.4,0,2.3-0.7,2.3-2.7v-14.7c0-2-0.8-2.7-2.3-2.7H120.7z"/>
	<path fill="#FEF300" d="M137.3,252h6.1v4h-6.1v8.3h7.7v4h-12.1v-28.3h12.1v4h-7.7V252z"/>
	<path fill="#FEF300" d="M151.7,247.9v20.5h-4v-28.3h5.6l4.6,16.9v-16.9h4v28.3h-4.6L151.7,247.9z"/>
	<path fill="#FEF300" d="M163.7,240.1h13.8v4h-4.7v24.2h-4.5v-24.2h-4.7V240.1z"/>
	<path fill="#FEF300" d="M185.4,239.8c4.3,0,6.6,2.6,6.6,7.1v0.9h-4.2v-1.2c0-2-0.8-2.8-2.2-2.8c-1.4,0-2.2,0.8-2.2,2.8   c0,5.8,8.7,6.9,8.7,15c0,4.5-2.3,7.1-6.6,7.1s-6.6-2.6-6.6-7.1v-1.7h4.2v2c0,2,0.9,2.7,2.3,2.7c1.4,0,2.3-0.7,2.3-2.7   c0-5.8-8.7-6.9-8.7-15C178.8,242.3,181.1,239.8,185.4,239.8z"/>
</g>
<g>
	<path fill="#FFFFFF" d="M404.5,223c-0.3-0.4-1.3-0.9-2.4-0.9c-1.1,0-1.7,0.5-1.7,1.2c0,0.8,0.7,1,2.2,1.4c1.7,0.4,2.9,0.9,2.9,2.5   c0,1.8-1.5,2.5-3.2,2.5c-1.3,0-2.6-0.4-3.6-1.2l0.6-1.2c0.4,0.4,1.7,1.1,3,1.1c1.1,0,1.7-0.4,1.7-1.1c0-0.9-0.9-1.1-2.4-1.5   c-1.7-0.5-2.6-1-2.6-2.3c0-1.7,1.4-2.7,3.2-2.7c1.2,0,2.2,0.4,3,1L404.5,223z"/>
	<path fill="#FFFFFF" d="M410.2,229.4c-0.4,0.2-1,0.4-1.7,0.4c-0.8,0-1.6-0.4-1.6-1.5v-4H406v-1h0.9v-2.1h1.4v2.1h1.4v1h-1.4v3.6   c0,0.5,0.3,0.7,0.7,0.7c0.4,0,0.8-0.2,0.9-0.3L410.2,229.4z"/>
	<path fill="#FFFFFF" d="M411,227.2v-4h1.4v3.7c0,1.1,0.4,1.7,1.2,1.7c0.8,0,1.5-0.5,1.9-1.4v-4h1.4v4.9c0,0.3,0.1,0.4,0.4,0.4v1.2   c-0.3,0-0.5,0.1-0.7,0.1c-0.5,0-0.8-0.3-0.9-0.7l0-0.7c-0.6,0.9-1.5,1.4-2.7,1.4C411.7,229.9,411,229,411,227.2z"/>
	<path fill="#FFFFFF" d="M418.2,226.5c0-1.8,1.2-3.3,2.9-3.3c1,0,1.8,0.6,2.3,1.3v-3.8h1.4v7.4c0,0.3,0.1,0.4,0.4,0.4v1.2   c-0.3,0-0.5,0.1-0.7,0.1c-0.5,0-0.8-0.3-0.9-0.7l0-0.5c-0.5,0.8-1.4,1.3-2.3,1.3C419.5,229.9,418.2,228.4,418.2,226.5z    M423.4,227.4v-1.7c-0.3-0.8-1.1-1.4-1.9-1.4c-1.2,0-1.9,1.1-1.9,2.2c0,1.2,0.9,2.2,2,2.2C422.3,228.7,423.2,228.2,423.4,227.4z"/>
	<path fill="#FFFFFF" d="M426.1,226.5c0-1.8,1.3-3.4,3.4-3.4s3.3,1.6,3.3,3.3c0,0.2,0,0.4,0,0.5h-5.2c0.1,1.1,1,1.9,2,1.9   c0.7,0,1.4-0.4,1.7-1l1.2,0.3c-0.4,1-1.5,1.7-2.9,1.7C427.5,229.9,426.1,228.3,426.1,226.5z M431.4,226c-0.1-1.1-0.9-1.9-2-1.9   c-1,0-1.9,0.8-1.9,1.9H431.4z"/>
	<path fill="#FFFFFF" d="M439.7,229.7h-1.4v-3.6c0-1.2-0.4-1.7-1.2-1.7c-0.8,0-1.7,0.6-1.9,1.5v3.8h-1.4v-6.5h1.2v1.3   c0.5-0.9,1.5-1.4,2.6-1.4c1.6,0,1.9,1.2,1.9,2.6V229.7z"/>
	<path fill="#FFFFFF" d="M444.8,229.4c-0.4,0.2-1,0.4-1.7,0.4c-0.8,0-1.6-0.4-1.6-1.5v-4h-0.9v-1h0.9v-2.1h1.4v2.1h1.4v1h-1.4v3.6   c0,0.5,0.3,0.7,0.7,0.7c0.4,0,0.8-0.2,0.9-0.3L444.8,229.4z"/>
	<path fill="#FFFFFF" d="M445.2,229l0.6-0.9c0.8,0.5,1.6,0.8,2.4,0.8c0.8,0,1.3-0.3,1.3-0.9c0-0.5-0.5-0.7-1.7-1   c-1.6-0.4-2.3-0.7-2.3-1.7c0-1.3,1.1-2.1,2.5-2.1c0.9,0,1.9,0.3,2.5,0.8l-0.6,0.8c-0.6-0.5-1.3-0.7-2-0.7c-0.7,0-1.2,0.3-1.2,0.9   c0,0.5,0.4,0.7,1.4,0.9c1.8,0.4,2.6,0.8,2.6,1.9c0,1.2-1,2-2.6,2C447.1,229.9,445.9,229.5,445.2,229z"/>
	<path fill="#FFFFFF" d="M401.5,244.2c-0.4,0.2-1,0.4-1.7,0.4c-0.8,0-1.6-0.4-1.6-1.5v-4h-0.9v-1h0.9V236h1.4v2.1h1.4v1h-1.4v3.6   c0,0.5,0.3,0.7,0.7,0.7c0.4,0,0.8-0.2,0.9-0.3L401.5,244.2z"/>
	<path fill="#FFFFFF" d="M401.9,242.7c0-1.2,1.1-2,2.7-2c0.6,0,1.2,0.1,1.7,0.3v-0.4c0-1-0.6-1.5-1.6-1.5c-0.7,0-1.3,0.3-2.1,0.7   l-0.4-0.9c0.8-0.6,1.7-0.8,2.6-0.8c1.8,0,2.8,1,2.8,2.6v2.3c0,0.3,0.1,0.4,0.4,0.4v1.2c-0.3,0-0.5,0.1-0.7,0.1   c-0.5,0-0.8-0.3-0.9-0.7l0-0.4c-0.6,0.8-1.5,1.2-2.4,1.2C402.9,244.7,401.9,243.8,401.9,242.7z M406.1,243c0.2-0.1,0.3-0.3,0.3-0.5   v-0.9c-0.5-0.2-1-0.3-1.5-0.3c-1,0-1.7,0.5-1.7,1.1c0,0.6,0.5,1.1,1.3,1.1C405.2,243.7,405.8,243.4,406.1,243z"/>
	<path fill="#FFFFFF" d="M413.9,244.6l-2.1-3l-1.1,1v2h-1.4v-9h1.4v5.7l3-3.1h1.5l-2.5,2.7l2.6,3.7H413.9z"/>
	<path fill="#FFFFFF" d="M415.8,241.3c0-1.8,1.3-3.4,3.4-3.4s3.3,1.6,3.3,3.3c0,0.2,0,0.4,0,0.5h-5.2c0.1,1.1,1,1.9,2,1.9   c0.7,0,1.4-0.4,1.7-1l1.2,0.3c-0.4,1-1.5,1.7-2.9,1.7C417.1,244.7,415.8,243.1,415.8,241.3z M421.1,240.8c-0.1-1.1-0.9-1.9-2-1.9   c-1,0-1.9,0.8-1.9,1.9H421.1z"/>
	<path fill="#FFFFFF" d="M430.2,244.2c-0.4,0.2-1,0.4-1.7,0.4c-0.8,0-1.6-0.4-1.6-1.5v-4H426v-1h0.9V236h1.4v2.1h1.4v1h-1.4v3.6   c0,0.5,0.3,0.7,0.7,0.7c0.4,0,0.8-0.2,0.9-0.3L430.2,244.2z"/>
	<path fill="#FFFFFF" d="M436.9,244.6h-1.4v-3.6c0-1.2-0.4-1.7-1.2-1.7c-0.7,0-1.6,0.6-1.9,1.5v3.8h-1.4v-9h1.4v3.9   c0.5-0.9,1.4-1.4,2.4-1.4c1.6,0,2,1.2,2,2.6V244.6z"/>
	<path fill="#FFFFFF" d="M438,241.3c0-1.8,1.3-3.4,3.4-3.4s3.3,1.6,3.3,3.3c0,0.2,0,0.4,0,0.5h-5.2c0.1,1.1,1,1.9,2,1.9   c0.7,0,1.4-0.4,1.7-1l1.2,0.3c-0.4,1-1.5,1.7-2.9,1.7C439.3,244.7,438,243.1,438,241.3z M443.3,240.8c-0.1-1.1-0.9-1.9-2-1.9   c-1,0-1.9,0.8-1.9,1.9H443.3z"/>
	<path fill="#FFFFFF" d="M445.8,237v-1.5h1.4v1.5H445.8z M445.8,244.6v-6.5h1.4v6.5H445.8z"/>
	<path fill="#FFFFFF" d="M452.4,239.3c-1.1,0-1.9,0.5-2.3,1.3v4h-1.4v-6.5h1.3v1.4c0.5-0.9,1.2-1.5,2-1.5c0.2,0,0.3,0,0.3,0V239.3z"/>
	<path fill="#FFFFFF" d="M393.7,256.9v-4h1.4v3.7c0,1.1,0.4,1.7,1.2,1.7c0.8,0,1.5-0.5,1.9-1.4v-4h1.4v4.9c0,0.3,0.1,0.4,0.4,0.4   v1.2c-0.3,0-0.5,0.1-0.7,0.1c-0.5,0-0.8-0.3-0.9-0.7l0-0.7c-0.6,0.9-1.5,1.4-2.7,1.4C394.4,259.5,393.7,258.6,393.7,256.9z"/>
	<path fill="#FFFFFF" d="M400.8,258.6l0.6-0.9c0.8,0.5,1.6,0.8,2.4,0.8c0.8,0,1.3-0.3,1.3-0.9c0-0.5-0.5-0.7-1.7-1   c-1.6-0.4-2.3-0.7-2.3-1.7c0-1.3,1.1-2.1,2.5-2.1c0.9,0,1.9,0.3,2.5,0.8l-0.6,0.8c-0.6-0.5-1.3-0.7-2-0.7c-0.7,0-1.2,0.3-1.2,0.9   c0,0.5,0.4,0.7,1.4,0.9c1.8,0.4,2.6,0.8,2.6,1.9c0,1.2-1,2-2.6,2C402.7,259.5,401.5,259.2,400.8,258.6z"/>
	<path fill="#FFFFFF" d="M407.5,256.9v-4h1.4v3.7c0,1.1,0.4,1.7,1.2,1.7c0.8,0,1.5-0.5,1.9-1.4v-4h1.4v4.9c0,0.3,0.1,0.4,0.4,0.4   v1.2c-0.3,0-0.5,0.1-0.7,0.1c-0.5,0-0.8-0.3-0.9-0.7l0-0.7c-0.6,0.9-1.5,1.4-2.7,1.4C408.2,259.5,407.5,258.6,407.5,256.9z"/>
	<path fill="#FFFFFF" d="M414.6,257.5c0-1.2,1.1-2,2.7-2c0.6,0,1.2,0.1,1.7,0.3v-0.4c0-1-0.6-1.5-1.6-1.5c-0.7,0-1.3,0.3-2.1,0.7   l-0.4-0.9c0.8-0.6,1.7-0.8,2.6-0.8c1.8,0,2.8,1,2.8,2.6v2.3c0,0.3,0.1,0.4,0.4,0.4v1.2c-0.3,0-0.5,0.1-0.7,0.1   c-0.5,0-0.8-0.3-0.9-0.7l0-0.4c-0.6,0.8-1.5,1.2-2.4,1.2C415.6,259.5,414.6,258.6,414.6,257.5z M418.8,257.8   c0.2-0.1,0.3-0.3,0.3-0.5v-0.9c-0.5-0.2-1-0.3-1.5-0.3c-1,0-1.7,0.5-1.7,1.1c0,0.6,0.5,1.1,1.3,1.1   C417.9,258.5,418.5,258.2,418.8,257.8z"/>
	<path fill="#FFFFFF" d="M422.1,250.4h1.4v7.1c0,0.5,0.3,0.8,0.7,0.8c0.2,0,0.5-0.1,0.7-0.2l0.2,1.1c-0.4,0.2-1,0.3-1.4,0.3   c-0.9,0-1.5-0.5-1.5-1.5V250.4z"/>
	<path fill="#FFFFFF" d="M432.1,259c-0.4,0.2-1,0.4-1.7,0.4c-0.8,0-1.6-0.4-1.6-1.5v-4H428v-1h0.9v-2.1h1.4v2.1h1.4v1h-1.4v3.6   c0,0.5,0.3,0.7,0.7,0.7c0.4,0,0.8-0.2,0.9-0.3L432.1,259z"/>
	<path fill="#FFFFFF" d="M432.6,256.2c0-1.8,1.3-3.4,3.4-3.4s3.3,1.6,3.3,3.3c0,0.2,0,0.4,0,0.5h-5.2c0.1,1.1,1,1.9,2,1.9   c0.7,0,1.4-0.4,1.7-1l1.2,0.3c-0.4,1-1.5,1.7-2.9,1.7C434,259.5,432.6,258,432.6,256.2z M437.9,255.6c-0.1-1.1-0.9-1.9-2-1.9   c-1,0-1.9,0.8-1.9,1.9H437.9z"/>
	<path fill="#FFFFFF" d="M439.8,258.6l0.6-0.9c0.8,0.5,1.6,0.8,2.4,0.8c0.8,0,1.3-0.3,1.3-0.9c0-0.5-0.5-0.7-1.7-1   c-1.6-0.4-2.3-0.7-2.3-1.7c0-1.3,1.1-2.1,2.5-2.1c0.9,0,1.9,0.3,2.5,0.8l-0.6,0.8c-0.6-0.5-1.3-0.7-2-0.7c-0.7,0-1.2,0.3-1.2,0.9   c0,0.5,0.4,0.7,1.4,0.9c1.8,0.4,2.6,0.8,2.6,1.9c0,1.2-1,2-2.6,2C441.8,259.5,440.6,259.2,439.8,258.6z"/>
	<path fill="#FFFFFF" d="M450.2,259c-0.4,0.2-1,0.4-1.7,0.4c-0.8,0-1.6-0.4-1.6-1.5v-4H446v-1h0.9v-2.1h1.4v2.1h1.4v1h-1.4v3.6   c0,0.5,0.3,0.7,0.7,0.7c0.4,0,0.8-0.2,0.9-0.3L450.2,259z"/>
	<path fill="#FFFFFF" d="M450.5,258.6l0.6-0.9c0.8,0.5,1.6,0.8,2.4,0.8c0.8,0,1.3-0.3,1.3-0.9c0-0.5-0.5-0.7-1.7-1   c-1.6-0.4-2.3-0.7-2.3-1.7c0-1.3,1.1-2.1,2.5-2.1c0.9,0,1.9,0.3,2.5,0.8l-0.6,0.8c-0.6-0.5-1.3-0.7-2-0.7c-0.7,0-1.2,0.3-1.2,0.9   c0,0.5,0.4,0.7,1.4,0.9c1.8,0.4,2.6,0.8,2.6,1.9c0,1.2-1,2-2.6,2C452.4,259.5,451.2,259.2,450.5,258.6z"/>
	<path fill="#FFFFFF" d="M390.4,272.3c0-1.2,1.1-2,2.7-2c0.6,0,1.2,0.1,1.7,0.3v-0.4c0-1-0.6-1.5-1.6-1.5c-0.7,0-1.3,0.3-2.1,0.7   l-0.4-0.9c0.8-0.6,1.7-0.8,2.6-0.8c1.8,0,2.8,1,2.8,2.6v2.3c0,0.3,0.1,0.4,0.4,0.4v1.2c-0.3,0-0.5,0.1-0.7,0.1   c-0.5,0-0.8-0.3-0.9-0.7l0-0.4c-0.6,0.8-1.5,1.2-2.4,1.2C391.4,274.3,390.4,273.4,390.4,272.3z M394.6,272.6   c0.2-0.1,0.3-0.3,0.3-0.5v-0.9c-0.5-0.2-1-0.3-1.5-0.3c-1,0-1.7,0.5-1.7,1.1c0,0.6,0.5,1.1,1.3,1.1   C393.6,273.3,394.3,273,394.6,272.6z"/>
	<path fill="#FFFFFF" d="M403.7,274.2h-1.4v-3.6c0-1.2-0.4-1.7-1.2-1.7c-0.8,0-1.7,0.6-1.9,1.5v3.8h-1.4v-6.5h1.2v1.3   c0.5-0.9,1.5-1.4,2.6-1.4c1.6,0,1.9,1.2,1.9,2.6V274.2z"/>
	<path fill="#FFFFFF" d="M404.9,271c0-1.8,1.2-3.3,2.9-3.3c1,0,1.8,0.6,2.3,1.3v-3.8h1.4v7.4c0,0.3,0.1,0.4,0.4,0.4v1.2   c-0.3,0-0.5,0.1-0.7,0.1c-0.5,0-0.8-0.3-0.9-0.7l0-0.5c-0.5,0.8-1.4,1.3-2.3,1.3C406.1,274.3,404.9,272.8,404.9,271z M410,271.9   v-1.7c-0.3-0.8-1.1-1.4-1.9-1.4c-1.2,0-1.9,1.1-1.9,2.2c0,1.2,0.9,2.2,2,2.2C409,273.1,409.9,272.6,410,271.9z"/>
	<path fill="#FFFFFF" d="M415.8,270.9c0-1.8,1.3-3.3,3-3.3c1,0,1.8,0.5,2.3,1.3v-1.2h1.2v7.4c0,0.3,0.1,0.4,0.4,0.4v1.2   c-0.2,0-0.4,0-0.6,0c-0.6,0-1.1-0.4-1.1-1V273c-0.5,0.9-1.3,1.3-2.3,1.3C417,274.3,415.8,272.8,415.8,270.9z M421,271.9v-1.7   c-0.2-0.8-1.1-1.4-1.8-1.4c-1.2,0-2,1.1-2,2.2c0,1.2,0.8,2.2,2,2.2C420,273.1,420.6,272.6,421,271.9z"/>
	<path fill="#FFFFFF" d="M423.9,271.7v-4h1.4v3.7c0,1.1,0.4,1.7,1.2,1.7c0.8,0,1.5-0.5,1.9-1.4v-4h1.4v4.9c0,0.3,0.1,0.4,0.4,0.4   v1.2c-0.3,0-0.5,0.1-0.7,0.1c-0.5,0-0.8-0.3-0.9-0.7l0-0.7c-0.6,0.9-1.5,1.4-2.7,1.4C424.6,274.3,423.9,273.4,423.9,271.7z"/>
	<path fill="#FFFFFF" d="M431.5,266.7v-1.5h1.4v1.5H431.5z M431.5,274.2v-6.5h1.4v6.5H431.5z"/>
	<path fill="#FFFFFF" d="M434,273.3l3.9-4.6h-3.8v-1h5.2v0.9l-3.9,4.6h3.9v1H434V273.3z"/>
	<path fill="#FFFFFF" d="M440,273.3l3.9-4.6h-3.8v-1h5.2v0.9l-3.9,4.6h3.9v1H440V273.3z"/>
	<path fill="#FFFFFF" d="M446.2,271c0-1.8,1.3-3.4,3.4-3.4s3.3,1.6,3.3,3.3c0,0.2,0,0.4,0,0.5h-5.2c0.1,1.1,1,1.9,2,1.9   c0.7,0,1.4-0.4,1.7-1l1.2,0.3c-0.4,1-1.5,1.7-2.9,1.7C447.5,274.3,446.2,272.8,446.2,271z M451.5,270.5c-0.1-1.1-0.9-1.9-2-1.9   c-1,0-1.9,0.8-1.9,1.9H451.5z"/>
	<path fill="#FFFFFF" d="M453.4,273.4l0.6-0.9c0.8,0.5,1.6,0.8,2.4,0.8c0.8,0,1.3-0.3,1.3-0.9c0-0.5-0.5-0.7-1.7-1   c-1.6-0.4-2.3-0.7-2.3-1.7c0-1.3,1.1-2.1,2.5-2.1c0.9,0,1.9,0.3,2.5,0.8l-0.6,0.8c-0.6-0.5-1.3-0.7-2-0.7c-0.7,0-1.2,0.3-1.2,0.9   c0,0.5,0.4,0.7,1.4,0.9c1.8,0.4,2.6,0.8,2.6,1.9c0,1.2-1,2-2.6,2C455.3,274.3,454.1,274,453.4,273.4z"/>
	<path fill="#FFFFFF" d="M398.5,287.1c0-1.2,1.1-2,2.7-2c0.6,0,1.2,0.1,1.7,0.3v-0.4c0-1-0.6-1.5-1.6-1.5c-0.7,0-1.3,0.3-2.1,0.7   l-0.4-0.9c0.8-0.6,1.7-0.8,2.6-0.8c1.8,0,2.8,1,2.8,2.6v2.3c0,0.3,0.1,0.4,0.4,0.4v1.2c-0.3,0-0.5,0.1-0.7,0.1   c-0.5,0-0.8-0.3-0.9-0.7l0-0.4c-0.6,0.8-1.5,1.2-2.4,1.2C399.4,289.1,398.5,288.2,398.5,287.1z M402.7,287.4   c0.2-0.1,0.3-0.3,0.3-0.5v-0.9c-0.5-0.2-1-0.3-1.5-0.3c-1,0-1.7,0.5-1.7,1.1c0,0.6,0.5,1.1,1.3,1.1   C401.7,288.1,402.3,287.8,402.7,287.4z"/>
	<path fill="#FFFFFF" d="M409.5,288.6c-0.4,0.2-1,0.4-1.7,0.4c-0.8,0-1.6-0.4-1.6-1.5v-4h-0.9v-1h0.9v-2.1h1.4v2.1h1.4v1h-1.4v3.6   c0,0.5,0.3,0.7,0.7,0.7c0.4,0,0.8-0.2,0.9-0.3L409.5,288.6z"/>
	<path fill="#FFFFFF" d="M412.8,288.2l0.6-0.9c0.8,0.5,1.6,0.8,2.4,0.8c0.8,0,1.3-0.3,1.3-0.9c0-0.5-0.5-0.7-1.7-1   c-1.6-0.4-2.3-0.7-2.3-1.7c0-1.3,1.1-2.1,2.5-2.1c0.9,0,1.9,0.3,2.5,0.8l-0.6,0.8c-0.6-0.5-1.3-0.7-2-0.7c-0.7,0-1.2,0.3-1.2,0.9   c0,0.5,0.4,0.7,1.4,0.9c1.8,0.4,2.6,0.8,2.6,1.9c0,1.2-1,2-2.6,2C414.8,289.1,413.6,288.8,412.8,288.2z"/>
	<path fill="#FFFFFF" d="M422.5,282.4c1.3,0,2.3,0.6,2.8,1.6l-1.3,0.4c-0.3-0.5-0.9-0.9-1.5-0.9c-1.1,0-1.9,0.9-1.9,2.2   c0,1.2,0.9,2.2,1.9,2.2c0.7,0,1.3-0.4,1.5-0.9l1.3,0.4c-0.4,1-1.5,1.7-2.9,1.7c-2,0-3.4-1.6-3.4-3.4   C419.2,283.9,420.5,282.4,422.5,282.4z"/>
	<path fill="#FFFFFF" d="M432.3,289h-1.4v-3.6c0-1.2-0.4-1.7-1.2-1.7c-0.7,0-1.6,0.6-1.9,1.5v3.8h-1.4v-9h1.4v3.9   c0.5-0.9,1.4-1.4,2.4-1.4c1.6,0,2,1.2,2,2.6V289z"/>
	<path fill="#FFFFFF" d="M433.4,285.8c0-1.8,1.3-3.3,3.3-3.3c2,0,3.3,1.6,3.3,3.3s-1.3,3.3-3.3,3.3   C434.7,289.1,433.4,287.5,433.4,285.8z M436.7,287.9c1.1,0,1.9-1,1.9-2.2s-0.9-2.2-1.9-2.2c-1.1,0-1.9,1-1.9,2.2   C434.8,287,435.7,287.9,436.7,287.9z"/>
	<path fill="#FFFFFF" d="M440.9,285.8c0-1.8,1.3-3.3,3.3-3.3c2,0,3.3,1.6,3.3,3.3s-1.3,3.3-3.3,3.3   C442.2,289.1,440.9,287.5,440.9,285.8z M444.2,287.9c1.1,0,1.9-1,1.9-2.2s-0.9-2.2-1.9-2.2c-1.1,0-1.9,1-1.9,2.2   C442.3,287,443.1,287.9,444.2,287.9z"/>
	<path fill="#FFFFFF" d="M448.7,280h1.4v7.1c0,0.5,0.3,0.8,0.7,0.8c0.2,0,0.5-0.1,0.7-0.2l0.2,1.1c-0.4,0.2-1,0.3-1.4,0.3   c-0.9,0-1.5-0.5-1.5-1.5V280z"/>
</g>
<g>
	<path fill="#FFFFFF" d="M661.3,223.3c-0.3-0.4-1.3-0.9-2.4-0.9c-1.1,0-1.7,0.5-1.7,1.2c0,0.8,0.7,1,2.2,1.4   c1.7,0.4,2.9,0.9,2.9,2.5c0,1.8-1.5,2.5-3.2,2.5c-1.3,0-2.6-0.4-3.6-1.2l0.6-1.2c0.4,0.4,1.7,1.1,3,1.1c1.1,0,1.7-0.4,1.7-1.1   c0-0.9-0.9-1.1-2.4-1.5c-1.7-0.5-2.6-1-2.6-2.3c0-1.7,1.4-2.7,3.2-2.7c1.2,0,2.2,0.4,3,1L661.3,223.3z"/>
	<path fill="#FFFFFF" d="M667,229.6c-0.4,0.2-1,0.4-1.7,0.4c-0.8,0-1.6-0.4-1.6-1.5v-4h-0.9v-1h0.9v-2.1h1.4v2.1h1.4v1h-1.4v3.6   c0,0.5,0.3,0.7,0.7,0.7c0.4,0,0.8-0.2,0.9-0.3L667,229.6z"/>
	<path fill="#FFFFFF" d="M667.8,227.5v-4h1.4v3.7c0,1.1,0.4,1.7,1.2,1.7c0.8,0,1.5-0.5,1.9-1.4v-4h1.4v4.9c0,0.3,0.1,0.4,0.4,0.4   v1.2c-0.3,0-0.5,0.1-0.7,0.1c-0.5,0-0.8-0.3-0.9-0.7l0-0.7c-0.6,0.9-1.5,1.4-2.7,1.4C668.5,230.1,667.8,229.2,667.8,227.5z"/>
	<path fill="#FFFFFF" d="M675,226.7c0-1.8,1.2-3.3,2.9-3.3c1,0,1.8,0.6,2.3,1.3V221h1.4v7.4c0,0.3,0.1,0.4,0.4,0.4v1.2   c-0.3,0-0.5,0.1-0.7,0.1c-0.5,0-0.8-0.3-0.9-0.7l0-0.5c-0.5,0.8-1.4,1.3-2.3,1.3C676.3,230.1,675,228.6,675,226.7z M680.2,227.6   V226c-0.3-0.8-1.1-1.4-1.9-1.4c-1.2,0-1.9,1.1-1.9,2.2c0,1.2,0.9,2.2,2,2.2C679.2,228.9,680,228.4,680.2,227.6z"/>
	<path fill="#FFFFFF" d="M682.9,226.8c0-1.8,1.3-3.4,3.4-3.4s3.3,1.6,3.3,3.3c0,0.2,0,0.4,0,0.5h-5.2c0.1,1.1,1,1.9,2,1.9   c0.7,0,1.4-0.4,1.7-1l1.2,0.3c-0.4,1-1.5,1.7-2.9,1.7C684.3,230.1,682.9,228.6,682.9,226.8z M688.3,226.2c-0.1-1.1-0.9-1.9-2-1.9   c-1,0-1.9,0.8-1.9,1.9H688.3z"/>
	<path fill="#FFFFFF" d="M696.5,230h-1.4v-3.6c0-1.2-0.4-1.7-1.2-1.7c-0.8,0-1.7,0.6-1.9,1.5v3.8h-1.4v-6.5h1.2v1.3   c0.5-0.9,1.5-1.4,2.6-1.4c1.6,0,1.9,1.2,1.9,2.6V230z"/>
	<path fill="#FFFFFF" d="M701.6,229.6c-0.4,0.2-1,0.4-1.7,0.4c-0.8,0-1.6-0.4-1.6-1.5v-4h-0.9v-1h0.9v-2.1h1.4v2.1h1.4v1h-1.4v3.6   c0,0.5,0.3,0.7,0.7,0.7c0.4,0,0.8-0.2,0.9-0.3L701.6,229.6z"/>
	<path fill="#FFFFFF" d="M702,229.2l0.6-0.9c0.8,0.5,1.6,0.8,2.4,0.8c0.8,0,1.3-0.3,1.3-0.9c0-0.5-0.5-0.7-1.7-1   c-1.6-0.4-2.3-0.7-2.3-1.7c0-1.3,1.1-2.1,2.5-2.1c0.9,0,1.9,0.3,2.5,0.8l-0.6,0.8c-0.6-0.5-1.3-0.7-2-0.7c-0.7,0-1.2,0.3-1.2,0.9   c0,0.5,0.4,0.7,1.4,0.9c1.8,0.4,2.6,0.8,2.6,1.9c0,1.2-1,2-2.6,2C703.9,230.1,702.7,229.8,702,229.2z"/>
	<path fill="#FFFFFF" d="M715.4,224.7c-1.1,0-1.9,0.5-2.3,1.3v4h-1.4v-6.5h1.3v1.4c0.5-0.9,1.2-1.5,2-1.5c0.2,0,0.3,0,0.3,0V224.7z"/>
	<path fill="#FFFFFF" d="M716,226.8c0-1.8,1.3-3.4,3.4-3.4s3.3,1.6,3.3,3.3c0,0.2,0,0.4,0,0.5h-5.2c0.1,1.1,1,1.9,2,1.9   c0.7,0,1.4-0.4,1.7-1l1.2,0.3c-0.4,1-1.5,1.7-2.9,1.7C717.3,230.1,716,228.6,716,226.8z M721.3,226.2c-0.1-1.1-0.9-1.9-2-1.9   c-1,0-1.9,0.8-1.9,1.9H721.3z"/>
	<path fill="#FFFFFF" d="M726.7,223.4c1.3,0,2.3,0.6,2.8,1.6l-1.3,0.4c-0.3-0.5-0.9-0.9-1.5-0.9c-1.1,0-1.9,0.9-1.9,2.2   c0,1.2,0.9,2.2,1.9,2.2c0.7,0,1.3-0.4,1.5-0.9l1.3,0.4c-0.4,1-1.5,1.7-2.9,1.7c-2,0-3.4-1.6-3.4-3.4   C723.3,224.9,724.6,223.4,726.7,223.4z"/>
	<path fill="#FFFFFF" d="M730.2,226.8c0-1.8,1.3-3.4,3.4-3.4s3.3,1.6,3.3,3.3c0,0.2,0,0.4,0,0.5h-5.2c0.1,1.1,1,1.9,2,1.9   c0.7,0,1.4-0.4,1.7-1l1.2,0.3c-0.4,1-1.5,1.7-2.9,1.7C731.6,230.1,730.2,228.6,730.2,226.8z M735.6,226.2c-0.1-1.1-0.9-1.9-2-1.9   c-1,0-1.9,0.8-1.9,1.9H735.6z"/>
	<path fill="#FFFFFF" d="M738,222.4V221h1.4v1.5H738z M738,230v-6.5h1.4v6.5H738z"/>
	<path fill="#FFFFFF" d="M742.8,230l-2.5-6.5h1.4l1.8,5.3l1.9-5.3h1.3l-2.5,6.5H742.8z"/>
	<path fill="#FFFFFF" d="M747.2,226.8c0-1.8,1.3-3.4,3.4-3.4s3.3,1.6,3.3,3.3c0,0.2,0,0.4,0,0.5h-5.2c0.1,1.1,1,1.9,2,1.9   c0.7,0,1.4-0.4,1.7-1l1.2,0.3c-0.4,1-1.5,1.7-2.9,1.7C748.6,230.1,747.2,228.6,747.2,226.8z M752.6,226.2c-0.1-1.1-0.9-1.9-2-1.9   c-1,0-1.9,0.8-1.9,1.9H752.6z"/>
	<path fill="#FFFFFF" d="M659.1,244.8V236h5.9v1.2h-4.5v2.6h3.7v1.1h-3.7v3.8H659.1z"/>
	<path fill="#FFFFFF" d="M669.7,239.5c-1.1,0-1.9,0.5-2.3,1.3v4h-1.4v-6.5h1.3v1.4c0.5-0.9,1.2-1.5,2-1.5c0.2,0,0.3,0,0.3,0V239.5z"/>
	<path fill="#FFFFFF" d="M670.7,237.3v-1.5h1.4v1.5H670.7z M670.7,244.8v-6.5h1.4v6.5H670.7z"/>
	<path fill="#FFFFFF" d="M673.3,241.6c0-1.8,1.2-3.3,2.9-3.3c1,0,1.8,0.6,2.3,1.3v-3.8h1.4v7.4c0,0.3,0.1,0.4,0.4,0.4v1.2   c-0.3,0-0.5,0.1-0.7,0.1c-0.5,0-0.8-0.3-0.9-0.7l0-0.5c-0.5,0.8-1.4,1.3-2.3,1.3C674.6,244.9,673.3,243.4,673.3,241.6z    M678.5,242.5v-1.7c-0.3-0.8-1.1-1.4-1.9-1.4c-1.2,0-1.9,1.1-1.9,2.2c0,1.2,0.9,2.2,2,2.2C677.4,243.7,678.3,243.2,678.5,242.5z"/>
	<path fill="#FFFFFF" d="M681.2,241.6c0-1.8,1.2-3.3,3-3.3c1.1,0,1.8,0.5,2.3,1.3v-1.2h1.2v6.3c0,1.9-1.5,2.9-3.4,2.9   c-1.4,0-2.3-0.5-3-1.4l0.8-0.7c0.5,0.7,1.3,1.1,2.2,1.1c1.1,0,2.1-0.6,2.1-1.9v-1c-0.5,0.8-1.3,1.2-2.2,1.2   C682.4,244.8,681.2,243.3,681.2,241.6z M686.4,242.5v-1.7c-0.3-0.8-1.1-1.4-1.9-1.4c-1.2,0-1.9,1.1-1.9,2.2c0,1.2,0.9,2.1,2,2.1   C685.4,243.7,686.2,243.1,686.4,242.5z"/>
	<path fill="#FFFFFF" d="M688.9,241.6c0-1.8,1.3-3.4,3.4-3.4s3.3,1.6,3.3,3.3c0,0.2,0,0.4,0,0.5h-5.2c0.1,1.1,1,1.9,2,1.9   c0.7,0,1.4-0.4,1.7-1l1.2,0.3c-0.4,1-1.5,1.7-2.9,1.7C690.3,244.9,688.9,243.4,688.9,241.6z M694.3,241.1c-0.1-1.1-0.9-1.9-2-1.9   c-1,0-1.9,0.8-1.9,1.9H694.3z"/>
	<path fill="#FFFFFF" d="M696.9,244.8V236h3.7c1.6,0,2.7,1.4,2.7,2.9c0,1.5-1.1,2.9-2.6,2.9h-2.4v3H696.9z M698.3,240.5h2.3   c0.8,0,1.3-0.7,1.3-1.6c0-1-0.7-1.6-1.4-1.6h-2.2V240.5z"/>
	<path fill="#FFFFFF" d="M703.8,241.6c0-1.8,1.3-3.3,3.3-3.3c2,0,3.3,1.6,3.3,3.3s-1.3,3.3-3.3,3.3   C705.1,244.9,703.8,243.3,703.8,241.6z M707.1,243.7c1.1,0,1.9-1,1.9-2.2s-0.9-2.2-1.9-2.2c-1.1,0-1.9,1-1.9,2.2   C705.2,242.8,706.1,243.7,707.1,243.7z"/>
	<path fill="#FFFFFF" d="M711.7,237.3v-1.5h1.4v1.5H711.7z M711.7,244.8v-6.5h1.4v6.5H711.7z"/>
	<path fill="#FFFFFF" d="M720.4,244.8h-1.4v-3.6c0-1.2-0.4-1.7-1.2-1.7c-0.8,0-1.7,0.6-1.9,1.5v3.8h-1.4v-6.5h1.2v1.3   c0.5-0.9,1.5-1.4,2.6-1.4c1.6,0,1.9,1.2,1.9,2.6V244.8z"/>
	<path fill="#FFFFFF" d="M725.6,244.4c-0.4,0.2-1,0.4-1.7,0.4c-0.8,0-1.6-0.4-1.6-1.5v-4h-0.9v-1h0.9v-2.1h1.4v2.1h1.4v1h-1.4v3.6   c0,0.5,0.3,0.7,0.7,0.7c0.4,0,0.8-0.2,0.9-0.3L725.6,244.4z"/>
	<path fill="#FFFFFF" d="M725.9,244l0.6-0.9c0.8,0.5,1.6,0.8,2.4,0.8c0.8,0,1.3-0.3,1.3-0.9c0-0.5-0.5-0.7-1.7-1   c-1.6-0.4-2.3-0.7-2.3-1.7c0-1.3,1.1-2.1,2.5-2.1c0.9,0,1.9,0.3,2.5,0.8l-0.6,0.8c-0.6-0.5-1.3-0.7-2-0.7c-0.7,0-1.2,0.3-1.2,0.9   c0,0.5,0.4,0.7,1.4,0.9c1.8,0.4,2.6,0.8,2.6,1.9c0,1.2-1,2-2.6,2C727.8,244.9,726.6,244.6,725.9,244z"/>
	<path fill="#FFFFFF" d="M736.1,244.8v-4.7h-0.9v-1h0.9v-0.9c0-1.6,0.8-2.6,2.1-2.6c0.5,0,1.1,0.1,1.5,0.4l-0.3,1   c-0.2-0.1-0.6-0.3-0.9-0.3c-0.6,0-1,0.5-1,1.4v0.9h1.6v1h-1.6v4.7H736.1z"/>
	<path fill="#FFFFFF" d="M739.7,241.6c0-1.8,1.3-3.3,3.3-3.3c2,0,3.3,1.6,3.3,3.3s-1.3,3.3-3.3,3.3   C741,244.9,739.7,243.3,739.7,241.6z M743.1,243.7c1.1,0,1.9-1,1.9-2.2s-0.9-2.2-1.9-2.2c-1.1,0-1.9,1-1.9,2.2   C741.1,242.8,742,243.7,743.1,243.7z"/>
	<path fill="#FFFFFF" d="M751.2,239.5c-1.1,0-1.9,0.5-2.3,1.3v4h-1.4v-6.5h1.3v1.4c0.5-0.9,1.2-1.5,2-1.5c0.2,0,0.3,0,0.3,0V239.5z"/>
	<path fill="#FFFFFF" d="M652.5,256.4c0-1.8,1.2-3.3,3-3.3c1.1,0,1.8,0.5,2.3,1.3v-1.2h1.2v6.3c0,1.9-1.5,2.9-3.4,2.9   c-1.4,0-2.3-0.5-3-1.4l0.8-0.7c0.5,0.7,1.3,1.1,2.2,1.1c1.1,0,2.1-0.6,2.1-1.9v-1c-0.5,0.8-1.3,1.2-2.2,1.2   C653.7,259.6,652.5,258.1,652.5,256.4z M657.7,257.3v-1.7c-0.3-0.8-1.1-1.4-1.9-1.4c-1.2,0-1.9,1.1-1.9,2.2c0,1.2,0.9,2.1,2,2.1   C656.7,258.5,657.5,257.9,657.7,257.3z"/>
	<path fill="#FFFFFF" d="M660.2,256.4c0-1.8,1.3-3.3,3.3-3.3c2,0,3.3,1.6,3.3,3.3s-1.3,3.3-3.3,3.3   C661.5,259.7,660.2,258.1,660.2,256.4z M663.6,258.5c1.1,0,1.9-1,1.9-2.2s-0.9-2.2-1.9-2.2c-1.1,0-1.9,1-1.9,2.2   C661.6,257.6,662.5,258.5,663.6,258.5z"/>
	<path fill="#FFFFFF" d="M667.7,256.4c0-1.8,1.3-3.3,3.3-3.3c2,0,3.3,1.6,3.3,3.3s-1.3,3.3-3.3,3.3   C669,259.7,667.7,258.1,667.7,256.4z M671,258.5c1.1,0,1.9-1,1.9-2.2s-0.9-2.2-1.9-2.2c-1.1,0-1.9,1-1.9,2.2   C669.1,257.6,669.9,258.5,671,258.5z"/>
	<path fill="#FFFFFF" d="M675.1,256.4c0-1.8,1.2-3.3,2.9-3.3c1,0,1.8,0.6,2.3,1.3v-3.8h1.4v7.4c0,0.3,0.1,0.4,0.4,0.4v1.2   c-0.3,0-0.5,0.1-0.7,0.1c-0.5,0-0.8-0.3-0.9-0.7l0-0.5c-0.5,0.8-1.4,1.3-2.3,1.3C676.4,259.7,675.1,258.2,675.1,256.4z    M680.3,257.3v-1.7c-0.3-0.8-1.1-1.4-1.9-1.4c-1.2,0-1.9,1.1-1.9,2.2c0,1.2,0.9,2.2,2,2.2C679.3,258.5,680.1,258,680.3,257.3z"/>
	<path fill="#FFFFFF" d="M686.1,256.4c0-1.8,1.2-3.3,3-3.3c1.1,0,1.8,0.5,2.3,1.3v-1.2h1.2v6.3c0,1.9-1.5,2.9-3.4,2.9   c-1.4,0-2.3-0.5-3-1.4l0.8-0.7c0.5,0.7,1.3,1.1,2.2,1.1c1.1,0,2.1-0.6,2.1-1.9v-1c-0.5,0.8-1.3,1.2-2.2,1.2   C687.3,259.6,686.1,258.1,686.1,256.4z M691.3,257.3v-1.7c-0.3-0.8-1.1-1.4-1.9-1.4c-1.2,0-1.9,1.1-1.9,2.2c0,1.2,0.9,2.1,2,2.1   C690.3,258.5,691.1,257.9,691.3,257.3z"/>
	<path fill="#FFFFFF" d="M697.9,254.3c-1.1,0-1.9,0.5-2.3,1.3v4h-1.4v-6.5h1.3v1.4c0.5-0.9,1.2-1.5,2-1.5c0.2,0,0.3,0,0.3,0V254.3z"/>
	<path fill="#FFFFFF" d="M698.3,257.7c0-1.2,1.1-2,2.7-2c0.6,0,1.2,0.1,1.7,0.3v-0.4c0-1-0.6-1.5-1.6-1.5c-0.7,0-1.3,0.3-2.1,0.7   l-0.4-0.9c0.8-0.6,1.7-0.8,2.6-0.8c1.8,0,2.8,1,2.8,2.6v2.3c0,0.3,0.1,0.4,0.4,0.4v1.2c-0.3,0-0.5,0.1-0.7,0.1   c-0.5,0-0.8-0.3-0.9-0.7l0-0.4c-0.6,0.8-1.5,1.2-2.4,1.2C699.2,259.7,698.3,258.8,698.3,257.7z M702.5,258c0.2-0.1,0.3-0.3,0.3-0.5   v-0.9c-0.5-0.2-1-0.3-1.5-0.3c-1,0-1.7,0.5-1.7,1.1c0,0.6,0.5,1.1,1.3,1.1C701.5,258.7,702.2,258.4,702.5,258z"/>
	<path fill="#FFFFFF" d="M705.4,256.4c0-1.8,1.2-3.3,2.9-3.3c1,0,1.8,0.6,2.3,1.3v-3.8h1.4v7.4c0,0.3,0.1,0.4,0.4,0.4v1.2   c-0.3,0-0.5,0.1-0.7,0.1c-0.5,0-0.8-0.3-0.9-0.7l0-0.5c-0.5,0.8-1.4,1.3-2.3,1.3C706.6,259.7,705.4,258.2,705.4,256.4z    M710.6,257.3v-1.7c-0.3-0.8-1.1-1.4-1.9-1.4c-1.2,0-1.9,1.1-1.9,2.2c0,1.2,0.9,2.2,2,2.2C709.5,258.5,710.4,258,710.6,257.3z"/>
	<path fill="#FFFFFF" d="M713.3,256.4c0-1.8,1.3-3.4,3.4-3.4s3.3,1.6,3.3,3.3c0,0.2,0,0.4,0,0.5h-5.2c0.1,1.1,1,1.9,2,1.9   c0.7,0,1.4-0.4,1.7-1l1.2,0.3c-0.4,1-1.5,1.7-2.9,1.7C714.6,259.7,713.3,258.2,713.3,256.4z M718.6,255.9c-0.1-1.1-0.9-1.9-2-1.9   c-1,0-1.9,0.8-1.9,1.9H718.6z"/>
	<path fill="#FFFFFF" d="M720.5,258.8l0.6-0.9c0.8,0.5,1.6,0.8,2.4,0.8c0.8,0,1.3-0.3,1.3-0.9c0-0.5-0.5-0.7-1.7-1   c-1.6-0.4-2.3-0.7-2.3-1.7c0-1.3,1.1-2.1,2.5-2.1c0.9,0,1.9,0.3,2.5,0.8l-0.6,0.8c-0.6-0.5-1.3-0.7-2-0.7c-0.7,0-1.2,0.3-1.2,0.9   c0,0.5,0.4,0.7,1.4,0.9c1.8,0.4,2.6,0.8,2.6,1.9c0,1.2-1,2-2.6,2C722.4,259.7,721.2,259.4,720.5,258.8z"/>
	<path fill="#FFFFFF" d="M729.8,257.7c0-1.2,1.1-2,2.7-2c0.6,0,1.2,0.1,1.7,0.3v-0.4c0-1-0.6-1.5-1.6-1.5c-0.7,0-1.3,0.3-2.1,0.7   l-0.4-0.9c0.8-0.6,1.7-0.8,2.6-0.8c1.8,0,2.8,1,2.8,2.6v2.3c0,0.3,0.1,0.4,0.4,0.4v1.2c-0.3,0-0.5,0.1-0.7,0.1   c-0.5,0-0.8-0.3-0.9-0.7l0-0.4c-0.6,0.8-1.5,1.2-2.4,1.2C730.7,259.7,729.8,258.8,729.8,257.7z M734,258c0.2-0.1,0.3-0.3,0.3-0.5   v-0.9c-0.5-0.2-1-0.3-1.5-0.3c-1,0-1.7,0.5-1.7,1.1c0,0.6,0.5,1.1,1.3,1.1C733,258.7,733.7,258.4,734,258z"/>
	<path fill="#FFFFFF" d="M737.6,259.6v-4.7h-0.9v-1h0.9V253c0-1.6,0.8-2.6,2.1-2.6c0.5,0,1.1,0.1,1.5,0.4l-0.3,1   c-0.2-0.1-0.6-0.3-0.9-0.3c-0.6,0-1,0.5-1,1.4v0.9h1.6v1H739v4.7H737.6z"/>
	<path fill="#FFFFFF" d="M745.4,259.2c-0.4,0.2-1,0.4-1.7,0.4c-0.8,0-1.6-0.4-1.6-1.5v-4h-0.9v-1h0.9V251h1.4v2.1h1.4v1h-1.4v3.6   c0,0.5,0.3,0.7,0.7,0.7c0.4,0,0.8-0.2,0.9-0.3L745.4,259.2z"/>
	<path fill="#FFFFFF" d="M745.9,256.4c0-1.8,1.3-3.4,3.4-3.4s3.3,1.6,3.3,3.3c0,0.2,0,0.4,0,0.5h-5.2c0.1,1.1,1,1.9,2,1.9   c0.7,0,1.4-0.4,1.7-1l1.2,0.3c-0.4,1-1.5,1.7-2.9,1.7C747.2,259.7,745.9,258.2,745.9,256.4z M751.2,255.9c-0.1-1.1-0.9-1.9-2-1.9   c-1,0-1.9,0.8-1.9,1.9H751.2z"/>
	<path fill="#FFFFFF" d="M757.3,254.3c-1.1,0-1.9,0.5-2.3,1.3v4h-1.4v-6.5h1.3v1.4c0.5-0.9,1.2-1.5,2-1.5c0.2,0,0.3,0,0.3,0V254.3z"/>
	<path fill="#FFFFFF" d="M659.6,274.4l-2.5-6.5h1.4l1.8,5.3l1.9-5.3h1.3l-2.5,6.5H659.6z"/>
	<path fill="#FFFFFF" d="M664.1,271.2c0-1.8,1.3-3.4,3.4-3.4s3.3,1.6,3.3,3.3c0,0.2,0,0.4,0,0.5h-5.2c0.1,1.1,1,1.9,2,1.9   c0.7,0,1.4-0.4,1.7-1l1.2,0.3c-0.4,1-1.5,1.7-2.9,1.7C665.4,274.5,664.1,273,664.1,271.2z M669.4,270.7c-0.1-1.1-0.9-1.9-2-1.9   c-1,0-1.9,0.8-1.9,1.9H669.4z"/>
	<path fill="#FFFFFF" d="M675.5,269.1c-1.1,0-1.9,0.5-2.3,1.3v4h-1.4v-6.5h1.3v1.4c0.5-0.9,1.2-1.5,2-1.5c0.2,0,0.3,0,0.3,0V269.1z"/>
	<path fill="#FFFFFF" d="M676.5,266.9v-1.5h1.4v1.5H676.5z M676.5,274.4v-6.5h1.4v6.5H676.5z"/>
	<path fill="#FFFFFF" d="M679.8,269.7H679v-1h0.9v-0.9c0-1.3,0.9-2.6,2.5-2.6c0.9,0,1.7,0.3,2.2,0.7l-0.6,1c-0.4-0.3-1-0.6-1.6-0.6   c-0.9,0-1.2,0.7-1.2,1.4v0.9h3.4v5.7h-1.4v-4.7h-2v4.7h-1.4V269.7z"/>
	<path fill="#FFFFFF" d="M689.1,267.8c1.3,0,2.3,0.6,2.8,1.6l-1.3,0.4c-0.3-0.5-0.9-0.9-1.5-0.9c-1.1,0-1.9,0.9-1.9,2.2   c0,1.2,0.9,2.2,1.9,2.2c0.7,0,1.3-0.4,1.5-0.9l1.3,0.4c-0.4,1-1.5,1.7-2.9,1.7c-2,0-3.4-1.6-3.4-3.4   C685.8,269.3,687.1,267.8,689.1,267.8z"/>
	<path fill="#FFFFFF" d="M692.6,272.5c0-1.2,1.1-2,2.7-2c0.6,0,1.2,0.1,1.7,0.3v-0.4c0-1-0.6-1.5-1.6-1.5c-0.7,0-1.3,0.3-2.1,0.7   l-0.4-0.9c0.8-0.6,1.7-0.8,2.6-0.8c1.8,0,2.8,1,2.8,2.6v2.3c0,0.3,0.1,0.4,0.4,0.4v1.2c-0.3,0-0.5,0.1-0.7,0.1   c-0.5,0-0.8-0.3-0.9-0.7l0-0.4c-0.6,0.8-1.5,1.2-2.4,1.2C693.6,274.5,692.6,273.6,692.6,272.5z M696.8,272.8   c0.2-0.1,0.3-0.3,0.3-0.5v-0.9c-0.5-0.2-1-0.3-1.5-0.3c-1,0-1.7,0.5-1.7,1.1c0,0.6,0.5,1.1,1.3,1.1   C695.8,273.5,696.5,273.3,696.8,272.8z"/>
	<path fill="#FFFFFF" d="M703.6,274.1c-0.4,0.2-1,0.4-1.7,0.4c-0.8,0-1.6-0.4-1.6-1.5v-4h-0.9v-1h0.9v-2.1h1.4v2.1h1.4v1h-1.4v3.6   c0,0.5,0.3,0.7,0.7,0.7c0.4,0,0.8-0.2,0.9-0.3L703.6,274.1z"/>
	<path fill="#FFFFFF" d="M704.5,266.9v-1.5h1.4v1.5H704.5z M704.5,274.4v-6.5h1.4v6.5H704.5z"/>
	<path fill="#FFFFFF" d="M707.1,271.2c0-1.8,1.3-3.3,3.3-3.3c2,0,3.3,1.6,3.3,3.3s-1.3,3.3-3.3,3.3   C708.4,274.5,707.1,273,707.1,271.2z M710.4,273.4c1.1,0,1.9-1,1.9-2.2s-0.9-2.2-1.9-2.2c-1.1,0-1.9,1-1.9,2.2   C708.5,272.4,709.3,273.4,710.4,273.4z"/>
	<path fill="#FFFFFF" d="M720.7,274.4h-1.4v-3.6c0-1.2-0.4-1.7-1.2-1.7c-0.8,0-1.7,0.6-1.9,1.5v3.8h-1.4v-6.5h1.2v1.3   c0.5-0.9,1.5-1.4,2.6-1.4c1.6,0,1.9,1.2,1.9,2.6V274.4z"/>
	<path fill="#FFFFFF" d="M725.7,274.4v-4.7h-0.9v-1h0.9v-0.9c0-1.6,0.8-2.6,2.1-2.6c0.5,0,1.1,0.1,1.5,0.4l-0.3,1   c-0.2-0.1-0.6-0.3-0.9-0.3c-0.6,0-1,0.5-1,1.4v0.9h1.6v1H727v4.7H725.7z"/>
	<path fill="#FFFFFF" d="M733.5,269.1c-1.1,0-1.9,0.5-2.3,1.3v4h-1.4v-6.5h1.3v1.4c0.5-0.9,1.2-1.5,2-1.5c0.2,0,0.3,0,0.3,0V269.1z"/>
	<path fill="#FFFFFF" d="M733.8,271.2c0-1.8,1.3-3.3,3.3-3.3c2,0,3.3,1.6,3.3,3.3s-1.3,3.3-3.3,3.3   C735.1,274.5,733.8,273,733.8,271.2z M737.2,273.4c1.1,0,1.9-1,1.9-2.2s-0.9-2.2-1.9-2.2c-1.1,0-1.9,1-1.9,2.2   C735.2,272.4,736.1,273.4,737.2,273.4z"/>
	<path fill="#FFFFFF" d="M751.6,274.4h-1.4v-3.6c0-1.2-0.4-1.7-1.2-1.7c-0.8,0-1.5,0.6-1.8,1.5v3.8h-1.4v-3.6c0-1.2-0.4-1.7-1.2-1.7   s-1.5,0.6-1.8,1.5v3.8h-1.4v-6.5h1.2v1.3c0.5-0.9,1.4-1.4,2.4-1.4c1.1,0,1.7,0.6,1.9,1.5c0.5-1,1.4-1.5,2.4-1.5c1.5,0,2,1.2,2,2.6   V274.4z"/>
	<path fill="#FFFFFF" d="M671.9,288.9c-0.4,0.2-1,0.4-1.7,0.4c-0.8,0-1.6-0.4-1.6-1.5v-4h-0.9v-1h0.9v-2.1h1.4v2.1h1.4v1h-1.4v3.6   c0,0.5,0.3,0.7,0.7,0.7c0.4,0,0.8-0.2,0.9-0.3L671.9,288.9z"/>
	<path fill="#FFFFFF" d="M678.5,289.2h-1.4v-3.6c0-1.2-0.4-1.7-1.2-1.7c-0.7,0-1.6,0.6-1.9,1.5v3.8h-1.4v-9h1.4v3.9   c0.5-0.9,1.4-1.4,2.4-1.4c1.6,0,2,1.2,2,2.6V289.2z"/>
	<path fill="#FFFFFF" d="M679.7,286c0-1.8,1.3-3.4,3.4-3.4s3.3,1.6,3.3,3.3c0,0.2,0,0.4,0,0.5h-5.2c0.1,1.1,1,1.9,2,1.9   c0.7,0,1.4-0.4,1.7-1l1.2,0.3c-0.4,1-1.5,1.7-2.9,1.7C681,289.3,679.7,287.8,679.7,286z M685,285.5c-0.1-1.1-0.9-1.9-2-1.9   c-1,0-1.9,0.8-1.9,1.9H685z"/>
	<path fill="#FFFFFF" d="M687.4,281.7v-1.5h1.4v1.5H687.4z M687.4,289.2v-6.5h1.4v6.5H687.4z"/>
	<path fill="#FFFFFF" d="M694,283.9c-1.1,0-1.9,0.5-2.3,1.3v4h-1.4v-6.5h1.3v1.4c0.5-0.9,1.2-1.5,2-1.5c0.2,0,0.3,0,0.3,0V283.9z"/>
	<path fill="#FFFFFF" d="M701.4,288.9c-0.4,0.2-1,0.4-1.7,0.4c-0.8,0-1.6-0.4-1.6-1.5v-4h-0.9v-1h0.9v-2.1h1.4v2.1h1.4v1h-1.4v3.6   c0,0.5,0.3,0.7,0.7,0.7c0.4,0,0.8-0.2,0.9-0.3L701.4,288.9z"/>
	<path fill="#FFFFFF" d="M701.9,286c0-1.8,1.3-3.4,3.4-3.4s3.3,1.6,3.3,3.3c0,0.2,0,0.4,0,0.5h-5.2c0.1,1.1,1,1.9,2,1.9   c0.7,0,1.4-0.4,1.7-1l1.2,0.3c-0.4,1-1.5,1.7-2.9,1.7C703.2,289.3,701.9,287.8,701.9,286z M707.2,285.5c-0.1-1.1-0.9-1.9-2-1.9   c-1,0-1.9,0.8-1.9,1.9H707.2z"/>
	<path fill="#FFFFFF" d="M709.2,287.3c0-1.2,1.1-2,2.7-2c0.6,0,1.2,0.1,1.7,0.3v-0.4c0-1-0.6-1.5-1.6-1.5c-0.7,0-1.3,0.3-2.1,0.7   l-0.4-0.9c0.8-0.6,1.7-0.8,2.6-0.8c1.8,0,2.8,1,2.8,2.6v2.3c0,0.3,0.1,0.4,0.4,0.4v1.2c-0.3,0-0.5,0.1-0.7,0.1   c-0.5,0-0.8-0.3-0.9-0.7l0-0.4c-0.6,0.8-1.5,1.2-2.4,1.2C710.2,289.3,709.2,288.4,709.2,287.3z M713.4,287.6   c0.2-0.1,0.3-0.3,0.3-0.5v-0.9c-0.5-0.2-1-0.3-1.5-0.3c-1,0-1.7,0.5-1.7,1.1c0,0.6,0.5,1.1,1.3,1.1   C712.4,288.3,713.1,288.1,713.4,287.6z"/>
	<path fill="#FFFFFF" d="M719.6,282.6c1.3,0,2.3,0.6,2.8,1.6l-1.3,0.4c-0.3-0.5-0.9-0.9-1.5-0.9c-1.1,0-1.9,0.9-1.9,2.2   c0,1.2,0.9,2.2,1.9,2.2c0.7,0,1.3-0.4,1.5-0.9l1.3,0.4c-0.4,1-1.5,1.7-2.9,1.7c-2,0-3.4-1.6-3.4-3.4   C716.3,284.1,717.6,282.6,719.6,282.6z"/>
	<path fill="#FFFFFF" d="M729.4,289.2H728v-3.6c0-1.2-0.4-1.7-1.2-1.7c-0.7,0-1.6,0.6-1.9,1.5v3.8h-1.4v-9h1.4v3.9   c0.5-0.9,1.4-1.4,2.4-1.4c1.6,0,2,1.2,2,2.6V289.2z"/>
	<path fill="#FFFFFF" d="M730.5,286c0-1.8,1.3-3.4,3.4-3.4s3.3,1.6,3.3,3.3c0,0.2,0,0.4,0,0.5H732c0.1,1.1,1,1.9,2,1.9   c0.7,0,1.4-0.4,1.7-1l1.2,0.3c-0.4,1-1.5,1.7-2.9,1.7C731.9,289.3,730.5,287.8,730.5,286z M735.9,285.5c-0.1-1.1-0.9-1.9-2-1.9   c-1,0-1.9,0.8-1.9,1.9H735.9z"/>
	<path fill="#FFFFFF" d="M741.9,283.9c-1.1,0-1.9,0.5-2.3,1.3v4h-1.4v-6.5h1.3v1.4c0.5-0.9,1.2-1.5,2-1.5c0.2,0,0.3,0,0.3,0V283.9z"/>
</g>
<g>
	<path fill="#FFFFFF" d="M282.8,222.7c-0.3-0.4-1.3-0.9-2.4-0.9c-1.1,0-1.7,0.5-1.7,1.2c0,0.8,0.7,1,2.2,1.4   c1.7,0.4,2.9,0.9,2.9,2.5c0,1.8-1.5,2.5-3.2,2.5c-1.3,0-2.6-0.4-3.6-1.2l0.6-1.2c0.4,0.4,1.7,1.1,3,1.1c1.1,0,1.7-0.4,1.7-1.1   c0-0.9-0.9-1.1-2.4-1.5c-1.7-0.5-2.6-1-2.6-2.3c0-1.7,1.4-2.7,3.2-2.7c1.2,0,2.2,0.4,3,1L282.8,222.7z"/>
	<path fill="#FFFFFF" d="M288.5,229.1c-0.4,0.2-1,0.4-1.7,0.4c-0.8,0-1.6-0.4-1.6-1.5v-4h-0.9v-1h0.9v-2.1h1.4v2.1h1.4v1h-1.4v3.6   c0,0.5,0.3,0.7,0.7,0.7c0.4,0,0.8-0.2,0.9-0.3L288.5,229.1z"/>
	<path fill="#FFFFFF" d="M289.3,226.9v-4h1.4v3.7c0,1.1,0.4,1.7,1.2,1.7c0.8,0,1.5-0.5,1.9-1.4v-4h1.4v4.9c0,0.3,0.1,0.4,0.4,0.4   v1.2c-0.3,0-0.5,0.1-0.7,0.1c-0.5,0-0.8-0.3-0.9-0.7l0-0.7c-0.6,0.9-1.5,1.4-2.7,1.4C290,229.5,289.3,228.6,289.3,226.9z"/>
	<path fill="#FFFFFF" d="M296.5,226.2c0-1.8,1.2-3.3,2.9-3.3c1,0,1.8,0.6,2.3,1.3v-3.8h1.4v7.4c0,0.3,0.1,0.4,0.4,0.4v1.2   c-0.3,0-0.5,0.1-0.7,0.1c-0.5,0-0.8-0.3-0.9-0.7l0-0.5c-0.5,0.8-1.4,1.3-2.3,1.3C297.8,229.5,296.5,228,296.5,226.2z M301.7,227.1   v-1.7c-0.3-0.8-1.1-1.4-1.9-1.4c-1.2,0-1.9,1.1-1.9,2.2c0,1.2,0.9,2.2,2,2.2C300.6,228.4,301.5,227.8,301.7,227.1z"/>
	<path fill="#FFFFFF" d="M304.4,226.2c0-1.8,1.3-3.4,3.4-3.4s3.3,1.6,3.3,3.3c0,0.2,0,0.4,0,0.5h-5.2c0.1,1.1,1,1.9,2,1.9   c0.7,0,1.4-0.4,1.7-1l1.2,0.3c-0.4,1-1.5,1.7-2.9,1.7C305.8,229.5,304.4,228,304.4,226.2z M309.7,225.7c-0.1-1.1-0.9-1.9-2-1.9   c-1,0-1.9,0.8-1.9,1.9H309.7z"/>
	<path fill="#FFFFFF" d="M318,229.4h-1.4v-3.6c0-1.2-0.4-1.7-1.2-1.7c-0.8,0-1.7,0.6-1.9,1.5v3.8h-1.4V223h1.2v1.3   c0.5-0.9,1.5-1.4,2.6-1.4c1.6,0,1.9,1.2,1.9,2.6V229.4z"/>
	<path fill="#FFFFFF" d="M323.1,229.1c-0.4,0.2-1,0.4-1.7,0.4c-0.8,0-1.6-0.4-1.6-1.5v-4H319v-1h0.9v-2.1h1.4v2.1h1.4v1h-1.4v3.6   c0,0.5,0.3,0.7,0.7,0.7c0.4,0,0.8-0.2,0.9-0.3L323.1,229.1z"/>
	<path fill="#FFFFFF" d="M323.5,228.6l0.6-0.9c0.8,0.5,1.6,0.8,2.4,0.8c0.8,0,1.3-0.3,1.3-0.9c0-0.5-0.5-0.7-1.7-1   c-1.6-0.4-2.3-0.7-2.3-1.7c0-1.3,1.1-2.1,2.5-2.1c0.9,0,1.9,0.3,2.5,0.8l-0.6,0.8c-0.6-0.5-1.3-0.7-2-0.7c-0.7,0-1.2,0.3-1.2,0.9   c0,0.5,0.4,0.7,1.4,0.9c1.8,0.4,2.6,0.8,2.6,1.9c0,1.2-1,2-2.6,2C325.4,229.5,324.2,229.2,323.5,228.6z"/>
	<path fill="#FFFFFF" d="M275.2,238.9c-1.1,0-1.9,0.5-2.3,1.3v4h-1.4v-6.5h1.3v1.4c0.5-0.9,1.2-1.5,2-1.5c0.2,0,0.3,0,0.3,0V238.9z"/>
	<path fill="#FFFFFF" d="M275.8,241c0-1.8,1.3-3.4,3.4-3.4s3.3,1.6,3.3,3.3c0,0.2,0,0.4,0,0.5h-5.2c0.1,1.1,1,1.9,2,1.9   c0.7,0,1.4-0.4,1.7-1l1.2,0.3c-0.4,1-1.5,1.7-2.9,1.7C277.2,244.3,275.8,242.8,275.8,241z M281.1,240.5c-0.1-1.1-0.9-1.9-2-1.9   c-1,0-1.9,0.8-1.9,1.9H281.1z"/>
	<path fill="#FFFFFF" d="M283.2,241c0-1.8,1.2-3.3,3-3.3c1.1,0,1.8,0.5,2.3,1.3v-1.2h1.2v6.3c0,1.9-1.5,2.9-3.4,2.9   c-1.4,0-2.3-0.5-3-1.4l0.8-0.7c0.5,0.7,1.3,1.1,2.2,1.1c1.1,0,2.1-0.6,2.1-1.9v-1c-0.5,0.8-1.3,1.2-2.2,1.2   C284.4,244.3,283.2,242.7,283.2,241z M288.4,241.9v-1.7c-0.3-0.8-1.1-1.4-1.9-1.4c-1.2,0-1.9,1.1-1.9,2.2c0,1.2,0.9,2.1,2,2.1   C287.4,243.2,288.2,242.6,288.4,241.9z"/>
	<path fill="#FFFFFF" d="M291.3,236.7v-1.5h1.4v1.5H291.3z M291.3,244.2v-6.5h1.4v6.5H291.3z"/>
	<path fill="#FFFFFF" d="M293.8,243.4l0.6-0.9c0.8,0.5,1.6,0.8,2.4,0.8c0.8,0,1.3-0.3,1.3-0.9c0-0.5-0.5-0.7-1.7-1   c-1.6-0.4-2.3-0.7-2.3-1.7c0-1.3,1.1-2.1,2.5-2.1c0.9,0,1.9,0.3,2.5,0.8l-0.6,0.8c-0.6-0.5-1.3-0.7-2-0.7c-0.7,0-1.2,0.3-1.2,0.9   c0,0.5,0.4,0.7,1.4,0.9c1.8,0.4,2.6,0.8,2.6,1.9c0,1.2-1,2-2.6,2C295.7,244.3,294.5,244,293.8,243.4z"/>
	<path fill="#FFFFFF" d="M304.1,243.9c-0.4,0.2-1,0.4-1.7,0.4c-0.8,0-1.6-0.4-1.6-1.5v-4h-0.9v-1h0.9v-2.1h1.4v2.1h1.4v1h-1.4v3.6   c0,0.5,0.3,0.7,0.7,0.7c0.4,0,0.8-0.2,0.9-0.3L304.1,243.9z"/>
	<path fill="#FFFFFF" d="M304.6,241c0-1.8,1.3-3.4,3.4-3.4s3.3,1.6,3.3,3.3c0,0.2,0,0.4,0,0.5H306c0.1,1.1,1,1.9,2,1.9   c0.7,0,1.4-0.4,1.7-1l1.2,0.3c-0.4,1-1.5,1.7-2.9,1.7C305.9,244.3,304.6,242.8,304.6,241z M309.9,240.5c-0.1-1.1-0.9-1.9-2-1.9   c-1,0-1.9,0.8-1.9,1.9H309.9z"/>
	<path fill="#FFFFFF" d="M315.9,238.9c-1.1,0-1.9,0.5-2.3,1.3v4h-1.4v-6.5h1.3v1.4c0.5-0.9,1.2-1.5,2-1.5c0.2,0,0.3,0,0.3,0V238.9z"/>
	<path fill="#FFFFFF" d="M320.1,244.2v-4.7h-0.9v-1h0.9v-0.9c0-1.6,0.8-2.6,2.1-2.6c0.5,0,1.1,0.1,1.5,0.4l-0.3,1   c-0.2-0.1-0.6-0.3-0.9-0.3c-0.6,0-1,0.5-1,1.4v0.9h1.6v1h-1.6v4.7H320.1z"/>
	<path fill="#FFFFFF" d="M323.8,241c0-1.8,1.3-3.3,3.3-3.3c2,0,3.3,1.6,3.3,3.3s-1.3,3.3-3.3,3.3C325.1,244.3,323.8,242.8,323.8,241   z M327.1,243.2c1.1,0,1.9-1,1.9-2.2s-0.9-2.2-1.9-2.2c-1.1,0-1.9,1-1.9,2.2C325.2,242.3,326.1,243.2,327.1,243.2z"/>
	<path fill="#FFFFFF" d="M335.3,238.9c-1.1,0-1.9,0.5-2.3,1.3v4h-1.4v-6.5h1.3v1.4c0.5-0.9,1.2-1.5,2-1.5c0.2,0,0.3,0,0.3,0V238.9z"/>
	<path fill="#FFFFFF" d="M264.3,259v-8.8h5.9v1.2h-4.5v2.6h3.7v1.1h-3.7v3.8H264.3z"/>
	<path fill="#FFFFFF" d="M274.8,253.8c-1.1,0-1.9,0.5-2.3,1.3v4h-1.4v-6.5h1.3v1.4c0.5-0.9,1.2-1.5,2-1.5c0.2,0,0.3,0,0.3,0V253.8z"/>
	<path fill="#FFFFFF" d="M275.8,251.5V250h1.4v1.5H275.8z M275.8,259v-6.5h1.4v6.5H275.8z"/>
	<path fill="#FFFFFF" d="M278.4,255.8c0-1.8,1.2-3.3,2.9-3.3c1,0,1.8,0.6,2.3,1.3V250h1.4v7.4c0,0.3,0.1,0.4,0.4,0.4v1.2   c-0.3,0-0.5,0.1-0.7,0.1c-0.5,0-0.8-0.3-0.9-0.7l0-0.5c-0.5,0.8-1.4,1.3-2.3,1.3C279.7,259.2,278.4,257.6,278.4,255.8z    M283.6,256.7V255c-0.3-0.8-1.1-1.4-1.9-1.4c-1.2,0-1.9,1.1-1.9,2.2c0,1.2,0.9,2.2,2,2.2C282.5,258,283.4,257.4,283.6,256.7z"/>
	<path fill="#FFFFFF" d="M286.3,255.8c0-1.8,1.2-3.3,3-3.3c1.1,0,1.8,0.5,2.3,1.3v-1.2h1.2v6.3c0,1.9-1.5,2.9-3.4,2.9   c-1.4,0-2.3-0.5-3-1.4l0.8-0.7c0.5,0.7,1.3,1.1,2.2,1.1c1.1,0,2.1-0.6,2.1-1.9v-1c-0.5,0.8-1.3,1.2-2.2,1.2   C287.5,259.1,286.3,257.6,286.3,255.8z M291.5,256.7V255c-0.3-0.8-1.1-1.4-1.9-1.4c-1.2,0-1.9,1.1-1.9,2.2c0,1.2,0.9,2.1,2,2.1   C290.5,258,291.3,257.4,291.5,256.7z"/>
	<path fill="#FFFFFF" d="M294.1,255.8c0-1.8,1.3-3.4,3.4-3.4s3.3,1.6,3.3,3.3c0,0.2,0,0.4,0,0.5h-5.2c0.1,1.1,1,1.9,2,1.9   c0.7,0,1.4-0.4,1.7-1l1.2,0.3c-0.4,1-1.5,1.7-2.9,1.7C295.4,259.2,294.1,257.6,294.1,255.8z M299.4,255.3c-0.1-1.1-0.9-1.9-2-1.9   c-1,0-1.9,0.8-1.9,1.9H299.4z"/>
	<path fill="#FFFFFF" d="M304.4,250.3h1.3l1.1,3l1.1-3h1.3l-1.5,3.9l1.3,3.2l2.7-7.2h1.5l-3.6,8.8h-1.2l-1.6-3.9l-1.6,3.9H304   l-3.6-8.8h1.5l2.8,7.2l1.3-3.2L304.4,250.3z"/>
	<path fill="#FFFFFF" d="M312.9,255.8c0-1.8,1.3-3.3,3.3-3.3c2,0,3.3,1.6,3.3,3.3s-1.3,3.3-3.3,3.3   C314.2,259.2,312.9,257.6,312.9,255.8z M316.2,258c1.1,0,1.9-1,1.9-2.2s-0.9-2.2-1.9-2.2c-1.1,0-1.9,1-1.9,2.2   C314.3,257.1,315.2,258,316.2,258z"/>
	<path fill="#FFFFFF" d="M324.4,253.8c-1.1,0-1.9,0.5-2.3,1.3v4h-1.4v-6.5h1.3v1.4c0.5-0.9,1.2-1.5,2-1.5c0.2,0,0.3,0,0.3,0V253.8z"/>
	<path fill="#FFFFFF" d="M329,258.7c-0.4,0.2-1,0.4-1.7,0.4c-0.8,0-1.6-0.4-1.6-1.5v-4h-0.9v-1h0.9v-2.1h1.4v2.1h1.4v1h-1.4v3.6   c0,0.5,0.3,0.7,0.7,0.7c0.4,0,0.8-0.2,0.9-0.3L329,258.7z"/>
	<path fill="#FFFFFF" d="M335.7,259h-1.4v-3.6c0-1.2-0.4-1.7-1.2-1.7c-0.7,0-1.6,0.6-1.9,1.5v3.8h-1.4v-9h1.4v3.9   c0.5-0.9,1.4-1.4,2.4-1.4c1.6,0,2,1.2,2,2.6V259z"/>
	<path fill="#FFFFFF" d="M337.3,260.6c0.2,0,0.4,0.1,0.6,0.1c0.4,0,0.6-0.1,1.1-1.6l-2.6-6.5h1.4l2,5.3l1.8-5.3h1.3l-3,8   c-0.3,0.9-1,1.3-1.9,1.3c-0.3,0-0.5,0-0.7-0.1V260.6z"/>
	<path fill="#FFFFFF" d="M273,273.5c-0.4,0.2-1,0.4-1.7,0.4c-0.8,0-1.6-0.4-1.6-1.5v-4h-0.9v-1h0.9v-2.1h1.4v2.1h1.4v1h-1.4v3.6   c0,0.5,0.3,0.7,0.7,0.7c0.4,0,0.8-0.2,0.9-0.3L273,273.5z"/>
	<path fill="#FFFFFF" d="M279.7,273.8h-1.4v-3.6c0-1.2-0.4-1.7-1.2-1.7c-0.7,0-1.6,0.6-1.9,1.5v3.8h-1.4v-9h1.4v3.9   c0.5-0.9,1.4-1.4,2.4-1.4c1.6,0,2,1.2,2,2.6V273.8z"/>
	<path fill="#FFFFFF" d="M284.9,268.6c-1.1,0-1.9,0.5-2.3,1.3v4h-1.4v-6.5h1.3v1.4c0.5-0.9,1.2-1.5,2-1.5c0.2,0,0.3,0,0.3,0V268.6z"/>
	<path fill="#FFFFFF" d="M285.3,270.6c0-1.8,1.3-3.3,3.3-3.3c2,0,3.3,1.6,3.3,3.3s-1.3,3.3-3.3,3.3   C286.6,274,285.3,272.4,285.3,270.6z M288.6,272.8c1.1,0,1.9-1,1.9-2.2s-0.9-2.2-1.9-2.2c-1.1,0-1.9,1-1.9,2.2   C286.7,271.9,287.5,272.8,288.6,272.8z"/>
	<path fill="#FFFFFF" d="M293,271.3v-4h1.4v3.7c0,1.1,0.4,1.7,1.2,1.7c0.8,0,1.5-0.5,1.9-1.4v-4h1.4v4.9c0,0.3,0.1,0.4,0.4,0.4v1.2   c-0.3,0-0.5,0.1-0.7,0.1c-0.5,0-0.8-0.3-0.9-0.7l0-0.7c-0.6,0.9-1.5,1.4-2.7,1.4C293.8,274,293,273.1,293,271.3z"/>
	<path fill="#FFFFFF" d="M300.3,270.6c0-1.8,1.2-3.3,3-3.3c1.1,0,1.8,0.5,2.3,1.3v-1.2h1.2v6.3c0,1.9-1.5,2.9-3.4,2.9   c-1.4,0-2.3-0.5-3-1.4l0.8-0.7c0.5,0.7,1.3,1.1,2.2,1.1c1.1,0,2.1-0.6,2.1-1.9v-1c-0.5,0.8-1.3,1.2-2.2,1.2   C301.5,273.9,300.3,272.4,300.3,270.6z M305.5,271.5v-1.7c-0.3-0.8-1.1-1.4-1.9-1.4c-1.2,0-1.9,1.1-1.9,2.2c0,1.2,0.9,2.1,2,2.1   C304.5,272.8,305.3,272.2,305.5,271.5z"/>
	<path fill="#FFFFFF" d="M314.2,273.8h-1.4v-3.6c0-1.2-0.4-1.7-1.2-1.7c-0.7,0-1.6,0.6-1.9,1.5v3.8h-1.4v-9h1.4v3.9   c0.5-0.9,1.4-1.4,2.4-1.4c1.6,0,2,1.2,2,2.6V273.8z"/>
	<path fill="#FFFFFF" d="M318.4,270.6c0-1.8,1.3-3.3,3.3-3.3c2,0,3.3,1.6,3.3,3.3s-1.3,3.3-3.3,3.3   C319.7,274,318.4,272.4,318.4,270.6z M321.7,272.8c1.1,0,1.9-1,1.9-2.2s-0.9-2.2-1.9-2.2c-1.1,0-1.9,1-1.9,2.2   C319.8,271.9,320.7,272.8,321.7,272.8z"/>
	<path fill="#FFFFFF" d="M326.2,271.3v-4h1.4v3.7c0,1.1,0.4,1.7,1.2,1.7c0.8,0,1.5-0.5,1.9-1.4v-4h1.4v4.9c0,0.3,0.1,0.4,0.4,0.4   v1.2c-0.3,0-0.5,0.1-0.7,0.1c-0.5,0-0.8-0.3-0.9-0.7l0-0.7c-0.6,0.9-1.5,1.4-2.7,1.4C326.9,274,326.2,273.1,326.2,271.3z"/>
	<path fill="#FFFFFF" d="M337.5,268.6c-1.1,0-1.9,0.5-2.3,1.3v4h-1.4v-6.5h1.3v1.4c0.5-0.9,1.2-1.5,2-1.5c0.2,0,0.3,0,0.3,0V268.6z"/>
	<path fill="#FFFFFF" d="M266.5,285.4c0-1.8,1.3-3.3,3.3-3.3c2,0,3.3,1.6,3.3,3.3s-1.3,3.3-3.3,3.3   C267.8,288.8,266.5,287.2,266.5,285.4z M269.8,287.6c1.1,0,1.9-1,1.9-2.2s-0.9-2.2-1.9-2.2c-1.1,0-1.9,1-1.9,2.2   C267.9,286.7,268.7,287.6,269.8,287.6z"/>
	<path fill="#FFFFFF" d="M280.1,288.7h-1.4V285c0-1.2-0.4-1.7-1.2-1.7c-0.8,0-1.7,0.6-1.9,1.5v3.8h-1.4v-6.5h1.2v1.3   c0.5-0.9,1.5-1.4,2.6-1.4c1.6,0,1.9,1.2,1.9,2.6V288.7z"/>
	<path fill="#FFFFFF" d="M281.7,279.6h1.4v7.1c0,0.5,0.3,0.8,0.7,0.8c0.2,0,0.5-0.1,0.7-0.2l0.2,1.1c-0.4,0.2-1,0.3-1.4,0.3   c-0.9,0-1.5-0.5-1.5-1.5V279.6z"/>
	<path fill="#FFFFFF" d="M285.3,281.1v-1.5h1.4v1.5H285.3z M285.3,288.7v-6.5h1.4v6.5H285.3z"/>
	<path fill="#FFFFFF" d="M294.1,288.7h-1.4V285c0-1.2-0.4-1.7-1.2-1.7c-0.8,0-1.7,0.6-1.9,1.5v3.8h-1.4v-6.5h1.2v1.3   c0.5-0.9,1.5-1.4,2.6-1.4c1.6,0,1.9,1.2,1.9,2.6V288.7z"/>
	<path fill="#FFFFFF" d="M295.2,285.4c0-1.8,1.3-3.4,3.4-3.4s3.3,1.6,3.3,3.3c0,0.2,0,0.4,0,0.5h-5.2c0.1,1.1,1,1.9,2,1.9   c0.7,0,1.4-0.4,1.7-1l1.2,0.3c-0.4,1-1.5,1.7-2.9,1.7C296.6,288.8,295.2,287.2,295.2,285.4z M300.6,284.9c-0.1-1.1-0.9-1.9-2-1.9   c-1,0-1.9,0.8-1.9,1.9H300.6z"/>
	<path fill="#FFFFFF" d="M307.4,287.4v3.8H306v-9.1h1.2v1.2c0.5-0.8,1.3-1.3,2.3-1.3c1.8,0,3,1.5,3,3.3c0,1.9-1.2,3.4-2.9,3.4   C308.7,288.8,307.9,288.2,307.4,287.4z M311.2,285.4c0-1.2-0.9-2.2-2-2.2c-0.7,0-1.6,0.6-1.8,1.3v1.7c0.3,0.8,1.1,1.4,1.9,1.4   C310.4,287.6,311.2,286.5,311.2,285.4z"/>
	<path fill="#FFFFFF" d="M313.4,285.4c0-1.8,1.3-3.3,3.3-3.3c2,0,3.3,1.6,3.3,3.3s-1.3,3.3-3.3,3.3   C314.7,288.8,313.4,287.2,313.4,285.4z M316.7,287.6c1.1,0,1.9-1,1.9-2.2s-0.9-2.2-1.9-2.2c-1.1,0-1.9,1-1.9,2.2   C314.8,286.7,315.6,287.6,316.7,287.6z"/>
	<path fill="#FFFFFF" d="M324.8,283.4c-1.1,0-1.9,0.5-2.3,1.3v4h-1.4v-6.5h1.3v1.4c0.5-0.9,1.2-1.5,2-1.5c0.2,0,0.3,0,0.3,0V283.4z"/>
	<path fill="#FFFFFF" d="M329.5,288.3c-0.4,0.2-1,0.4-1.7,0.4c-0.8,0-1.6-0.4-1.6-1.5v-4h-0.9v-1h0.9v-2.1h1.4v2.1h1.4v1h-1.4v3.6   c0,0.5,0.3,0.7,0.7,0.7c0.4,0,0.8-0.2,0.9-0.3L329.5,288.3z"/>
	<path fill="#FFFFFF" d="M329.9,286.8c0-1.2,1.1-2,2.7-2c0.6,0,1.2,0.1,1.7,0.3v-0.4c0-1-0.6-1.5-1.6-1.5c-0.7,0-1.3,0.3-2.1,0.7   l-0.4-0.9c0.8-0.6,1.7-0.8,2.6-0.8c1.8,0,2.8,1,2.8,2.6v2.3c0,0.3,0.1,0.4,0.4,0.4v1.2c-0.3,0-0.5,0.1-0.7,0.1   c-0.5,0-0.8-0.3-0.9-0.7l0-0.4c-0.6,0.8-1.5,1.2-2.4,1.2C330.8,288.8,329.9,287.9,329.9,286.8z M334.1,287.1   c0.2-0.1,0.3-0.3,0.3-0.5v-0.9c-0.5-0.2-1-0.3-1.5-0.3c-1,0-1.7,0.5-1.7,1.1c0,0.6,0.5,1.1,1.3,1.1   C333.1,287.8,333.8,287.5,334.1,287.1z"/>
	<path fill="#FFFFFF" d="M337.4,279.6h1.4v7.1c0,0.5,0.3,0.8,0.7,0.8c0.2,0,0.5-0.1,0.7-0.2l0.2,1.1c-0.4,0.2-1,0.3-1.4,0.3   c-0.9,0-1.5-0.5-1.5-1.5V279.6z"/>
</g>
<g>
	<path fill="#FFFFFF" d="M523,223.2c-0.3-0.4-1.3-0.9-2.4-0.9c-1.1,0-1.7,0.5-1.7,1.2c0,0.8,0.7,1,2.2,1.4c1.7,0.4,2.9,0.9,2.9,2.5   c0,1.8-1.5,2.5-3.2,2.5c-1.3,0-2.6-0.4-3.6-1.2l0.6-1.2c0.4,0.4,1.7,1.1,3,1.1c1.1,0,1.7-0.4,1.7-1.1c0-0.9-0.9-1.1-2.4-1.5   c-1.7-0.5-2.6-1-2.6-2.3c0-1.7,1.4-2.7,3.2-2.7c1.2,0,2.2,0.4,3,1L523,223.2z"/>
	<path fill="#FFFFFF" d="M528.6,229.6c-0.4,0.2-1,0.4-1.7,0.4c-0.8,0-1.6-0.4-1.6-1.5v-4h-0.9v-1h0.9v-2.1h1.4v2.1h1.4v1h-1.4v3.6   c0,0.5,0.3,0.7,0.7,0.7c0.4,0,0.8-0.2,0.9-0.3L528.6,229.6z"/>
	<path fill="#FFFFFF" d="M529.5,227.4v-4h1.4v3.7c0,1.1,0.4,1.7,1.2,1.7c0.8,0,1.5-0.5,1.9-1.4v-4h1.4v4.9c0,0.3,0.1,0.4,0.4,0.4   v1.2c-0.3,0-0.5,0.1-0.7,0.1c-0.5,0-0.8-0.3-0.9-0.7l0-0.7c-0.6,0.9-1.5,1.4-2.7,1.4C530.2,230,529.5,229.1,529.5,227.4z"/>
	<path fill="#FFFFFF" d="M536.7,226.7c0-1.8,1.2-3.3,2.9-3.3c1,0,1.8,0.6,2.3,1.3v-3.8h1.4v7.4c0,0.3,0.1,0.4,0.4,0.4v1.2   c-0.3,0-0.5,0.1-0.7,0.1c-0.5,0-0.8-0.3-0.9-0.7l0-0.5c-0.5,0.8-1.4,1.3-2.3,1.3C538,230,536.7,228.5,536.7,226.7z M541.9,227.6   v-1.7c-0.3-0.8-1.1-1.4-1.9-1.4c-1.2,0-1.9,1.1-1.9,2.2c0,1.2,0.9,2.2,2,2.2C540.8,228.8,541.7,228.3,541.9,227.6z"/>
	<path fill="#FFFFFF" d="M544.6,226.7c0-1.8,1.3-3.4,3.4-3.4s3.3,1.6,3.3,3.3c0,0.2,0,0.4,0,0.5h-5.2c0.1,1.1,1,1.9,2,1.9   c0.7,0,1.4-0.4,1.7-1l1.2,0.3c-0.4,1-1.5,1.7-2.9,1.7C545.9,230,544.6,228.5,544.6,226.7z M549.9,226.2c-0.1-1.1-0.9-1.9-2-1.9   c-1,0-1.9,0.8-1.9,1.9H549.9z"/>
	</g></svg>