<?xml version="1.0" encoding="utf-8"?>
<!-- Generator: Adobe Illustrator 15.0.0, SVG Export Plug-In . SVG Version: 6.00 Build 0)  -->
<!DOCTYPE svg PUBLIC "-//W3C//DTD SVG 1.1//EN" "http://www.w3.org/Graphics/SVG/1.1/DTD/svg11.dtd">
<svg version="1.1" id="Layer_1" xmlns="http://www.w3.org/2000/svg" xmlns:xlink="http://www.w3.org/1999/xlink" x="0px" y="0px"
	 width="200px" height="200px" viewBox="0 0 200 200" enable-background="new 0 0 200 200" xml:space="preserve">
<path fill="#01AEF0" d="M198.5,99.5c0,54.672-44.329,99-99.006,99c-54.677,0-98.994-44.328-98.994-99s44.317-99,98.994-99
	C154.171,0.5,198.5,44.828,198.5,99.5z"/>
<path fill="#2690BE" d="M85.564,33.572c-0.997,0-1.778-0.803-1.778-1.829v-1.52c0-0.857,0.545-1.706,1.327-2.062l13.807-6.258
	c0.389-0.18,0.796-0.219,1.067-0.219c0.269,0,0.673,0.038,1.074,0.221l13.799,6.255c0.785,0.358,1.33,1.206,1.33,2.063v1.52
	c0,1.025-0.78,1.828-1.777,1.828c-0.271,0-0.537-0.059-0.793-0.175L99.99,27.217l-13.633,6.181
	C86.104,33.512,85.836,33.572,85.564,33.572C85.565,33.572,85.565,33.572,85.564,33.572z"/>
<path fill="#EE7830" d="M99.539,25.773c0.245-0.11,0.649-0.11,0.897,0l13.804,6.258c0.246,0.112,0.449-0.021,0.449-0.288v-1.52
	c0-0.271-0.203-0.585-0.449-0.697l-13.804-6.257c-0.248-0.113-0.652-0.113-0.897,0l-13.804,6.257
	c-0.246,0.112-0.449,0.427-0.449,0.697v1.52c0,0.27,0.202,0.401,0.449,0.288L99.539,25.773z"/>
<path fill="#2690BE" d="M101.938,60.324v-7.565h-3.902v7.565H77.658c-1.099,0-1.992-0.894-1.992-1.993V38.315
	c0-1.099,0.894-1.992,1.992-1.992h6.128v-1.956c0-0.861,0.547-1.709,1.331-2.064l13.802-6.258c0.396-0.18,0.799-0.217,1.067-0.217
	c0.267,0,0.668,0.037,1.064,0.215l13.81,6.261c0.783,0.358,1.33,1.206,1.33,2.063v1.956h6.127c1.101,0,1.994,0.894,1.994,1.992
	v20.016c0,1.099-0.896,1.993-1.994,1.993H101.938z"/>
<path fill="#FFFFFF" d="M122.316,37.823h-7.627v-3.456c0-0.273-0.203-0.585-0.449-0.697l-13.804-6.259
	c-0.248-0.111-0.652-0.111-0.897,0L85.735,33.67c-0.246,0.111-0.449,0.424-0.449,0.697v3.456h-7.628
	c-0.271,0-0.492,0.223-0.492,0.492v20.016c0,0.271,0.222,0.493,0.492,0.493h18.876V51.75c0-0.27,0.224-0.491,0.494-0.491h5.919
	c0.27,0,0.49,0.222,0.49,0.491v7.074h18.879c0.271,0,0.494-0.222,0.494-0.493V38.315C122.811,38.046,122.587,37.823,122.316,37.823
	 M85.46,54.937c0,0.271-0.221,0.492-0.494,0.492h-3.184c-0.271,0-0.492-0.222-0.492-0.492V51.75c0-0.27,0.222-0.491,0.492-0.491
	h3.184c0.273,0,0.494,0.222,0.494,0.491V54.937z M85.46,46.825c0,0.271-0.221,0.494-0.494,0.494h-3.184
	c-0.271,0-0.492-0.224-0.492-0.494V43.64c0-0.271,0.222-0.494,0.492-0.494h3.184c0.273,0,0.494,0.223,0.494,0.494V46.825z
	 M93.766,54.937c0,0.271-0.222,0.492-0.491,0.492h-3.188c-0.271,0-0.491-0.222-0.491-0.492V51.75c0-0.27,0.221-0.491,0.491-0.491
	h3.188c0.27,0,0.491,0.222,0.491,0.491V54.937z M93.766,46.825c0,0.271-0.222,0.494-0.491,0.494h-3.188
	c-0.271,0-0.491-0.224-0.491-0.494V43.64c0-0.271,0.221-0.494,0.491-0.494h3.188c0.27,0,0.491,0.223,0.491,0.494V46.825z
	 M102.073,46.825c0,0.271-0.222,0.494-0.493,0.494h-3.186c-0.272,0-0.494-0.224-0.494-0.494V43.64c0-0.271,0.222-0.494,0.494-0.494
	h3.186c0.271,0,0.493,0.223,0.493,0.494V46.825z M99.987,40.485c-2.482,0-4.495-2.013-4.495-4.495c0-2.484,2.014-4.494,4.495-4.494
	s4.496,2.011,4.496,4.494C104.482,38.473,102.471,40.485,99.987,40.485 M110.379,54.937c0,0.271-0.221,0.492-0.492,0.492H106.7
	c-0.271,0-0.491-0.222-0.491-0.492V51.75c0-0.27,0.223-0.491,0.491-0.491h3.187c0.271,0,0.492,0.222,0.492,0.491V54.937z
	 M110.379,46.825c0,0.271-0.221,0.494-0.492,0.494H106.7c-0.271,0-0.491-0.224-0.491-0.494V43.64c0-0.271,0.223-0.494,0.491-0.494
	h3.187c0.271,0,0.492,0.223,0.492,0.494V46.825z M118.688,54.937c0,0.271-0.224,0.492-0.494,0.492h-3.185
	c-0.272,0-0.493-0.222-0.493-0.492V51.75c0-0.27,0.221-0.491,0.493-0.491h3.185c0.271,0,0.494,0.222,0.494,0.491V54.937z
	 M118.688,46.825c0,0.271-0.224,0.494-0.494,0.494h-3.185c-0.272,0-0.493-0.224-0.493-0.494V43.64c0-0.271,0.221-0.494,0.493-0.494
	h3.185c0.271,0,0.494,0.223,0.494,0.494V46.825z"/>
<path fill="#2690BE" d="M75.362,37.771c-0.647,0-1.229-0.311-1.556-0.832c-0.327-0.521-0.355-1.18-0.074-1.763l0.832-1.708
	c0.366-0.756,1.213-1.287,2.058-1.287h6.827c1.1,0,1.994,0.894,1.994,1.993v1.604c0,1.099-0.895,1.992-1.994,1.992L75.362,37.771
	L75.362,37.771z"/>
<path fill="#EE7830" d="M76.621,33.682c-0.272,0-0.59,0.197-0.709,0.443l-0.829,1.703c-0.117,0.243,0.006,0.443,0.279,0.443h8.086
	c0.272,0,0.494-0.222,0.494-0.492v-1.604c0-0.272-0.222-0.493-0.494-0.493H76.621z"/>
<path fill="#2690BE" d="M116.55,37.771c-1.098,0-1.991-0.894-1.991-1.993v-1.604c0-1.099,0.896-1.993,1.991-1.993h6.827
	c0.846,0,1.691,0.53,2.061,1.29l0.826,1.7c0.283,0.591,0.256,1.25-0.072,1.77c-0.325,0.52-0.906,0.83-1.553,0.83H116.55z"/>
<path fill="#EE7830" d="M124.086,34.125c-0.117-0.242-0.438-0.443-0.709-0.443h-6.827c-0.271,0-0.491,0.221-0.491,0.493v1.604
	c0,0.271,0.224,0.493,0.491,0.493h8.089c0.271,0,0.396-0.199,0.276-0.443L124.086,34.125z"/>
</svg>
