<?xml version="1.0" encoding="utf-8"?>
<!-- Generator: Adobe Illustrator 15.0.0, SVG Export Plug-In . SVG Version: 6.00 Build 0)  -->
<!DOCTYPE svg PUBLIC "-//W3C//DTD SVG 1.1//EN" "http://www.w3.org/Graphics/SVG/1.1/DTD/svg11.dtd">
<svg version="1.1" id="Layer_1" xmlns="http://www.w3.org/2000/svg" xmlns:xlink="http://www.w3.org/1999/xlink" x="0px" y="0px"
	 width="200px" height="200px" viewBox="0 0 200 200" enable-background="new 0 0 200 200" xml:space="preserve">
<g>
	<path fill="#E0E0E0" d="M199,100c0,54.672-44.329,99-99.006,99S1,154.672,1,100S45.317,1,99.994,1S199,45.328,199,100z"/>
	<path fill="#FFFFFF" d="M99.994,189C50.923,189,11,149.075,11,100s39.923-89,88.994-89C149.072,11,189,50.925,189,100
		S149.072,189,99.994,189z"/>
	<g>
		<g>
			<path fill="#662E91" d="M81.469,102.379l-11.324-32.5c0,0-1.141-2.283-3.401-2.283h-9.888c0,0-3.211,0.016-9.655,0
				c-5.251-0.012-5.219,4.416-5.219,4.416L40,105.826c0,1.633,1.324,2.955,2.957,2.955s2.957-1.322,2.957-2.955l1.609-26.586v2.824
				c-0.047,0.256-0.074,0.516-0.074,0.783v64.676c0,2.488,2.018,4.504,4.506,4.504c2.487,0,4.504-2.016,4.504-4.504v-38.742h1.249
				v38.742c0,2.488,2.017,4.504,4.503,4.504c2.49,0,4.506-2.016,4.506-4.504l0.026-68.611l8.886,25.502
				c0.561,1.615,2.323,2.463,3.936,1.902C81.178,105.754,82.029,103.994,81.469,102.379z"/>
		</g>
		<g>
			<path fill="#662E91" d="M65.342,56.584c0,4.674-3.787,8.459-8.459,8.459c-4.671,0-8.456-3.785-8.456-8.459
				c0-4.668,3.785-8.455,8.456-8.455C61.555,48.129,65.342,51.916,65.342,56.584z"/>
		</g>
		<g>
			<path fill="#662E91" d="M143.408,56.432c0,4.67-3.785,8.453-8.459,8.453c-4.672,0-8.455-3.783-8.455-8.453
				c0-4.672,3.783-8.459,8.455-8.459C139.623,47.973,143.408,51.76,143.408,56.432z"/>
		</g>
		<g>
			<path fill="#662E91" d="M115.865,100.846c-0.941-1.033-2.498-1.146-3.482-0.256L100.914,111h-9.713l-11.469-10.41
				c-0.986-0.891-2.543-0.777-3.482,0.256c-0.938,1.033-0.901,2.594,0.082,3.488l13.303,12.074v32.121
				c0,1.535,1.244,2.777,2.779,2.777c1.533,0,2.776-1.242,2.776-2.777v-12.131h1.733v12.131c0,1.535,1.242,2.777,2.776,2.777
				c1.536,0,2.78-1.242,2.78-2.777v-32.121l13.301-12.074C116.766,103.439,116.801,101.879,115.865,100.846z M96.095,109.018
				c3.166,0,5.733-2.52,5.733-5.631c0-3.107-2.567-5.631-5.733-5.631c-3.169,0-5.737,2.523-5.737,5.631
				C90.357,106.498,92.926,109.018,96.095,109.018z"/>
		</g>
		<g>
			<path fill="#662E91" d="M159.828,102.379l-11.324-32.5c0,0-1.143-2.283-3.404-2.283h-20.297c-2.262,0-3.404,2.283-3.404,2.283
				l-11.32,32.5c-0.562,1.615,0.289,3.375,1.9,3.938c1.613,0.561,3.377-0.287,3.938-1.902l8.887-25.502V82l-10.727,32.648h11.436
				v32.875c0,2.488,2.016,4.504,4.506,4.504c2.488,0,4.504-2.016,4.504-4.504v-32.875h0.859v32.875c0,2.488,2.016,4.504,4.504,4.504
				c2.49,0,4.506-2.016,4.506-4.504v-32.875h11.436L145.1,82v-3.088l8.885,25.502c0.562,1.615,2.326,2.463,3.938,1.902
				C159.535,105.754,160.387,103.994,159.828,102.379z"/>
		</g>
	</g>
</g>
</svg>
