<?xml version="1.0" encoding="utf-8"?>
<!-- Generator: Adobe Illustrator 15.0.0, SVG Export Plug-In . SVG Version: 6.00 Build 0)  -->
<!DOCTYPE svg PUBLIC "-//W3C//DTD SVG 1.1//EN" "http://www.w3.org/Graphics/SVG/1.1/DTD/svg11.dtd">
<svg version="1.1" id="Layer_1" xmlns="http://www.w3.org/2000/svg" xmlns:xlink="http://www.w3.org/1999/xlink" x="0px" y="0px"
	 width="400px" height="352px" viewBox="0 0 400 352" enable-background="new 0 0 400 352" xml:space="preserve">
<polygon fill="#FFFFFF" stroke="#000000" stroke-miterlimit="10" points="6,91.679 392,97.347 400,277.13 327,344.679 
	11.75,344.679 6,331.679 "/>
<polyline fill="#C56426" points="388.444,275.806 331,273.077 315.313,287.104 327,344.679 389.079,278.802 "/>
<g>
	<line fill="none" stroke="#E6E6E6" stroke-width="4" stroke-miterlimit="10" x1="11.75" y1="165.827" x2="388.107" y2="165.827"/>
	<line fill="none" stroke="#E6E6E6" stroke-width="4" stroke-miterlimit="10" x1="11.75" y1="223.577" x2="388.107" y2="223.577"/>
	<line fill="none" stroke="#E6E6E6" stroke-width="4" stroke-miterlimit="10" x1="11.75" y1="281.327" x2="327" y2="281.327"/>
	<line fill="none" stroke="#E6E6E6" stroke-width="4" stroke-miterlimit="10" x1="334.342" y1="98.076" x2="334.342" y2="278.802"/>
	<line fill="none" stroke="#E6E6E6" stroke-width="4" stroke-miterlimit="10" x1="280.576" y1="98.076" x2="280.576" y2="340.604"/>
	<line fill="none" stroke="#E6E6E6" stroke-width="4" stroke-miterlimit="10" x1="226.812" y1="98.076" x2="226.812" y2="340.604"/>
	<line fill="none" stroke="#E6E6E6" stroke-width="4" stroke-miterlimit="10" x1="173.046" y1="98.076" x2="173.046" y2="340.604"/>
	<line fill="none" stroke="#E6E6E6" stroke-width="4" stroke-miterlimit="10" x1="119.28" y1="98.076" x2="119.28" y2="340.604"/>
	<line fill="none" stroke="#E6E6E6" stroke-width="4" stroke-miterlimit="10" x1="65.516" y1="98.076" x2="65.516" y2="340.604"/>
</g>
<path fill="#EE7830" d="M20.544,39.327h359.567c11.154,0,20.226,9.078,20.226,20.198v221.192l-71.326,71.205H20.544
	c-11.136,0-20.207-9.048-20.207-20.179V59.525C0.337,48.405,9.408,39.327,20.544,39.327L20.544,39.327z M388.444,275.806V59.525
	c0-4.598-3.72-8.312-8.333-8.312H20.544c-4.584,0-8.323,3.714-8.323,8.312v272.219c0,4.597,3.739,8.311,8.323,8.311h303.557
	L388.444,275.806L388.444,275.806z"/>
<path fill="#EE7830" d="M335.53,266.934h53.549v11.868H335.53c-4.594,0-8.333,3.732-8.333,8.302v53.501h-11.884v-53.501
	C315.313,275.981,324.384,266.934,335.53,266.934L335.53,266.934z"/>
<rect x="6" y="50.077" fill="#EE7830" width="386" height="58"/>
<circle cx="43.662" cy="72.734" r="9.445"/>
<path d="M50.29,70.508c0,3.231-2.62,5.852-5.853,5.852l0,0c-3.231,0-5.852-2.62-5.852-5.852V5.93c0-3.232,2.62-5.853,5.852-5.853
	l0,0c3.232,0,5.853,2.62,5.853,5.853V70.508z"/>
<path fill="#999999" d="M48.83,70.508c0,3.231-2.62,5.852-5.853,5.852l0,0c-3.231,0-5.852-2.62-5.852-5.852V5.93
	c0-3.232,2.62-5.853,5.852-5.853l0,0c3.232,0,5.853,2.62,5.853,5.853V70.508z"/>
<path fill="#CCCCCC" d="M38.586,65.49V6.579c0-1.905,1.137-3.452,2.536-3.452l0,0c0.844,0,1.59,0.562,2.053,1.421
	c0.327,0.607,0.446,1.551,0.449,2.607C43.631,9.278,38.586,66.88,38.586,65.49z"/>
<circle cx="121.773" cy="72.734" r="9.445"/>
<path d="M128.401,70.508c0,3.231-2.62,5.852-5.853,5.852l0,0c-3.231,0-5.852-2.62-5.852-5.852V5.93c0-3.232,2.62-5.853,5.852-5.853
	l0,0c3.232,0,5.853,2.62,5.853,5.853V70.508z"/>
<path fill="#999999" d="M126.941,70.508c0,3.231-2.62,5.852-5.853,5.852l0,0c-3.231,0-5.852-2.62-5.852-5.852V5.93
	c0-3.232,2.62-5.853,5.852-5.853l0,0c3.232,0,5.853,2.62,5.853,5.853V70.508z"/>
<circle cx="199.885" cy="72.734" r="9.445"/>
<path d="M206.514,70.508c0,3.231-2.621,5.852-5.854,5.852l0,0c-3.23,0-5.852-2.62-5.852-5.852V5.93c0-3.232,2.621-5.853,5.852-5.853
	l0,0c3.232,0,5.854,2.62,5.854,5.853V70.508z"/>
<path fill="#999999" d="M205.053,70.508c0,3.231-2.619,5.852-5.852,5.852l0,0c-3.232,0-5.852-2.62-5.852-5.852V5.93
	c0-3.232,2.619-5.853,5.852-5.853l0,0c3.232,0,5.852,2.62,5.852,5.853V70.508z"/>
<circle cx="277.997" cy="72.734" r="9.445"/>
<path d="M284.625,70.508c0,3.231-2.62,5.852-5.853,5.852l0,0c-3.231,0-5.852-2.62-5.852-5.852V5.93c0-3.232,2.62-5.853,5.852-5.853
	l0,0c3.232,0,5.853,2.62,5.853,5.853V70.508z"/>
<path fill="#999999" d="M283.165,70.508c0,3.231-2.62,5.852-5.853,5.852l0,0c-3.231,0-5.852-2.62-5.852-5.852V5.93
	c0-3.232,2.62-5.853,5.852-5.853l0,0c3.232,0,5.853,2.62,5.853,5.853V70.508z"/>
<circle cx="356.108" cy="72.734" r="9.445"/>
<path d="M362.736,70.508c0,3.231-2.62,5.852-5.853,5.852l0,0c-3.231,0-5.852-2.62-5.852-5.852V5.93c0-3.232,2.62-5.853,5.852-5.853
	l0,0c3.232,0,5.853,2.62,5.853,5.853V70.508z"/>
<path fill="#999999" d="M361.276,70.508c0,3.231-2.62,5.852-5.853,5.852l0,0c-3.231,0-5.852-2.62-5.852-5.852V5.93
	c0-3.232,2.62-5.853,5.852-5.853l0,0c3.232,0,5.853,2.62,5.853,5.853V70.508z"/>
<path fill="none" stroke="#2690BE" stroke-width="6" stroke-miterlimit="10" d="M11.75,339.077"/>
<polygon fill="#EDDB03" points="233.694,278.712 252.155,265.438 270.502,278.9 263.563,257.24 282.572,243.958 259.839,243.848 
	252.358,222.209 245.239,243.79 222.496,243.679 240.825,257.128 "/>
<path fill-rule="evenodd" clip-rule="evenodd" fill="#01AEF0" d="M235.739,301.354c-13.425-3.009-23.201-13.453-27.738-29.152
	c-3.034-10.49,0.505-20.283,0.896-31.601c0.225-6.511,1.479-6.71,4.281-11.684c1.617-2.874,3.859-5.996,5.242-8.627
	c3.729-7.103,14.358-17.446,23.845-17.172c1.794,5.42,3.974,2.932,9.472,2.233c11.83-0.915,21.599,1.455,31.851,4.912
	c0.114,0.379,0.226,0.757,0.341,1.138c4.598,1.117,7.747,6.249,11.996,8.327c6.988,8.065,11.2,24,10.214,34.078
	c-1.397,1.953-1.21,5.232-2.019,7.677c-5.703,10.274-13.457,16.878-20.07,22.378c-1.106-3.173-4.285-0.599-4.95-4.99
	c7.537-3.633,12.65-9.289,16.898-15.666c-1.84-0.765-1.694,3.979-3.247,0.689c5.06-6.674,15.648-16.428,6.789-29.226
	c-3.188-7.106-7.815-10.225-13.02-11.737c-21.587-14.572-65.479-6.502-72.069,18.906c-1.075,1.656,1.136,6.058,0.759,8.296
	c-2.38,1.115-4.123-1.974-3.722,1.997c-10.809,37.044,24.38,49.108,46.278,34.11c3.742,0.256,7.951,0.146,4.922,0.271
	c10.404,3.79,11.893-10.571,20.209-3.615c0.479,2.386-2.704,1.71-2.229,4.099c-0.271,0.056-0.542,0.113-0.812,0.171
	c-6.121,4.528-13.708,7.833-21.849,10.675c-0.113-0.379-0.229-0.757-0.341-1.138c-4.211,3.276-12.492,3.803-17.867,3.789
	C237.615,298.693,237.722,300.801,235.739,301.354z M244.359,208.144c9.01,1.903,19.429,0.995,26.203,0.346
	C262.394,206.988,254.135,206.326,244.359,208.144z"/>
<path fill="#CCCCCC" d="M116.903,65.49V6.579c0-1.905,1.137-3.452,2.536-3.452l0,0c0.844,0,1.59,0.562,2.053,1.421
	c0.327,0.607,0.446,1.551,0.449,2.607C121.948,9.278,116.903,66.88,116.903,65.49z"/>
<path fill="#CCCCCC" d="M194.802,65.49V6.579c0-1.905,1.137-3.452,2.536-3.452l0,0c0.844,0,1.59,0.562,2.053,1.421
	c0.327,0.607,0.446,1.551,0.449,2.607C199.847,9.278,194.802,66.88,194.802,65.49z"/>
<path fill="#CCCCCC" d="M272.969,65.49V6.579c0-1.905,1.137-3.452,2.536-3.452l0,0c0.844,0,1.59,0.562,2.053,1.421
	c0.327,0.607,0.446,1.551,0.449,2.607C278.014,9.278,272.969,66.88,272.969,65.49z"/>
<path fill="#CCCCCC" d="M351.112,65.49V6.579c0-1.905,1.137-3.452,2.536-3.452l0,0c0.844,0,1.59,0.562,2.053,1.421
	c0.327,0.607,0.446,1.551,0.449,2.607C356.157,9.278,351.112,66.88,351.112,65.49z"/>
</svg>
