<?xml version="1.0" encoding="utf-8"?>
<!-- Generator: Adobe Illustrator 15.0.0, SVG Export Plug-In . SVG Version: 6.00 Build 0)  -->
<!DOCTYPE svg PUBLIC "-//W3C//DTD SVG 1.1//EN" "http://www.w3.org/Graphics/SVG/1.1/DTD/svg11.dtd">
<svg version="1.1" id="Layer_1" xmlns="http://www.w3.org/2000/svg" xmlns:xlink="http://www.w3.org/1999/xlink" x="0px" y="0px"
	 width="200px" height="200px" viewBox="0 0 200 200" enable-background="new 0 0 200 200" xml:space="preserve">
<g>
	<path fill="#13CF56" d="M199,100c0,54.672-44.329,99-99.006,99S1,154.672,1,100S45.317,1,99.994,1S199,45.328,199,100z"/>
	<g>
		<g>
			<path fill="#FFFFFF" stroke="#3B9A47" stroke-width="1.5" stroke-miterlimit="10" d="M111.978,28.396
				c-9.189,0-16.641,7.45-16.641,16.64s7.451,16.64,16.641,16.64s16.64-7.45,16.64-16.64S121.167,28.396,111.978,28.396z"/>
		</g>
		<path fill="#C1272D" d="M120.208,50.324l-2.941,2.941l-5.289-5.289l-5.29,5.289l-2.94-2.941l5.289-5.289l-5.289-5.289l2.94-2.941
			l5.29,5.289l5.289-5.289l2.941,2.941l-5.289,5.289L120.208,50.324z"/>
		<g>
			<path fill="#FFFFFF" stroke="#3B9A47" stroke-width="1.5" stroke-miterlimit="10" d="M83.45,28.396
				c-9.189,0-16.64,7.45-16.64,16.64s7.45,16.64,16.64,16.64s16.641-7.45,16.641-16.64S92.64,28.396,83.45,28.396z"/>
		</g>
		<g>
			<path fill="#13CF56" d="M80.871,52.713l-7.654-7.657l2.941-2.941l4.713,4.717l10.002-10.002l2.94,2.941L80.871,52.713z"/>
		</g>
	</g>
</g>
</svg>
