<?xml version="1.0" encoding="utf-8"?>
<!-- Generator: Adobe Illustrator 15.0.0, SVG Export Plug-In . SVG Version: 6.00 Build 0)  -->
<!DOCTYPE svg PUBLIC "-//W3C//DTD SVG 1.1//EN" "http://www.w3.org/Graphics/SVG/1.1/DTD/svg11.dtd">
<svg version="1.1" id="Layer_1" xmlns="http://www.w3.org/2000/svg" xmlns:xlink="http://www.w3.org/1999/xlink" x="0px" y="0px"
	 width="200px" height="200px" viewBox="0 0 200 200" enable-background="new 0 0 200 200" xml:space="preserve">
<g>
	<path fill="#E0E0E0" d="M199,100c0,54.672-44.329,99-99.006,99S1,154.672,1,100S45.317,1,99.994,1S199,45.328,199,100z"/>
	<path fill="#FFFFFF" d="M99.994,189C50.923,189,11,149.075,11,100c0-49.075,39.923-89,88.994-89C149.072,11,189,50.925,189,100
		C189,149.075,149.072,189,99.994,189z"/>
	<path fill="#FFFFFF" d="M46.819,51.33c0,0,35.861-1.998,51.181,12.967c0,0,26.368-17.384,51.802-13.056l2.244,77.887L98,144.338
		l-55.669-14.711L46.819,51.33z"/>
	<path fill="#333333" d="M54.243,114.389c0.031-0.582,0.46-1.039,1.001-1.148c0.123-0.024,0.252-0.036,0.383-0.029
		c2.643,0.13,5.629,0.332,8.446,0.562c2.888,0.238,5.615,0.521,7.633,0.837c1.823,0.28,3.597,0.629,5.298,1.025
		c2.359,0.55,4.587,1.198,6.646,1.879c2.711,0.896,5.14,1.846,7.171,2.738c0.438,0.191,0.848,0.393,1.229,0.591
		c0.559,0.291,0.8,0.98,0.53,1.569c-0.211,0.456-0.662,0.724-1.134,0.724c-0.177,0-0.354-0.037-0.525-0.117
		c-1.162-0.542-2.493-1.113-3.96-1.688c-1.459-0.571-3.055-1.143-4.764-1.684c-0.67-0.213-1.357-0.421-2.062-0.623
		c-1.751-0.503-3.604-0.967-5.532-1.363c-1.244-0.255-2.52-0.482-3.821-0.676c-1.367-0.203-3.096-0.393-4.982-0.562
		c-3.315-0.3-7.131-0.546-10.376-0.72C54.734,115.667,54.206,115.078,54.243,114.389z"/>
	<path fill="#333333" d="M54.234,104.166c0.031-0.6,0.488-1.071,1.053-1.156c0.129-0.02,0.262-0.027,0.397-0.021
		c2.79,0.133,5.837,0.347,8.704,0.595c2.934,0.258,5.71,0.568,7.857,0.921c1.854,0.299,3.652,0.663,5.368,1.074
		c2.4,0.576,4.655,1.257,6.725,1.966c2.515,0.86,4.772,1.761,6.669,2.622c0.408,0.185,0.779,0.391,1.113,0.598
		c0.486,0.301,0.688,0.94,0.429,1.487c-0.213,0.448-0.661,0.707-1.126,0.707c-0.182,0-0.367-0.04-0.541-0.125
		c-1.157-0.564-2.484-1.144-3.946-1.725c-1.456-0.576-3.05-1.146-4.759-1.686c-0.67-0.211-1.358-0.418-2.062-0.617
		c-1.748-0.498-3.603-0.956-5.533-1.348c-1.24-0.253-2.516-0.479-3.818-0.673c-1.407-0.211-3.125-0.405-4.981-0.579
		c-3.296-0.308-7.054-0.556-10.364-0.728C54.729,105.443,54.199,104.855,54.234,104.166z"/>
	<path fill="#333333" d="M54.227,93.943c0.031-0.618,0.518-1.101,1.102-1.164c0.136-0.015,0.273-0.02,0.414-0.012
		c2.936,0.141,6.046,0.36,8.963,0.628c2.979,0.277,5.804,0.616,8.082,1.005c1.885,0.316,3.708,0.696,5.438,1.123
		c2.441,0.602,4.723,1.312,6.804,2.052c2.315,0.823,4.403,1.676,6.165,2.507c0.378,0.178,0.711,0.387,0.999,0.604
		c0.415,0.311,0.574,0.901,0.326,1.406c-0.216,0.438-0.659,0.69-1.117,0.69c-0.188,0-0.38-0.043-0.559-0.134
		c-1.153-0.581-2.475-1.175-3.931-1.761c-1.453-0.582-3.046-1.152-4.754-1.688c-0.671-0.21-1.359-0.415-2.064-0.612
		c-1.743-0.493-3.599-0.945-5.533-1.334c-1.237-0.249-2.512-0.473-3.816-0.668c-1.447-0.219-3.154-0.418-4.98-0.596
		c-3.275-0.316-6.976-0.566-10.352-0.735C54.723,95.22,54.191,94.633,54.227,93.943z"/>
	<path fill="#333333" d="M54.218,83.721c0.031-0.637,0.547-1.131,1.153-1.172c0.141-0.01,0.284-0.011,0.43-0.004
		c3.08,0.145,6.254,0.376,9.219,0.661c3.025,0.297,5.899,0.664,8.308,1.09c1.916,0.334,3.765,0.729,5.507,1.171
		c2.484,0.627,4.793,1.366,6.883,2.139c2.119,0.783,4.035,1.591,5.663,2.392c0.347,0.169,0.642,0.384,0.884,0.608
		c0.344,0.319,0.46,0.861,0.224,1.325c-0.219,0.43-0.657,0.675-1.108,0.675c-0.195,0-0.391-0.047-0.575-0.144
		c-1.146-0.603-2.465-1.205-3.917-1.796c-1.449-0.588-3.041-1.157-4.749-1.689c-0.671-0.209-1.359-0.412-2.065-0.608
		c-1.738-0.486-3.596-0.933-5.532-1.318c-1.235-0.245-2.51-0.468-3.815-0.665c-1.486-0.225-3.183-0.431-4.979-0.611
		c-3.256-0.324-6.898-0.577-10.34-0.743C54.717,84.996,54.185,84.41,54.218,83.721z"/>
	<path fill="#333333" d="M54.21,73.498c0.03-0.654,0.576-1.16,1.202-1.18c0.147-0.004,0.296-0.002,0.445,0.005
		c3.228,0.156,6.463,0.39,9.479,0.693c3.07,0.316,5.993,0.712,8.531,1.175c1.947,0.352,3.82,0.763,5.577,1.219
		c2.526,0.653,4.862,1.418,6.962,2.225c1.924,0.74,3.667,1.508,5.16,2.277c0.315,0.162,0.572,0.38,0.768,0.614
		c0.271,0.327,0.346,0.821,0.122,1.243c-0.223,0.422-0.655,0.658-1.101,0.658c-0.2,0-0.402-0.049-0.591-0.151
		c-1.143-0.62-2.456-1.236-3.901-1.833c-1.447-0.593-3.037-1.162-4.745-1.69c-0.671-0.208-1.36-0.409-2.066-0.604
		c-1.734-0.481-3.593-0.922-5.533-1.304c-1.232-0.242-2.506-0.464-3.812-0.661c-1.527-0.233-3.212-0.443-4.979-0.628
		c-3.235-0.332-6.82-0.587-10.328-0.752C54.71,74.772,54.178,74.187,54.21,73.498z"/>
	<path fill="#333333" d="M54.201,63.274c0.031-0.672,0.605-1.204,1.254-1.187c0.152,0.004,0.307,0.006,0.461,0.014
		c3.373,0.16,6.671,0.404,9.735,0.727c3.116,0.336,6.087,0.759,8.756,1.258c1.979,0.369,3.876,0.797,5.646,1.268
		c2.569,0.68,4.935,1.467,7.042,2.312c1.729,0.695,3.299,1.421,4.656,2.16c0.286,0.155,0.506,0.377,0.654,0.621
		c0.201,0.334,0.23,0.779,0.02,1.162c-0.227,0.41-0.654,0.641-1.092,0.641c-0.207,0-0.416-0.051-0.608-0.159
		c-1.14-0.638-2.446-1.267-3.888-1.869c-1.443-0.599-3.031-1.167-4.74-1.693c-0.671-0.206-1.36-0.406-2.067-0.599
		c-1.73-0.476-3.59-0.91-5.533-1.289c-1.229-0.238-2.503-0.457-3.81-0.657c-1.567-0.239-3.242-0.455-4.979-0.644
		c-3.216-0.341-6.742-0.598-10.315-0.76C54.703,64.549,54.17,63.965,54.201,63.274z"/>
	<g>
		<path fill="#333333" d="M143.757,114.389c-0.031-0.582-0.46-1.039-1.001-1.148c-0.123-0.024-0.252-0.036-0.383-0.029
			c-2.643,0.13-5.629,0.332-8.446,0.562c-2.888,0.238-5.615,0.521-7.633,0.837c-1.823,0.28-3.597,0.629-5.298,1.025
			c-2.359,0.55-4.587,1.198-6.646,1.879c-2.711,0.896-5.14,1.846-7.171,2.738c-0.438,0.191-0.848,0.393-1.229,0.591
			c-0.559,0.291-0.8,0.98-0.53,1.569c0.211,0.456,0.662,0.724,1.134,0.724c0.177,0,0.354-0.037,0.525-0.117
			c1.162-0.542,2.493-1.113,3.96-1.688c1.459-0.571,3.055-1.143,4.764-1.684c0.67-0.213,1.357-0.421,2.062-0.623
			c1.751-0.503,3.604-0.967,5.532-1.363c1.244-0.255,2.52-0.482,3.821-0.676c1.367-0.203,3.096-0.393,4.982-0.562
			c3.315-0.3,7.131-0.546,10.376-0.72C143.266,115.667,143.794,115.078,143.757,114.389z"/>
		<path fill="#333333" d="M143.766,104.166c-0.031-0.6-0.488-1.071-1.053-1.156c-0.129-0.02-0.262-0.027-0.397-0.021
			c-2.79,0.133-5.837,0.347-8.704,0.595c-2.934,0.258-5.71,0.568-7.857,0.921c-1.854,0.299-3.652,0.663-5.368,1.074
			c-2.4,0.576-4.655,1.257-6.725,1.966c-2.515,0.86-4.772,1.761-6.669,2.622c-0.408,0.185-0.779,0.391-1.113,0.598
			c-0.486,0.301-0.688,0.94-0.429,1.487c0.213,0.448,0.661,0.707,1.126,0.707c0.182,0,0.367-0.04,0.541-0.125
			c1.157-0.564,2.484-1.144,3.946-1.725c1.456-0.576,3.05-1.146,4.759-1.686c0.67-0.211,1.358-0.418,2.062-0.617
			c1.748-0.498,3.603-0.956,5.533-1.348c1.24-0.253,2.516-0.479,3.818-0.673c1.407-0.211,3.125-0.405,4.981-0.579
			c3.296-0.308,7.054-0.556,10.364-0.728C143.271,105.443,143.801,104.855,143.766,104.166z"/>
		<path fill="#333333" d="M143.773,93.943c-0.031-0.618-0.518-1.101-1.102-1.164c-0.136-0.015-0.273-0.02-0.414-0.012
			c-2.936,0.141-6.046,0.36-8.963,0.628c-2.979,0.277-5.804,0.616-8.082,1.005c-1.885,0.316-3.708,0.696-5.438,1.123
			c-2.441,0.602-4.723,1.312-6.804,2.052c-2.315,0.823-4.403,1.676-6.165,2.507c-0.378,0.178-0.711,0.387-0.999,0.604
			c-0.415,0.311-0.574,0.901-0.326,1.406c0.216,0.438,0.659,0.69,1.117,0.69c0.188,0,0.38-0.043,0.559-0.134
			c1.153-0.581,2.475-1.175,3.931-1.761c1.453-0.582,3.046-1.152,4.754-1.688c0.671-0.21,1.359-0.415,2.064-0.612
			c1.743-0.493,3.599-0.945,5.533-1.334c1.237-0.249,2.512-0.473,3.816-0.668c1.447-0.219,3.154-0.418,4.98-0.596
			c3.275-0.316,6.976-0.566,10.352-0.735C143.277,95.22,143.809,94.633,143.773,93.943z"/>
		<path fill="#333333" d="M143.782,83.721c-0.031-0.637-0.547-1.131-1.153-1.172c-0.141-0.01-0.284-0.011-0.43-0.004
			c-3.08,0.145-6.254,0.376-9.219,0.661c-3.025,0.297-5.899,0.664-8.308,1.09c-1.916,0.334-3.765,0.729-5.507,1.171
			c-2.484,0.627-4.793,1.366-6.883,2.139c-2.119,0.783-4.035,1.591-5.663,2.392c-0.347,0.169-0.642,0.384-0.884,0.608
			c-0.344,0.319-0.46,0.861-0.224,1.325c0.219,0.43,0.657,0.675,1.108,0.675c0.195,0,0.391-0.047,0.575-0.144
			c1.146-0.603,2.465-1.205,3.917-1.796c1.449-0.588,3.041-1.157,4.749-1.689c0.671-0.209,1.359-0.412,2.065-0.608
			c1.738-0.486,3.596-0.933,5.532-1.318c1.235-0.245,2.51-0.468,3.815-0.665c1.486-0.225,3.183-0.431,4.979-0.611
			c3.256-0.324,6.898-0.577,10.34-0.743C143.283,84.996,143.815,84.41,143.782,83.721z"/>
		<path fill="#333333" d="M143.79,73.498c-0.03-0.654-0.576-1.16-1.202-1.18c-0.147-0.004-0.296-0.002-0.445,0.005
			c-3.228,0.156-6.463,0.39-9.479,0.693c-3.07,0.316-5.993,0.712-8.531,1.175c-1.947,0.352-3.82,0.763-5.577,1.219
			c-2.526,0.653-4.862,1.418-6.962,2.225c-1.924,0.74-3.667,1.508-5.16,2.277c-0.315,0.162-0.572,0.38-0.768,0.614
			c-0.271,0.327-0.346,0.821-0.122,1.243c0.223,0.422,0.655,0.658,1.101,0.658c0.2,0,0.402-0.049,0.591-0.151
			c1.143-0.62,2.456-1.236,3.901-1.833c1.447-0.593,3.037-1.162,4.745-1.69c0.671-0.208,1.36-0.409,2.066-0.604
			c1.734-0.481,3.593-0.922,5.533-1.304c1.232-0.242,2.506-0.464,3.812-0.661c1.527-0.233,3.212-0.443,4.979-0.628
			c3.235-0.332,6.82-0.587,10.328-0.752C143.29,74.772,143.822,74.187,143.79,73.498z"/>
		<path fill="#333333" d="M143.799,63.274c-0.031-0.672-0.605-1.204-1.254-1.187c-0.152,0.004-0.307,0.006-0.461,0.014
			c-3.373,0.16-6.671,0.404-9.735,0.727c-3.116,0.336-6.087,0.759-8.756,1.258c-1.979,0.369-3.876,0.797-5.646,1.268
			c-2.569,0.68-4.935,1.467-7.042,2.312c-1.729,0.695-3.299,1.421-4.656,2.16c-0.286,0.155-0.506,0.377-0.654,0.621
			c-0.201,0.334-0.23,0.779-0.02,1.162c0.227,0.41,0.654,0.641,1.092,0.641c0.207,0,0.416-0.051,0.608-0.159
			c1.14-0.638,2.446-1.267,3.888-1.869c1.443-0.599,3.031-1.167,4.74-1.693c0.671-0.206,1.36-0.406,2.067-0.599
			c1.73-0.476,3.59-0.91,5.533-1.289c1.229-0.238,2.503-0.457,3.81-0.657c1.567-0.239,3.242-0.455,4.979-0.644
			c3.216-0.341,6.742-0.598,10.315-0.76C143.297,64.549,143.83,63.965,143.799,63.274z"/>
	</g>
	<path fill="#662E91" d="M161.704,55h-1.729c-0.715,0-1.992-0.199-2.707-0.194l-2.748-0.165c-0.719,0.013-1.52-0.562-1.52-1.277
		v-3.215c0-0.713-0.202-1.299-0.731-1.299c-0.523,0-1.313,0.005-2.028,0.017c0,0-6.998,0.099-10.674,0.324
		c-6.893,0.409-12.664,1.175-17.553,2.159c-5.162,1.029-9.242,2.301-12.558,3.664c-6.253,2.562-10.271,6.581-10.271,6.581
		C99.058,61.721,99,61.813,99,61.876c0-0.062-0.058-0.155-0.186-0.281c0,0-4.018-4.019-10.271-6.581
		c-3.315-1.363-7.396-2.635-12.558-3.664c-4.889-0.984-10.66-1.75-17.553-2.159c-3.676-0.226-10.674-0.324-10.674-0.324
		c-0.715-0.012-1.505-0.017-2.028-0.017c-0.529,0-0.731,0.586-0.731,1.299v3.215c0,0.716-0.801,1.29-1.52,1.277l-2.748,0.165
		C40.018,54.801,38.74,55,38.025,55h-1.729C35.582,55,35,55.188,35,55.901v3.267v2.6v31.42v2.6v32.5v2.6v6.531
		c0,0.717,0.582,1.582,1.296,1.582h1.729c0.715,0,1.884-0.126,2.598-0.101c0,0,19.297,0.542,26.629,1.554
		c7.5,1.037,13.08,2.416,17.217,3.885c7.998,2.84,10.447,5.747,10.447,5.747c0.45,0.555,1.41,0.915,2.121,0.915H99h1.963
		c0.711,0,1.671-0.36,2.121-0.915c0,0,2.449-2.907,10.447-5.747c4.137-1.469,9.717-2.848,17.217-3.885
		c7.332-1.012,26.629-1.554,26.629-1.554c0.714-0.025,1.883,0.101,2.598,0.101h1.729c0.714,0,1.296-0.865,1.296-1.582v-6.531v-2.6
		v-32.5v-2.6v-31.42v-2.6v-3.267C163,55.188,162.418,55,161.704,55z M97,75.198v2.601v19.938v2.604v17.109v2.598v13.58
		c0,0.709-0.441,1.012-1.065,0.656c0,0-11.149-6.295-24.987-8.332c-6.014-0.889-20.498-1.516-20.498-1.516
		c-0.713-0.027-1.449-0.637-1.449-1.354V54.96c0-0.718,0.753-1.292,1.467-1.276c0,0,2.941,0.06,4.888,0.143
		c3.788,0.167,7.284,0.432,10.432,0.775c3.284,0.369,6.257,0.821,8.902,1.328c2.052,0.395,3.931,0.83,5.634,1.295
		c2.729,0.736,5.035,1.532,6.971,2.344c1.562,0.662,2.893,1.325,4.014,1.975c4.01,2.318,5.05,4.025,5.05,4.025
		C96.748,66.164,97,67.241,97,67.957V75.198z M149,123.082c0,0.717-0.736,1.326-1.449,1.354c0,0-14.484,0.627-20.498,1.516
		c-13.838,2.037-24.987,8.332-24.987,8.332c-0.624,0.355-1.065,0.053-1.065-0.656v-13.58v-2.598V100.34v-2.604V77.799v-2.601v-7.241
		c0-0.716,0.252-1.793,0.644-2.389c0,0,1.04-1.707,5.05-4.025c1.121-0.649,2.451-1.312,4.014-1.975
		c1.936-0.812,4.242-1.607,6.971-2.344c1.703-0.465,3.582-0.9,5.634-1.295c2.646-0.507,5.618-0.959,8.902-1.328
		c3.147-0.344,6.644-0.608,10.432-0.775c1.946-0.083,4.888-0.143,4.888-0.143c0.714-0.016,1.467,0.559,1.467,1.276V123.082z"/>
</g>
</svg>
