<?xml version="1.0" encoding="utf-8"?>
<!-- Generator: Adobe Illustrator 15.0.0, SVG Export Plug-In . SVG Version: 6.00 Build 0)  -->
<!DOCTYPE svg PUBLIC "-//W3C//DTD SVG 1.1//EN" "http://www.w3.org/Graphics/SVG/1.1/DTD/svg11.dtd">
<svg version="1.1" id="Layer_1" xmlns="http://www.w3.org/2000/svg" xmlns:xlink="http://www.w3.org/1999/xlink" x="0px" y="0px"
	 width="200px" height="200px" viewBox="0 0 200 200" enable-background="new 0 0 200 200" xml:space="preserve">
<g>
	<path fill="#E0E0E0" d="M199,100c0,54.672-44.33,99-99.006,99C45.316,199,1,154.672,1,100S45.316,1,99.994,1
		C154.67,1,199,45.328,199,100z"/>
	<path fill="#FFFFFF" d="M99.994,189C50.923,189,11,149.075,11,100s39.923-89,88.994-89C149.072,11,189,50.925,189,100
		S149.072,189,99.994,189z"/>
	<polygon fill="#FFFFFF" points="45,108 45,143 155,143 148.283,126.567 150.711,116.047 156.174,108 	"/>
	<g>
		<line fill="#333333" x1="70" y1="126" x2="149" y2="126"/>
		<path fill="#333333" d="M149,127H70c-0.829,0-1.5-0.672-1.5-1.5s0.671-1.5,1.5-1.5h79c0.828,0,1.5,0.672,1.5,1.5
			S149.828,127,149,127z"/>
	</g>
	<path fill="#662E91" d="M157.35,141.05c-1.531-2.532-11.443-20.104-0.279-31.271c1.029-0.998,1.307-2.508,0.783-3.84
		c-0.557-1.309-1.836-2.153-3.271-2.153H46.969c-1.959,0-3.516,1.581-3.516,3.512v35.984c0,1.924,1.557,3.512,3.516,3.512h107.613
		c0.035,0,0.035,0,0.035,0c1.949,0,3.533-1.588,3.533-3.512C158.15,142.429,157.854,141.645,157.35,141.05z M48.316,140.37v-30.188
		h101.307c-2.211,4.115-3.039,8.432-3.039,12.597c0,0,0.045,1.11,0.127,2.605s0.248,2.406,0.248,2.406
		c0.73,4.899,2.357,9.32,3.838,12.579H48.316z"/>
	<path fill="#39B54A" d="M105.955,51.129c1.842-1.207,3.385-2.646,4.68-4.288c1.291-1.634,2.322-3.477,3.059-5.55
		c0.709-2.105,1.174-4.392,0.885-7.265c-2.857,0.402-4.959,1.41-6.834,2.589c-1.84,1.207-3.391,2.648-4.674,4.299
		c-1.289,1.638-2.311,3.479-3.047,5.561c-0.633,1.896-1.066,3.958-0.939,6.454c0.379,0.195,0.811,0.364,1.123,0.592
		C102.52,53.032,104.324,52.155,105.955,51.129z"/>
	<path fill="#006837" d="M108.875,38.619c0,0-9.41,11.194-10.814,16.439C98.061,55.059,104.51,47.258,108.875,38.619z"/>
	<path fill="#603813" d="M100,53.57c-0.264-0.625-1.016-2.07-1.281-2.526c-0.037-0.063-0.336-0.596-0.391-0.694
		c-1.447-2.607-3.631-7.344-4.629-13.61l-3.154,0.505c1.039,6.6,4.721,13.977,6.383,16.997C97.887,54.362,99.344,54.572,100,53.57z"
		/>
	<path fill="#C1272D" d="M100,53.18c-0.539,0.495-1.928,0.903-3.264,0.146c-13.086-5.146-28.033,0.73-27.107,15.167
		c0,9.969,4.965,22.65,13.914,28.647c1.07,0.718,6.324,4.481,12.334,1.828c2.033-0.867,3.336-0.669,4.842,0.053
		c5.369,2.573,10.084-0.777,11.502-1.709c9.078-5.962,14.293-18.74,14.293-28.819C127.48,53.383,112.027,48.18,100,53.18z"/>
	<path fill="#333333" d="M108.158,99.399"/>
	<path fill="#FFFFFF" d="M83.18,56.091c0,0-9.309,2.741-8.822,16.615C74.357,72.706,67.445,58.002,83.18,56.091z"/>
	<path fill="#662E91" d="M153.689,125.386"/>
	<path stroke="#000000" stroke-width="3" stroke-linecap="round" stroke-miterlimit="10" d="M70,125.5"/>
</g>
</svg>
