<?xml version="1.0" encoding="utf-8"?>
<!-- Generator: Adobe Illustrator 15.0.0, SVG Export Plug-In . SVG Version: 6.00 Build 0)  -->
<!DOCTYPE svg PUBLIC "-//W3C//DTD SVG 1.1//EN" "http://www.w3.org/Graphics/SVG/1.1/DTD/svg11.dtd">
<svg version="1.1" id="Layer_1" xmlns="http://www.w3.org/2000/svg" xmlns:xlink="http://www.w3.org/1999/xlink" x="0px" y="0px"
	 width="200px" height="200px" viewBox="0 0 200 200" enable-background="new 0 0 200 200" xml:space="preserve">
<g>
	<path fill="#EE7830" d="M198.999,100c0,54.672-44.328,99-99.006,99C45.317,199,1,154.672,1,100S45.317,1,99.993,1
		C154.671,1,198.999,45.328,198.999,100z"/>
	<g>
		<polygon fill="#FFFFFF" points="87.275,20 80.729,26.002 80.728,56.633 81.173,58.257 82.766,59 85.332,59 85.265,61.83 
			86.133,63.239 88.604,63.729 90,63.572 90,66.553 89.984,67.269 90.673,68.668 117.788,68.43 119.144,67.834 119,66.397 
			119,29.884 118.479,29.332 117.356,29.165 114.95,28.895 114.821,25.455 114.022,24.829 112.466,24.567 110.019,24.52 
			110.341,20.782 110.101,19.509 108.978,20 		"/>
		<path fill="#C56426" d="M108.834,59.368H82.156c-1.107,0-2.008-0.902-2.008-2.008V26.113l7.08-7.078h21.606
			c1.105,0,2.006,0.899,2.006,2.006V57.36C110.84,58.466,109.939,59.368,108.834,59.368L108.834,59.368z M81.329,26.602V57.36
			c0,0.457,0.369,0.826,0.827,0.826h26.678c0.455,0,0.826-0.369,0.826-0.826V21.041c0-0.457-0.371-0.826-0.826-0.826H87.715
			L81.329,26.602L81.329,26.602z"/>
		<path fill="#C56426" d="M113.34,23.869h-2.879v1.18h2.879c0.455,0,0.826,0.371,0.826,0.826v36.318
			c0,0.455-0.371,0.826-0.826,0.826H86.66c-0.455,0-0.826-0.371-0.826-0.826v-3.455h-1.18v3.455c0,1.108,0.9,2.008,2.006,2.008
			h26.68c1.105,0,2.008-0.899,2.008-2.008V25.875C115.348,24.769,114.445,23.869,113.34,23.869z"/>
		<path fill="#C56426" d="M117.846,28.7h-2.879v1.182h2.879c0.457,0,0.826,0.371,0.826,0.826v36.319
			c0,0.457-0.369,0.826-0.826,0.826H91.167c-0.455,0-0.828-0.369-0.828-0.826v-3.455h-1.18v3.455c0,1.108,0.902,2.008,2.008,2.008
			h26.678c1.107,0,2.008-0.899,2.008-2.008V30.708C119.854,29.603,118.953,28.7,117.846,28.7z"/>
		<line fill="none" stroke="#000000" stroke-linecap="round" stroke-miterlimit="10" x1="107" y1="35.5" x2="84" y2="35.5"/>
		<line fill="none" stroke="#000000" stroke-linecap="round" stroke-miterlimit="10" x1="107" y1="55.5" x2="84" y2="55.5"/>
		<line fill="none" stroke="#000000" stroke-linecap="round" stroke-miterlimit="10" x1="107" y1="51.5" x2="84" y2="51.5"/>
		<line fill="none" stroke="#000000" stroke-linecap="round" stroke-miterlimit="10" x1="107" y1="47.5" x2="84" y2="47.5"/>
		<line fill="none" stroke="#000000" stroke-linecap="round" stroke-miterlimit="10" x1="107" y1="43.5" x2="84" y2="43.5"/>
		<line fill="none" stroke="#000000" stroke-linecap="round" stroke-miterlimit="10" x1="107" y1="39.5" x2="84" y2="39.5"/>
		<line fill="none" stroke="#CCCCCC" stroke-linecap="round" stroke-miterlimit="10" x1="107" y1="35.5" x2="84" y2="35.5"/>
		<line fill="none" stroke="#CCCCCC" stroke-linecap="round" stroke-miterlimit="10" x1="107" y1="55.5" x2="84" y2="55.5"/>
		<line fill="none" stroke="#CCCCCC" stroke-linecap="round" stroke-miterlimit="10" x1="107" y1="51.5" x2="84" y2="51.5"/>
		<line fill="none" stroke="#CCCCCC" stroke-linecap="round" stroke-miterlimit="10" x1="107" y1="47.5" x2="84" y2="47.5"/>
		<line fill="none" stroke="#CCCCCC" stroke-linecap="round" stroke-miterlimit="10" x1="107" y1="43.5" x2="84" y2="43.5"/>
		<line fill="none" stroke="#CCCCCC" stroke-linecap="round" stroke-miterlimit="10" x1="107" y1="39.5" x2="84" y2="39.5"/>
		<line fill="none" stroke="#CCCCCC" stroke-linecap="round" stroke-miterlimit="10" x1="107" y1="23.5" x2="88" y2="23.5"/>
		<line fill="none" stroke="#CCCCCC" stroke-linecap="round" stroke-miterlimit="10" x1="107" y1="31.5" x2="84" y2="31.5"/>
		<line fill="none" stroke="#CCCCCC" stroke-linecap="round" stroke-miterlimit="10" x1="107" y1="27.5" x2="84" y2="27.5"/>
		<path fill="#C56426" d="M86.547,27.483h-5.315v-1.18h5.315c0.456,0,0.827-0.371,0.827-0.825V20.16h1.18v5.318
			C88.554,26.584,87.654,27.483,86.547,27.483L86.547,27.483z"/>
		<polygon fill="#01AEF0" points="93.683,35.929 93.683,52.636 97.316,52.636 97.316,35.928 103.826,42.438 103.826,37.3 
			98.068,31.542 95.5,28.974 92.931,31.542 87.173,37.3 87.173,42.438 		"/>
	</g>
</g>
</svg>
