<?xml version="1.0" encoding="utf-8"?>
<!-- Generator: Adobe Illustrator 15.0.0, SVG Export Plug-In . SVG Version: 6.00 Build 0)  -->
<!DOCTYPE svg PUBLIC "-//W3C//DTD SVG 1.1//EN" "http://www.w3.org/Graphics/SVG/1.1/DTD/svg11.dtd">
<svg version="1.1" id="Layer_1" xmlns="http://www.w3.org/2000/svg" xmlns:xlink="http://www.w3.org/1999/xlink" x="0px" y="0px"
	 width="200px" height="200px" viewBox="0 0 200 200" enable-background="new 0 0 200 200" xml:space="preserve">
<g>
	<path fill="#13CF56" d="M199,100c0,54.672-44.329,99-99.006,99S1,154.672,1,100S45.317,1,99.994,1S199,45.328,199,100z"/>
	<g>
		<g>
			<rect x="74.412" y="27.785" fill="#FFFFFF" width="51.174" height="34.5"/>
			<path fill="#3B9A47" d="M124.836,28.535v33H75.162v-33H124.836 M126.336,27.035h-1.5H75.162h-1.5v1.5v33v1.5h1.5h49.674h1.5v-1.5
				v-33V27.035L126.336,27.035z"/>
		</g>
		<path fill="#C1272D" d="M77.451,52.51c0.121,0,0.244-0.033,0.354-0.104l9.393-5.855c0.571,0.695,1.434,1.15,2.402,1.15
			c0.831,0,1.582-0.331,2.142-0.864l4.765,3.641c-0.203,0.413-0.33,0.872-0.33,1.367c0,1.724,1.406,3.132,3.136,3.132
			c1.729,0,3.133-1.408,3.133-3.132c0-0.675-0.218-1.29-0.579-1.804l8.104-9.198c0.494,0.322,1.084,0.516,1.721,0.516
			c1.125,0,2.105-0.601,2.658-1.495l7.918,3.719c0.335,0.153,0.727,0.013,0.884-0.319s0.014-0.73-0.317-0.882l-8.049-3.78
			c0.014-0.127,0.037-0.248,0.037-0.375c0-1.727-1.404-3.132-3.131-3.132c-1.729,0-3.135,1.405-3.135,3.132
			c0,0.611,0.182,1.177,0.486,1.656l-8.162,9.267c-0.461-0.271-0.996-0.437-1.567-0.437c-0.755,0-1.438,0.278-1.979,0.722
			L92.5,45.741c0.148-0.362,0.231-0.76,0.231-1.176c0-1.726-1.404-3.134-3.132-3.134c-1.729,0-3.135,1.408-3.135,3.134
			c0,0.277,0.05,0.544,0.115,0.8l-9.479,5.914c-0.312,0.194-0.409,0.604-0.212,0.916C77.015,52.396,77.23,52.51,77.451,52.51z
			 M111.689,36.422c0.909,0,1.656,0.683,1.777,1.559c0.013,0.084,0.025,0.161,0.025,0.245c0,0.4-0.137,0.769-0.361,1.07
			c-0.326,0.441-0.851,0.734-1.441,0.734c-0.299,0-0.575-0.078-0.824-0.208c-0.408-0.212-0.725-0.575-0.877-1.017
			c-0.061-0.182-0.103-0.375-0.103-0.58C109.886,37.233,110.695,36.422,111.689,36.422z M97.596,51.31
			c0.14-0.443,0.44-0.807,0.839-1.03c0.262-0.148,0.555-0.238,0.877-0.238c0.236,0,0.459,0.047,0.667,0.129
			c0.427,0.173,0.771,0.503,0.965,0.92c0.105,0.23,0.169,0.484,0.169,0.755c0,0.995-0.808,1.805-1.801,1.805
			c-0.996,0-1.804-0.81-1.804-1.805C97.508,51.656,97.543,51.479,97.596,51.31z M89.6,42.765c0.994,0,1.805,0.806,1.805,1.801
			c0,0.107-0.013,0.214-0.032,0.312c-0.084,0.466-0.342,0.863-0.706,1.138c-0.301,0.221-0.667,0.353-1.066,0.353
			c-0.496,0-0.946-0.201-1.271-0.525c-0.319-0.315-0.519-0.754-0.528-1.238c0-0.014-0.006-0.027-0.006-0.039
			C87.795,43.57,88.604,42.765,89.6,42.765z"/>
	</g>
</g>
</svg>
