<?xml version="1.0" encoding="utf-8"?>
<!-- Generator: Adobe Illustrator 15.0.0, SVG Export Plug-In . SVG Version: 6.00 Build 0)  -->
<!DOCTYPE svg PUBLIC "-//W3C//DTD SVG 1.1//EN" "http://www.w3.org/Graphics/SVG/1.1/DTD/svg11.dtd">
<svg version="1.1" id="Layer_1" xmlns="http://www.w3.org/2000/svg" xmlns:xlink="http://www.w3.org/1999/xlink" x="0px" y="0px"
	 width="200px" height="200px" viewBox="0 0 200 200" enable-background="new 0 0 200 200" xml:space="preserve">
<g>
	<path fill="#FF6BB9" d="M199,100c0,54.672-44.329,99-99.006,99C45.317,199,1,154.672,1,100S45.317,1,99.994,1
		C154.671,1,199,45.328,199,100z"/>
	<g>
		<path fill="#DA639B" d="M101.665,43.287l-4.92-8.528c-0.459-0.793-0.459-1.901,0.002-2.694l7.03-12.183
			c0.47-0.797,1.428-1.347,2.336-1.347h10.365c0.721,0,1.352,0.347,1.686,0.927c0.335,0.58,0.318,1.299-0.042,1.922l-13.155,22.808
			L101.665,43.287z"/>
	</g>
	<g>
		<path fill="#FFFFFF" d="M104.246,42.438l12.578-21.807c0.189-0.327,0.033-0.597-0.346-0.597h-10.365
			c-0.381,0-0.844,0.27-1.036,0.597l-7.033,12.186c-0.189,0.326-0.189,0.864,0,1.191l4.612,7.994L104.246,42.438z"/>
	</g>
	<g>
		<path fill="#DA639B" d="M93.453,44.094c-0.921,0-1.882-0.556-2.337-1.353l-12.321-21.36c-0.359-0.614-0.378-1.333-0.044-1.915
			c0.334-0.583,0.966-0.931,1.689-0.931h10.363c0.916,0,1.876,0.553,2.334,1.345l12.324,21.368c0.359,0.613,0.379,1.334,0.045,1.916
			c-0.333,0.582-0.964,0.93-1.688,0.93H93.453z"/>
	</g>
	<g>
		<path fill="#FFFFFF" d="M103.82,42.594c0.379,0,0.533-0.269,0.342-0.597L91.84,20.632c-0.189-0.327-0.656-0.597-1.036-0.597H80.44
			c-0.381,0-0.537,0.27-0.346,0.597l12.324,21.365c0.188,0.328,0.656,0.597,1.034,0.597H103.82z"/>
	</g>
	<circle fill="#C56426" cx="99.18" cy="54.973" r="13.749"/>
	<circle fill="#FFFFFF" cx="99.181" cy="54.973" r="10.44"/>
	<path fill="#DA639B" d="M99.348,71.535c-9.106,0-16.515-7.408-16.515-16.515s7.408-16.517,16.515-16.517
		s16.518,7.409,16.518,16.517C115.865,64.127,108.455,71.535,99.348,71.535z"/>
	<path fill="#FFFFFF" d="M99.348,40.004c-8.292,0-15.015,6.724-15.015,15.017s6.723,15.015,15.015,15.015
		c8.292,0,15.018-6.722,15.018-15.015S107.641,40.004,99.348,40.004"/>
	<path fill="#F1B81B" d="M99.348,43.086c-6.58,0-11.933,5.354-11.933,11.935c0,6.578,5.353,11.933,11.933,11.933
		c6.582,0,11.934-5.354,11.934-11.933C111.281,48.44,105.93,43.086,99.348,43.086 M107.711,53.625l-3.042,2.966
		c-0.417,0.407-0.679,1.21-0.581,1.784l0.719,4.189c0.101,0.575-0.242,0.822-0.758,0.551l-3.761-1.976
		c-0.517-0.271-1.363-0.271-1.878,0l-3.76,1.976c-0.518,0.271-0.858,0.024-0.761-0.551l0.719-4.189
		c0.098-0.574-0.164-1.377-0.581-1.784l-3.042-2.966c-0.419-0.407-0.287-0.808,0.29-0.892l4.205-0.611
		c0.576-0.083,1.261-0.58,1.519-1.104l1.88-3.812c0.258-0.523,0.681-0.523,0.938,0l1.88,3.812c0.26,0.523,0.941,1.021,1.521,1.104
		l4.203,0.611C107.998,52.817,108.13,53.218,107.711,53.625"/>
</g>
</svg>
