<?xml version="1.0" encoding="utf-8"?>
<!-- Generator: Adobe Illustrator 15.0.0, SVG Export Plug-In . SVG Version: 6.00 Build 0)  -->
<!DOCTYPE svg PUBLIC "-//W3C//DTD SVG 1.1//EN" "http://www.w3.org/Graphics/SVG/1.1/DTD/svg11.dtd">
<svg version="1.1" id="Layer_1" xmlns="http://www.w3.org/2000/svg" xmlns:xlink="http://www.w3.org/1999/xlink" x="0px" y="0px"
	 width="200px" height="200px" viewBox="0 0 200 200" enable-background="new 0 0 200 200" xml:space="preserve">
<g>
	<path fill="#01AEF0" d="M199,100c0,54.672-44.329,99-99.006,99S1,154.672,1,100S45.317,1,99.994,1S199,45.328,199,100z"/>
	<g>
		<g>
			<g>
				<path fill="#FFFFFF" d="M100.798,45.068c-0.98,0-1.777-0.797-1.777-1.777v-1.974l3.556-2.383v2.579h23.558v-16.38h-23.558v7.154
					l-0.403,0.297c-0.043,0.03-0.087,0.06-0.127,0.095l-1.141,0.799l-0.342-0.894c-0.279-0.728-0.708-1.361-1.31-1.935l-0.232-0.222
					v-7.071c0-0.98,0.797-1.778,1.777-1.778h27.114c0.98,0,1.778,0.798,1.778,1.778v19.936c0,0.98-0.798,1.777-1.778,1.777H100.798z
					"/>
				<path fill="#2690BE" d="M127.912,22.327c0.566,0,1.028,0.461,1.028,1.028v19.936c0,0.569-0.462,1.027-1.028,1.027h-27.114
					c-0.566,0-1.027-0.458-1.027-1.027v-1.573l2.056-1.378v1.923h25.058v-17.88h-25.058v7.526c-0.091,0.067-0.188,0.129-0.275,0.206
					l-0.288,0.2c-0.347-0.906-0.875-1.622-1.492-2.21v-6.75c0-0.567,0.46-1.028,1.027-1.028H127.912 M127.912,20.827h-27.114
					c-1.393,0-2.527,1.134-2.527,2.528v6.75v0.643l0.465,0.443c0.52,0.495,0.888,1.039,1.126,1.661l0.685,1.788l1.572-1.092
					l0.288-0.2l0.069-0.049l0.063-0.056c0.018-0.013,0.042-0.03,0.065-0.046l0.114-0.083l0.606-0.45v-0.755v-6.026h22.058v14.88
					h-22.058V40.34v-2.812l-2.335,1.565l-2.056,1.378l-0.665,0.446v0.8v1.573c0,1.394,1.134,2.527,2.527,2.527h27.114
					c1.395,0,2.528-1.134,2.528-2.527V23.355C130.44,21.961,129.307,20.827,127.912,20.827L127.912,20.827z"/>
			</g>
		</g>
		<g>
			<g>
				<g>
					<g>
						<path fill="#FFFFFF" d="M86.878,70.697c-1.824,0-3.308-1.486-3.308-3.312l0.009-20.614c-0.448,0.825-1.321,1.386-2.322,1.386
							c-1.229,0-2.265-0.844-2.561-1.983h-0.081c0,0-0.003-0.646-0.003-0.666V34.381c-0.003-0.045-0.079-1.974,1.413-3.57
							c1.217-1.302,3.08-1.985,5.536-2.032h2.807l1.665,2.728l1.661-2.728h2.891c2.266,0,6.086,1.05,6.787,4.891l1.349-0.924
							c0.497-0.475,1.161-0.736,1.877-0.736c0.766,0.023,1.395,0.291,1.863,0.754c0.499,0.496,0.774,1.16,0.775,1.87
							c0,0.226-0.027,0.447-0.081,0.661h1.214l-5.011,3.35l-3.864,2.592l-0.098-0.13c-0.193,0.048-0.386,0.071-0.583,0.071
							c-1.042,0-1.945-0.607-2.375-1.487l0.006,27.708c0,1.817-1.479,3.296-3.295,3.296c-1.449,0-2.691-0.952-3.129-2.263
							C89.581,69.747,88.338,70.697,86.878,70.697z"/>
						<path fill="#2690BE" d="M94.598,29.529c0.312,0,5.709,0.069,6.11,4.852v0.649l2.231-1.524l0.246-0.172
							c0.004,0,0.014-0.01,0.014-0.01c0.384-0.386,0.893-0.564,1.396-0.564c0.022,0,0.045,0,0.067,0.001
							c0.461,0.015,0.916,0.188,1.268,0.536c0.751,0.746,0.733,1.975-0.027,2.733c-0.005,0.005-0.007,0.005-0.011,0.015h0.004
							l-1.233,0.823l-1.724,1.153l-3.274,2.196l-0.007-0.01c-0.262,0.134-0.538,0.22-0.846,0.22c-1.043,0-1.892-0.853-1.892-1.896
							c0-0.005,0-0.014,0-0.018v-3.356h-1.234l0.007,32.24c0,1.403-1.142,2.546-2.545,2.546c-1.399,0-2.53-1.126-2.547-2.519
							l-0.021-0.021V46.621h-1.142v20.764c0,1.414-1.145,2.562-2.561,2.562c-1.407,0-2.558-1.148-2.558-2.562l0.014-32.175h-1.185
							v10.214h-0.003c0.003,0.027,0.003,0.062,0.003,0.084c0,1.052-0.848,1.899-1.892,1.899c-1.048,0-1.896-0.848-1.896-1.899
							c0-0.022,0.003-0.057,0.003-0.084h-0.003V34.381c0,0-0.229-4.73,6.213-4.852h2.372l2.086,3.419l2.081-3.419h2.469
							C94.583,29.529,94.588,29.529,94.598,29.529 M94.598,28.029h-0.01h-0.023h-2.45h-0.843l-0.438,0.72l-0.801,1.316l-0.805-1.318
							l-0.438-0.719h-0.842h-2.372c-2.695,0.05-4.737,0.814-6.098,2.27c-1.595,1.707-1.626,3.712-1.615,4.107v11.018v1.5h0.309
							c0.538,1.169,1.719,1.983,3.087,1.983c0.567,0,1.101-0.14,1.571-0.387L82.82,67.384c0,2.241,1.82,4.063,4.058,4.063
							c1.265,0,2.397-0.582,3.142-1.492c0.745,0.908,1.874,1.489,3.128,1.489c2.23,0,4.045-1.815,4.045-4.046l-0.006-25.886
							c0.482,0.265,1.036,0.416,1.624,0.416c0.085,0,0.169-0.003,0.253-0.01l0.247,0.329l1.189-0.783l3.274-2.196l1.722-1.152
							l1.232-0.822l4.116-2.748h-2.863c-0.022-0.877-0.374-1.695-0.994-2.312c-0.604-0.599-1.413-0.944-2.277-0.971l-0.115-0.002
							c-0.889,0-1.717,0.319-2.351,0.901l-0.165,0.115l-0.258,0.177C100.591,29.01,96.872,28.029,94.598,28.029L94.598,28.029z"/>
					</g>
				</g>
				<g>
					<g>
						<path fill="#FFFFFF" d="M89.997,29.455c-2.804,0-5.085-2.28-5.085-5.083c0-2.805,2.281-5.087,5.085-5.087
							s5.085,2.282,5.085,5.087C95.082,27.175,92.8,29.455,89.997,29.455z"/>
						<path fill="#2690BE" d="M89.997,20.035c2.395,0,4.335,1.939,4.335,4.337c0,2.393-1.94,4.333-4.335,4.333
							c-2.394,0-4.335-1.94-4.335-4.333C85.662,21.975,87.603,20.035,89.997,20.035 M89.997,18.535
							c-3.217,0-5.835,2.619-5.835,5.837c0,3.216,2.618,5.833,5.835,5.833s5.835-2.617,5.835-5.833
							C95.832,21.154,93.214,18.535,89.997,18.535L89.997,18.535z"/>
					</g>
				</g>
			</g>
			<g>
				<g>
					
						<rect x="100.976" y="29.888" transform="matrix(-0.8274 0.5616 -0.5616 -0.8274 217.5708 -4.7839)" fill="#FFFFFF" width="17.089" height="2.306"/>
					<path fill="#2690BE" d="M115.743,26.33l0.453,0.667l-12.896,8.756l-0.455-0.668L115.743,26.33 M116.142,24.247l-1.241,0.842
						l-12.897,8.755l-1.243,0.844l0.846,1.242l0.455,0.668l0.843,1.237l1.239-0.841l12.896-8.756l1.241-0.843l-0.843-1.241
						l-0.453-0.667L116.142,24.247L116.142,24.247z"/>
				</g>
			</g>
		</g>
	</g>
	<rect x="99.75" y="23.327" fill="#13CF56" width="27.933" height="19.423"/>
	<path fill="#FFFFFF" d="M127.916,22.327h-27.114c-0.566,0-1.027,0.461-1.027,1.028v11.229c0.617,0.588,1.145,1.304,1.492,2.21
		l0.288-0.2c0.088-0.077,0.185-0.139,0.275-0.206V24.383h25.058v17.88h-25.058V40.34l-2.056,1.378v1.573
		c0,0.569,0.46,1.027,1.027,1.027h27.114c0.566,0,1.028-0.458,1.028-1.027V23.355C128.944,22.788,128.482,22.327,127.916,22.327z"/>
	<path fill="#FFFFFF" d="M104.667,36.868l1.233-0.823h-0.004c0.004-0.01,0.006-0.01,0.011-0.015
		c0.623-0.621,0.739-1.554,0.351-2.282l-2.953,2.005l-0.455-0.668l2.88-1.955c-0.315-0.233-0.686-0.357-1.062-0.369
		c-0.525-0.017-1.062,0.16-1.464,0.563c0,0-0.01,0.01-0.014,0.01l-0.246,0.172l-2.231,1.524v-0.649
		c-0.414-4.925-6.125-4.852-6.125-4.852h-2.469l-2.081,3.419l-2.086-3.419h-2.372c-6.442,0.121-6.213,4.852-6.213,4.852v11.043
		h0.003c0,0.027-0.003,0.062-0.003,0.084c0,1.052,0.848,1.899,1.896,1.899c1.044,0,1.892-0.848,1.892-1.899
		c0-0.022,0-0.057-0.003-0.084h0.003V35.21h1.185l-0.014,32.175c0,1.414,1.15,2.562,2.558,2.562c1.416,0,2.561-1.148,2.561-2.562
		V46.621h1.142v20.784l0.021,0.021c0.017,1.393,1.148,2.519,2.547,2.519c1.403,0,2.545-1.143,2.545-2.546l-0.007-32.24h1.234v3.356
		c0,0.004,0,0.013,0,0.018c0,1.043,0.848,1.896,1.892,1.896c0.308,0,0.584-0.086,0.846-0.22l0.007,0.01l3.274-2.196L104.667,36.868z
		"/>
	<path fill="#FFFFFF" d="M90,28.705c2.395,0,4.335-1.94,4.335-4.333c0-2.397-1.94-4.337-4.335-4.337
		c-2.394,0-4.335,1.939-4.335,4.337C85.666,26.765,87.606,28.705,90,28.705z"/>
	<path fill="#FFFFFF" d="M106.258,33.748l9.942-6.751l-0.453-0.667l-10.018,6.8c0.07,0.052,0.141,0.104,0.205,0.167
		C106.07,33.432,106.173,33.586,106.258,33.748z"/>
	<path fill="#FFFFFF" d="M103.305,35.753l2.953-2.005c-0.085-0.162-0.188-0.316-0.323-0.451c-0.064-0.063-0.135-0.115-0.205-0.167
		l-2.88,1.955L103.305,35.753z"/>
</g>
</svg>
