<?xml version="1.0" encoding="utf-8"?>
<!-- Generator: Adobe Illustrator 15.0.0, SVG Export Plug-In . SVG Version: 6.00 Build 0)  -->
<!DOCTYPE svg PUBLIC "-//W3C//DTD SVG 1.1//EN" "http://www.w3.org/Graphics/SVG/1.1/DTD/svg11.dtd">
<svg version="1.1" id="Layer_1" xmlns="http://www.w3.org/2000/svg" xmlns:xlink="http://www.w3.org/1999/xlink" x="0px" y="0px"
	 width="200px" height="200px" viewBox="0 0 200 200" enable-background="new 0 0 200 200" xml:space="preserve">
<g>
	<path fill="#13CF56" d="M199,100c0,54.672-44.33,99-99.006,99C45.318,199,1,154.672,1,100S45.318,1,99.994,1
		C154.67,1,199,45.328,199,100z"/>
	<g>
		<g>
			<path fill="#FFFFFF" d="M80.245,23.5l-6.547,5.752l-0.002,30.506l0.445,1.562l1.594,0.712c0.93,0,1.855-0.051,2.785-0.028
				c0.857,0.021,1.689,0.025,2.535,0.183c1.592,0.297,3.049-0.407,4.66-0.246c1.693,0.169,12.561-0.165,14.262-0.122
				c3.777,0.095,2.576-0.46,2.966-1.044c0.998-1.434,0.578-4.367,0.701-6.081c0.073-1.062,0.08-2.118,0.012-3.179
				c-0.055-0.852-0.123-1.701-0.092-2.555c0.024-0.687,0.018-1.341-0.09-2.021c-0.291-1.834-0.603-3.647-0.754-5.501
				c-0.228-2.753-0.232-5.55-0.128-8.309c0.089-2.389,0.285-4.771,0.509-7.151c0.067-0.731,0.137-1.463,0.205-2.194l-0.24-1.023
				l-1.121,0.741h-21.7V23.5z"/>
			<line fill="none" stroke="#CCCCCC" stroke-linecap="round" stroke-miterlimit="10" x1="99.5" y1="39" x2="76.5" y2="39"/>
			<line fill="none" stroke="#CCCCCC" stroke-linecap="round" stroke-miterlimit="10" x1="99.5" y1="59" x2="76.5" y2="59"/>
			<line fill="none" stroke="#CCCCCC" stroke-linecap="round" stroke-miterlimit="10" x1="99.5" y1="55" x2="76.5" y2="55"/>
			<line fill="none" stroke="#CCCCCC" stroke-linecap="round" stroke-miterlimit="10" x1="99.5" y1="51" x2="76.5" y2="51"/>
			<line fill="none" stroke="#CCCCCC" stroke-linecap="round" stroke-miterlimit="10" x1="99.5" y1="47" x2="76.5" y2="47"/>
			<line fill="none" stroke="#CCCCCC" stroke-linecap="round" stroke-miterlimit="10" x1="99.5" y1="43" x2="76.5" y2="43"/>
			<line fill="none" stroke="#CCCCCC" stroke-linecap="round" stroke-miterlimit="10" x1="99.5" y1="27" x2="81.5" y2="27"/>
			<line fill="none" stroke="#CCCCCC" stroke-linecap="round" stroke-miterlimit="10" x1="99.5" y1="35" x2="76.5" y2="35"/>
			<line fill="none" stroke="#CCCCCC" stroke-linecap="round" stroke-miterlimit="10" x1="99.5" y1="31" x2="76.5" y2="31"/>
			<path fill="#3B9A47" d="M101.801,62.368H75.124c-1.107,0-2.008-0.902-2.008-2.008V29.113l7.08-7.078h21.605
				c1.105,0,2.006,0.899,2.006,2.006V60.36C103.807,61.466,102.906,62.368,101.801,62.368L101.801,62.368z M74.297,29.602V60.36
				c0,0.457,0.369,0.826,0.826,0.826H101.8c0.455,0,0.826-0.369,0.826-0.826V24.041c0-0.457-0.371-0.826-0.826-0.826H80.684
				L74.297,29.602L74.297,29.602z"/>
			<path fill="#3B9A47" d="M79.516,30.483H74.2v-1.18h5.316c0.455,0,0.826-0.371,0.826-0.825V23.16h1.18v5.318
				C81.522,29.584,80.622,30.483,79.516,30.483L79.516,30.483z"/>
		</g>
		<path fill="#3B9A47" d="M122.764,69.476c-1.102,0-2.137-0.43-2.916-1.208l-9.965-9.966c-0.857-0.857-1.277-2.028-1.188-3.21
			l-1.055-1.055c-2.101,1.363-4.574,2.103-7.104,2.103c-3.48,0-6.748-1.352-9.201-3.806c-5.074-5.076-5.074-13.334,0-18.408
			c2.453-2.455,5.723-3.807,9.203-3.807c3.479,0,6.748,1.352,9.203,3.807c4.409,4.408,5.049,11.202,1.704,16.307l1.056,1.054
			c0.103-0.008,0.205-0.011,0.31-0.011c1.096,0,2.127,0.425,2.897,1.198l9.967,9.966c0.779,0.778,1.207,1.813,1.207,2.914
			s-0.428,2.136-1.207,2.914C124.9,69.046,123.865,69.476,122.764,69.476z M100.539,35.023c-2.169,0-4.207,0.842-5.734,2.371
			c-1.529,1.529-2.371,3.565-2.371,5.735s0.842,4.206,2.371,5.735c1.527,1.528,3.564,2.37,5.732,2.37
			c2.17,0,4.207-0.842,5.736-2.371c1.528-1.528,2.371-3.565,2.371-5.734c0-2.17-0.843-4.206-2.371-5.735
			C104.744,35.865,102.707,35.023,100.539,35.023z"/>
		<circle fill="#01AEF0" cx="100.489" cy="43.149" r="10.441"/>
		<path fill="#69D3F4" d="M94.147,44.846c0-4.439,3.6-8.038,8.037-8.038c1.785,0,3.435,0.591,4.769,1.576
			c-1.468-1.98-3.812-3.271-6.462-3.271c-4.438,0-8.037,3.599-8.037,8.037c0,2.652,1.291,4.998,3.271,6.461
			C94.737,48.275,94.147,46.631,94.147,44.846z"/>
		<path fill="#FFFFFF" d="M108.682,34.986c-4.49-4.489-11.795-4.489-16.285,0c-4.49,4.489-4.49,11.796,0,16.287
			c4.203,4.204,10.88,4.471,15.398,0.798l2.518,2.516c-0.291,0.905-0.088,1.935,0.631,2.654l9.968,9.966
			c1.022,1.024,2.685,1.024,3.705,0c1.022-1.023,1.022-2.684,0-3.707l-9.968-9.966c-0.719-0.719-1.746-0.922-2.651-0.632
			l-2.519-2.517C113.154,45.868,112.887,39.191,108.682,34.986 M93.745,49.926c-3.748-3.747-3.748-9.845,0-13.592
			c3.746-3.747,9.841-3.747,13.589,0c3.746,3.747,3.746,9.845,0,13.591C103.586,53.672,97.491,53.672,93.745,49.926"/>
	</g>
</g>
</svg>
